<?xml version="1.0" encoding="utf-8"?>
<!-- Generator: Adobe Illustrator 16.0.0, SVG Export Plug-In . SVG Version: 6.00 Build 0)  -->
<!DOCTYPE svg PUBLIC "-//W3C//DTD SVG 1.1//EN" "http://www.w3.org/Graphics/SVG/1.1/DTD/svg11.dtd">
<svg version="1.1"
	 id="svg2" sodipodi:docname="AJAX.svg" inkscape:version="0.48.1 " sodipodi:version="0.32" inkscape:output_extension="org.inkscape.output.svg.inkscape" xmlns:dc="http://purl.org/dc/elements/1.1/" xmlns:cc="http://creativecommons.org/ns#" xmlns:rdf="http://www.w3.org/1999/02/22-rdf-syntax-ns#" xmlns:svg="http://www.w3.org/2000/svg" xmlns:sodipodi="http://sodipodi.sourceforge.net/DTD/sodipodi-0.dtd" xmlns:inkscape="http://www.inkscape.org/namespaces/inkscape"
	 xmlns="http://www.w3.org/2000/svg" xmlns:xlink="http://www.w3.org/1999/xlink" x="0px" y="0px" width="295.576px"
	 height="83.407px" viewBox="0 0 295.576 83.407" enable-background="new 0 0 295.576 83.407" xml:space="preserve">
<defs>
	
	
		<inkscape:perspective  id="perspective9" inkscape:persp3d-origin="372.04724 : 350.78739 : 1" sodipodi:type="inkscape:persp3d" inkscape:vp_z="744.09448 : 526.18109 : 1" inkscape:vp_y="0 : 1000 : 0" inkscape:vp_x="0 : 526.18109 : 1">
		</inkscape:perspective>
</defs>
<sodipodi:namedview  id="base" fit-margin-bottom="0" fit-margin-right="0" inkscape:current-layer="g11" inkscape:window-y="-8" inkscape:window-x="-8" inkscape:pageopacity="0.0" inkscape:pageshadow="2" inkscape:window-width="1280" inkscape:window-height="750" inkscape:window-maximized="0" fit-margin-left="0" fit-margin-top="0" inkscape:cy="48.980558" inkscape:cx="148.87599" inkscape:zoom="2.483428" showgrid="false" pagecolor="#ffffff" bordercolor="#666666" borderopacity="1.0" objecttolerance="10.0" gridtolerance="10.0" guidetolerance="10.0">
	</sodipodi:namedview>
<g id="g11" transform="matrix(1.25,0,0,-1.25,-233.49635,650.19761)" inkscape:label="bookingguide" inkscape:groupmode="layer">
	<g id="g2901" transform="matrix(1.6346852,0,0,1.6346852,-480.32465,383.92554)">
		<g id="g103" transform="translate(434.6456,47.0897)">
			<path id="path105" inkscape:connector-curvature="0" fill="#FFFFFF" d="M0,0c-0.309-0.021-0.609-0.04-0.919-0.04
				c-0.35,0-0.689,0.03-1.039,0.04l1.019,2.457L0,0z M1.129-2.787c0.18,0.01,0.46,0.059,0.739,0.059c0.28,0,0.63-0.049,0.78-0.059
				c-0.45,0.969-1.11,2.478-1.489,3.347C0.799,1.398,0.2,2.797-0.279,4.166c-0.11-0.03-0.211-0.051-0.32-0.051
				c-0.12,0-0.22,0.021-0.33,0.051c-0.239-0.819-0.82-2.118-1.828-4.377l-1.159-2.576c0.139,0.02,0.28,0.059,0.449,0.059
				c0.16,0,0.351-0.039,0.48-0.059c0.159,0.569,0.479,1.399,0.798,2.167c0.4,0.021,0.8,0.04,1.199,0.04
				c0.43,0,0.85-0.019,1.281-0.04l0.418-1.059L1.129-2.787z"/>
		</g>
		<g id="g107" transform="translate(438.1694,48.8478)">
			<path id="path109" inkscape:connector-curvature="0" fill="#FFFFFF" d="M0,0c0-1.708,0-3.357-0.11-4.545
				c0.221,0.009,0.5,0.059,0.719,0.059c0.23,0,0.47-0.051,0.7-0.059c-0.08,0.809-0.1,1.888-0.1,3.376c0,1.01,0,2.737,0.11,3.477
				c-0.24-0.03-0.489-0.061-0.71-0.061c-0.149,0-0.52,0.04-0.709,0.061C0,1.34,0,0.63,0,0"/>
		</g>
		<g id="g111" transform="translate(444.1109,47.6989)">
			<path id="path113" inkscape:connector-curvature="0" fill="#FFFFFF" d="M0,0c0.91,0.17,1.739,0.74,1.739,1.848
				c0,0.421-0.16,0.831-0.459,1.12C0.851,3.377,0.36,3.457-0.289,3.457c-0.23,0-1.389-0.051-1.648-0.051
				c-0.51,0-0.77,0.03-0.999,0.051c0.069-1.289,0.069-1.429,0.069-2.738c0-1.927-0.01-2.147-0.089-4.115
				c0.22,0.029,0.46,0.059,0.688,0.059c0.251,0,0.47-0.039,0.67-0.059c0,0.259-0.04,1.548-0.04,1.838v1.418h0.24
				c0.54-0.759,1.158-1.638,1.668-2.428c0.15-0.228,0.37-0.599,0.52-0.828c0.3,0.04,0.42,0.059,0.81,0.059
				c0.359,0,0.609-0.031,0.888-0.059C1.859-2.608,1.588-2.258,0.8-1.149C0.65-0.939,0.43-0.609,0.28-0.4L0,0z M-1.638,2.917
				c0.15,0.011,0.52,0.051,0.71,0.051c0.329,0,0.66-0.051,0.928-0.251c0.35-0.259,0.42-0.619,0.42-1.039
				c0-0.648-0.369-1.379-1.368-1.379c-0.26,0-0.5,0.021-0.69,0.031V2.917z"/>
		</g>
		<g id="g115" transform="translate(449.3145,46.6396)">
			<path id="path117" inkscape:connector-curvature="0" fill="#FFFFFF" d="M0,0c-0.468,1.389-1.118,3.337-1.428,4.515
				c-0.25-0.04-0.469-0.06-0.699-0.06c-0.24,0-0.58,0.039-0.78,0.06c0.41-1.079,0.759-2.037,1.03-2.797
				c0.46-1.299,0.759-2.199,1.119-3.296l0.249-0.76c0.14,0.029,0.299,0.059,0.41,0.059c0.11,0,0.21-0.019,0.379-0.059
				c0.16,0.519,0.35,1.158,0.491,1.568C1.159,0.37,1.21,0.53,1.72,1.948l0.299,0.829c0.11-0.319,0.3-0.829,0.409-1.148
				c0.11-0.31,0.62-1.839,0.74-2.179c0.16-0.449,0.199-0.578,0.569-1.786c0.09,0.01,0.279,0.059,0.43,0.059
				c0.14,0,0.249-0.03,0.399-0.059c0.38,1.188,0.42,1.308,0.979,2.907c0.55,1.559,0.889,2.447,1.488,3.946
				c-0.15-0.04-0.298-0.06-0.449-0.06c-0.19,0-0.349,0.03-0.459,0.06c-0.36-1.299-0.539-1.929-0.829-2.787
				c-0.47-1.398-0.53-1.558-0.819-2.318c-0.32,0.859-0.63,1.729-0.92,2.607c-0.159,0.48-0.77,2.477-0.779,2.498
				c-0.139-0.03-0.24-0.06-0.44-0.06c-0.178,0-0.31,0.039-0.439,0.06C1.599,3.297,0.54,0.36,0.44,0.09L0.19-0.559L0,0z"/>
		</g>
		<g id="g119" transform="translate(459.3955,47.0897)">
			<path id="path121" inkscape:connector-curvature="0" fill="#FFFFFF" d="M0,0c-0.31-0.021-0.609-0.04-0.92-0.04
				c-0.349,0-0.689,0.03-1.038,0.04l1.018,2.457L0,0z M1.128-2.787c0.181,0.01,0.461,0.059,0.74,0.059
				c0.28,0,0.63-0.049,0.779-0.059C2.198-1.818,1.538-0.309,1.158,0.56C0.798,1.398,0.199,2.797-0.28,4.166
				c-0.11-0.03-0.21-0.051-0.32-0.051c-0.119,0-0.22,0.021-0.33,0.051c-0.239-0.819-0.819-2.118-1.828-4.377l-1.159-2.576
				c0.141,0.02,0.28,0.059,0.45,0.059c0.16,0,0.349-0.039,0.48-0.059c0.159,0.569,0.48,1.399,0.799,2.167
				c0.399,0.021,0.799,0.04,1.198,0.04c0.43,0,0.849-0.019,1.279-0.04l0.42-1.059L1.128-2.787z"/>
		</g>
		<g id="g123" transform="translate(464.7174,46.9798)">
			<path id="path125" inkscape:connector-curvature="0" fill="#FFFFFF" d="M0,0c0,0.089,0.06,0.199,0.13,0.32
				c0.42,0.719,0.809,1.469,1.259,2.188c0.149,0.24,0.879,1.398,1.03,1.668c-0.111-0.04-0.221-0.061-0.42-0.061
				c-0.221,0-0.421,0.031-0.581,0.061C0.699,2.597,0.539,2.258-0.309,0.799c-0.849,1.488-1.229,2.277-1.749,3.377
				c-0.289-0.05-0.58-0.061-0.819-0.061c-0.22,0-0.45,0.021-0.819,0.061c0.519-0.869,1.369-2.248,1.878-3.127l0.589-1.019
				c0-0.62-0.03-1.928-0.059-2.707c0.189,0.02,0.469,0.059,0.668,0.059c0.23,0,0.461-0.039,0.691-0.059C0.03-1.748,0-1.209,0-0.369
				V0z"/>
		</g>
		<g id="g127" transform="translate(467.7119,45.8003)">
			<path id="path129" inkscape:connector-curvature="0" fill="#FFFFFF" d="M0,0c-0.049-0.479-0.06-0.609-0.23-1.128
				c0.36-0.18,1.01-0.51,1.868-0.51c1.829,0,2.538,1.168,2.538,2.188c0,0.28-0.07,0.87-0.489,1.319
				c-0.29,0.32-0.59,0.429-1.359,0.729C1.45,2.938,0.939,3.138,0.939,3.867c0,0.589,0.39,1.079,1.179,1.079
				c0.629,0,1.16-0.3,1.309-0.869h0.14c0.09,0.379,0.11,0.459,0.31,0.949c-0.49,0.219-0.93,0.409-1.659,0.409
				c-1.809,0-2.328-1.119-2.328-1.997c0-0.83,0.291-1.34,1.259-1.769c0.279-0.12,0.75-0.299,1.029-0.421
				c0.19-0.078,0.82-0.357,0.82-1.148c0-0.72-0.521-1.25-1.309-1.25c-0.59,0-1.09,0.15-1.549,1.149H0z"/>
		</g>
		<g id="g131" transform="translate(412.2101,64.2639)">
			<path id="path133" inkscape:connector-curvature="0" fill="#FFFFFF" d="M0,0c0,7.552,4.046,9.591,7.104,9.591
				c4.915,0,7.043-4.077,7.043-8.423c0-2.487-0.3-4.825-1.529-6.714c-1.229-1.887-3.266-3.027-5.485-3.027C1.589-8.573,0-3.297,0,0
				 M14.926-15.437c0.899,0.63,2.308,1.409,3.327,1.859L11.48-9.381c4.165,1.468,6.773,5.184,6.773,10.25
				c0,7.192-5.485,10.25-11.09,10.25c-6.053,0-11.269-3.357-11.269-10.97c0-1.617,0.36-4.675,2.877-7.223
				c2.608-2.638,5.695-3.027,8.303-3.027c0.329,0,0.658,0,0.989,0.029L14.926-15.437z"/>
		</g>
		<g id="g135" transform="translate(444.4453,62.9446)">
			<path id="path137" inkscape:connector-curvature="0" fill="#FFFFFF" d="M0,0c-0.93-0.061-1.828-0.121-2.759-0.121
				C-3.807-0.121-4.826-0.03-5.874,0l3.057,7.373L0,0z M3.387-8.362c0.539,0.03,1.379,0.18,2.217,0.18
				c0.841,0,1.888-0.15,2.339-0.18C6.594-5.455,4.616-0.929,3.476,1.679c-1.079,2.517-2.877,6.714-4.315,10.82
				c-0.33-0.091-0.63-0.151-0.959-0.151c-0.36,0-0.66,0.06-0.989,0.151c-0.72-2.459-2.458-6.355-5.485-13.128l-3.478-7.733
				c0.42,0.058,0.84,0.18,1.349,0.18c0.479,0,1.05-0.121,1.439-0.18c0.479,1.709,1.44,4.196,2.398,6.504
				c1.198,0.059,2.397,0.119,3.596,0.119c1.289,0,2.548-0.06,3.838-0.119l1.257-3.178L3.387-8.362z"/>
		</g>
		<g id="g139" transform="translate(461.1321,69.7778)">
			<path id="path141" inkscape:connector-curvature="0" fill="#FFFFFF" d="M0,0c0,1.139,0.029,2.278,0.059,3.358
				c2.068,0,4.197-0.031,5.965-0.21c-0.09,0.479-0.15,0.748-0.15,1.078c0,0.24,0.06,0.631,0.15,1.139
				C3.147,5.216,0.509,5.186-1.979,5.186c-2.308,0-5.635,0.03-8.003,0.179c0.091-0.36,0.15-0.749,0.15-1.109
				c0-0.36-0.059-0.749-0.15-1.108c1.53,0.149,4.407,0.21,4.676,0.21h1.499c0.03-1.17,0.06-2.219,0.06-3.328l0.03-8.361
				c0-2.279-0.179-4.587-0.3-6.864c1.079,0.119,1.529,0.179,2.038,0.179c0.36,0,1.319-0.09,2.189-0.179
				C0.119-14.357,0-13.367,0-11.09V0z"/>
		</g>
		<g id="g143" transform="translate(477.8145,62.9446)">
			<path id="path145" inkscape:connector-curvature="0" fill="#FFFFFF" d="M0,0c-0.929-0.061-1.828-0.121-2.757-0.121
				c-1.05,0-2.068,0.091-3.118,0.121l3.058,7.373L0,0z M3.387-8.362c0.539,0.03,1.379,0.18,2.218,0.18
				c0.839,0,1.888-0.15,2.338-0.18C6.594-5.455,4.616-0.929,3.477,1.679c-1.079,2.517-2.878,6.714-4.316,10.82
				c-0.33-0.091-0.63-0.151-0.959-0.151c-0.36,0-0.66,0.06-0.99,0.151C-3.506,10.04-5.245,6.144-8.273-0.629l-3.476-7.733
				c0.419,0.058,0.84,0.18,1.349,0.18c0.479,0,1.048-0.121,1.439-0.18c0.48,1.709,1.438,4.196,2.397,6.504
				c1.198,0.059,2.397,0.119,3.597,0.119c1.289,0,2.548-0.06,3.836-0.119l1.259-3.178L3.387-8.362z"/>
		</g>
		<g id="g147" transform="translate(497.8285,64.7717)">
			<path id="path149" inkscape:connector-curvature="0" fill="#FFFFFF" d="M0,0c2.727,0.51,5.215,2.218,5.215,5.546
				c0,1.259-0.48,2.488-1.38,3.356c-1.288,1.229-2.757,1.469-4.705,1.469c-0.69,0-4.166-0.149-4.946-0.149
				c-1.529,0-2.308,0.09-2.996,0.149c0.209-3.866,0.209-4.285,0.209-8.211c0-5.786-0.03-6.444-0.269-12.349
				c0.659,0.089,1.378,0.18,2.067,0.18c0.749,0,1.409-0.121,2.008-0.18c0,0.78-0.119,4.644-0.119,5.515v4.256h0.72
				c1.618-2.278,3.477-4.916,5.005-7.284c0.449-0.69,1.108-1.799,1.557-2.487c0.9,0.119,1.26,0.18,2.428,0.18
				c1.079,0,1.829-0.091,2.668-0.18C5.574-7.822,4.766-6.773,2.397-3.446c-0.45,0.63-1.109,1.619-1.559,2.248L0,0z M-4.916,8.753
				c0.449,0.029,1.558,0.149,2.128,0.149c0.989,0,1.977-0.149,2.788-0.748c1.048-0.78,1.258-1.858,1.258-3.118
				c0-1.948-1.109-4.136-4.106-4.136c-0.78,0-1.499,0.061-2.068,0.089V8.753z"/>
		</g>
		<g id="g151" transform="translate(542.6324,64.7148)">
			<path id="path153" inkscape:connector-curvature="0" fill="#FFFFFF" d="M0,0c0-0.193-2.713-0.374-6.586-0.526
				C-7.27-0.138-7.789,0.252-8.169,0.588C-3.472,0.422,0,0.217,0,0"/>
		</g>
		<g id="g155" transform="translate(539.8502,71.2535)">
			<path id="path157" inkscape:connector-curvature="0" fill="#FFFFFF" d="M0,0c0-0.161-2.274-0.312-5.525-0.442
				c0.466,0.272,0.946,0.546,1.45,0.821C-1.619,0.266,0,0.135,0,0"/>
		</g>
		<g id="g159" transform="translate(515.6267,57.1865)">
			<path id="path161" inkscape:connector-curvature="0" fill="#FFFFFF" d="M0,0c-1.505-0.018-2.825-0.025-3.856-0.025
				c-1.484,0-2.686,0.457-2.686,1.024c0,0.564,1.202,1.021,2.686,1.021c1.314,0,3.094-0.014,5.136-0.04
				C0.49,0.84,0.115,0.155,0.08,0.112C0.057,0.079,0.028,0.04,0,0"/>
		</g>
		<g id="g163" transform="translate(516.4374,55.817)">
			<path id="path165" inkscape:connector-curvature="0" fill="#FFFFFF" d="M0,0c0.496-0.599,0.972-1.103,1.609-1.654
				c0,0,0.24-0.343,0.969-0.05C3.32-1.401,3.949-0.99,4.658-0.039c2.07-0.034,4.265-0.081,6.426-0.13
				c0.178-0.259,0.539-0.795,0.984-1.456C6.044-1.781-0.494-1.874-3.843-1.874c-1.395,0-2.527,0.433-2.527,0.963
				c0,0.533,1.132,0.963,2.527,0.963c1.02,0,2.334-0.007,3.838-0.024C-0.006,0.014,0,0,0,0"/>
		</g>
		<g id="g167" transform="translate(514.1071,50.7933)">
			<path id="path169" inkscape:connector-curvature="0" fill="#FFFFFF" d="M0,0c-1.238,0-2.241,0.381-2.241,0.851
				c0,0.471,1.003,0.853,2.241,0.853c3.275,0,9.989-0.1,15.739-0.263c0.277-0.397,0.554-0.792,0.817-1.155C10.636,0.112,3.43,0,0,0"
				/>
		</g>
		<g id="g171" transform="translate(533.2043,48.0615)">
			<path id="path173" inkscape:connector-curvature="0" fill="#FFFFFF" d="M0,0c-4.829-0.212-13.132-0.354-16.582-0.354
				c-0.971,0-1.76,0.303-1.76,0.67c0,0.37,0.789,0.671,1.76,0.671c3.3,0,11.05-0.13,15.941-0.325C-0.42,0.425-0.204,0.202,0,0"/>
		</g>
		<g id="g175" transform="translate(520.606,46.2503)">
			<path id="path177" inkscape:connector-curvature="0" fill="#FFFFFF" d="M0,0c2.849,0,11.522-0.215,11.522-0.475
				c0-0.264-8.674-0.477-11.522-0.477c-0.555,0-1.004,0.213-1.004,0.477C-1.004-0.215-0.555,0,0,0"/>
		</g>
		<g id="g179" transform="translate(520.6375,63.7869)">
			<path id="path181" inkscape:connector-curvature="0" fill="#FFFFFF" d="M0,0c-3.586-0.061-6.799-0.095-8.867-0.095
				c-1.483,0-2.686,0.457-2.686,1.023c0,0.565,1.203,1.024,2.686,1.024c2.402,0,6.349-0.046,10.628-0.127
				C1.125,1.196,0.537,0.584,0,0"/>
		</g>
		<g id="g183" transform="translate(538.2264,68.3606)">
			<path id="path185" inkscape:connector-curvature="0" fill="#FFFFFF" d="M0,0c2.101-0.114,3.423-0.239,3.423-0.369
				c0-0.143-1.6-0.28-4.076-0.402C-0.124-0.373-0.008-0.026,0,0"/>
		</g>
		<g id="g187" transform="translate(512.5949,67.0302)">
			<path id="path189" inkscape:connector-curvature="0" fill="#FFFFFF" d="M0,0c-1.396,0-2.528,0.43-2.528,0.962
				c0,0.531,1.132,0.963,2.528,0.963c2.863,0,8.056-0.07,13.265-0.185c-0.639-0.539-1.245-1.072-1.817-1.595C6.876,0.053,2.53,0,0,0
				"/>
		</g>
		<g id="g191" transform="translate(528.1628,70.6191)">
			<path id="path193" inkscape:connector-curvature="0" fill="#FFFFFF" d="M0,0c-5.326-0.135-11.096-0.218-14.056-0.218
				c-1.238,0-2.24,0.381-2.24,0.852s1.002,0.854,2.24,0.854c3.267,0,9.965-0.102,15.707-0.264C1.365,1.016,1.077,0.808,0.785,0.59
				C0.519,0.392,0.257,0.197,0,0"/>
		</g>
		<g id="g195" transform="translate(516.6219,73.8511)">
			<path id="path197" inkscape:connector-curvature="0" fill="#FFFFFF" d="M0,0c-0.971,0-1.76,0.299-1.76,0.67
				c0,0.37,0.789,0.671,1.76,0.671c3.663,0,12.799-0.162,17.439-0.393c-0.296-0.194-0.592-0.395-0.891-0.597
				C11.712,0.142,3.443,0,0,0"/>
		</g>
		<g id="g199" transform="translate(511.4938,60.4085)">
			<path id="path201" inkscape:connector-curvature="0" fill="#FFFFFF" d="M0,0c-1.51,0-2.736,0.465-2.736,1.042
				c0,0.573,1.226,1.04,2.736,1.04c1.893,0,4.726-0.028,7.93-0.077C7.328,1.297,6.805,0.641,6.357,0.053C3.806,0.019,1.576,0,0,0"/>
		</g>
		<g id="g203" transform="translate(519.6024,77.1242)">
			<path id="path205" inkscape:connector-curvature="0" fill="#FFFFFF" d="M0,0c0,0.263,0.449,0.476,1.004,0.476
				c2.848,0,11.522-0.213,11.522-0.476c0-0.261-8.673-0.475-11.522-0.475C0.449-0.475,0-0.261,0,0"/>
		</g>
		<g id="g207" transform="translate(542.9166,62.2206)">
			<path id="path209" inkscape:connector-curvature="0" fill="#FFFFFF" d="M0,0c0.02-0.519,0.017-1.034-0.009-1.539
				c-5.046-0.2-9.831-0.504-9.831-0.846c0-0.336,4.678-0.637,9.666-0.835c-0.088-0.576-0.201-1.141-0.339-1.696
				c-4.917-0.201-9.48-0.497-9.48-0.83c0-0.321,4.26-0.61,8.977-0.811c-0.216-0.602-0.461-1.187-0.736-1.747
				c-4.051-0.195-7.399-0.455-7.399-0.739c0-0.265,2.925-0.51,6.612-0.699c-0.207-0.337-0.423-0.667-0.649-0.979
				c-0.24-0.34-0.501-0.677-0.777-1.007c-2.305-0.175-3.887-0.375-3.887-0.587c0-0.183,1.133-0.354,2.879-0.507
				c-0.953-0.943-2.079-1.824-3.406-2.593c0,0-1.563,1.346-2.853,2.918c-1.15,1.402-3.59,5.098-4.164,5.925
				c-0.575,0.827-0.953,1.069-1.625,0.829c-0.901-0.319-1.948-0.479-2.27-0.479s-0.499,0.125,0.041,0.339
				c0.538,0.217,2.665,1.221,3.712,3.296c1.176,2.337,0.142,5.564,0.142,5.564c-0.395-1.725-1.293-2.369-1.293-2.369
				c0.29,1.602-0.026,3.054-0.817,4.073l-0.441-2.028c0,0-0.276,0.014-0.959-0.56c-0.682-0.575-0.87-1.413-0.87-1.413
				c0.537-0.216,1.183,0.323,1.183,0.323c-0.825-3.087-2.008-5.6-2.871-6.929c-0.862-1.33-1.573-1.83-2.437-2.181
				C-24.63-8.4-24.87-8.057-24.87-8.057c-0.637,0.551-1.113,1.054-1.609,1.654c0,0-0.04,0.07,0.094,0.068
				c0.355-0.005,0.987,0.602,1.125,0.854c0.158,0.289,0.141,0.51,0.062,0.525c-0.078,0.013-0.213-0.216-0.898-0.648
				c-0.681-0.431-0.994-0.132-1.221,0.108c-0.176,0.191-0.003,0.427,0.107,0.575c0.104,0.132,3.707,6.851,13.241,13.91
				c12.494,9.251,20.473,11.749,20.93,11.929c0.302,0.119,0.795,0.276,0.907,0.161c0.124-0.13,0.185-0.234,0.168-0.385
				c-0.016-0.15-0.096-0.227-0.674-0.482c-4.796-2.113-10.395-5.635-13.576-7.685c-3.912-1.906-7.647-4.628-7.783-4.693
				c-0.301-0.187-0.079-0.459,0.103-0.345c6.606,4.394,14.351,7.387,22.91,9.839c0.409,0.116,0.633,0.116,0.701,0.026
				c0.077-0.1,0.11-0.214,0.122-0.34c0.011-0.157-0.119-0.24-0.47-0.377C0.174,13.22-6.603,10.047-10.962,7.114
				c0,0-0.451-0.272-0.457-0.587c-0.002-0.12,0.242-0.134,0.242-0.134c2.182-0.039,5.099-0.167,6.487-0.248
				c0,0-0.198-0.703-1.527-1.269C-7.243,4.438-8.193,4.508-9.133,4.5c-0.209,0.004-0.386-0.207-0.219-0.432
				C-9.268,3.956-7.268,0.736,0,0"/>
		</g>
		<g id="g211" transform="translate(476.2855,45.382)">
			<path id="path213" inkscape:connector-curvature="0" fill="#FFFFFF" d="M0,0h-1.232c0,0-0.166,0.758,0.28,1.048
				C-0.504,1.342,0,1.568,0,1.568V0z M5.846,2.838c0,0-0.749-0.43-1.223-0.852C4.152,1.568,4.72,1.409,4.72,1.409V0H1.145v4.931
				c0,0-1.303-1.198-1.425-1.357C-0.406,3.404,0.03,3.25,0.03,3.25l-0.074-0.467c0,0-0.519-0.269-1.149-0.695
				c-0.626-0.421-1.09-0.958-1.09-1.33c0-0.373-0.158-1.837-0.158-1.837h8.287V2.838z M-1.555,4.641
				c0.408,0,0.696,0.161,0.696,0.486c0,0.326-0.191,0.553-0.696,0.553c-0.449,0-0.569-0.196-0.569-0.553
				C-2.124,4.767-1.968,4.641-1.555,4.641 M-0.031,4.641c0.412,0,0.691,0.161,0.691,0.486c0,0.326-0.189,0.553-0.691,0.553
				C-0.482,5.68-0.6,5.484-0.6,5.127C-0.6,4.767-0.445,4.641-0.031,4.641 M2.278-1.503c-0.446,0-0.569-0.191-0.569-0.55
				c0-0.356,0.158-0.486,0.569-0.486c0.408,0,0.697,0.162,0.697,0.486C2.975-1.726,2.787-1.503,2.278-1.503 M3.862-1.503
				c-0.446,0-0.568-0.191-0.568-0.55c0-0.356,0.162-0.486,0.568-0.486c0.414,0,0.698,0.162,0.698,0.486
				C4.56-1.726,4.373-1.503,3.862-1.503 M21.719,4.738c0.411,0,0.699,0.157,0.699,0.482c0,0.323-0.19,0.554-0.699,0.554
				c-0.445,0-0.566-0.196-0.566-0.554C21.153,4.862,21.312,4.738,21.719,4.738 M23.302,4.738c0.408,0,0.694,0.157,0.694,0.482
				c0,0.323-0.19,0.554-0.694,0.554c-0.448,0-0.567-0.196-0.567-0.554C22.735,4.862,22.888,4.738,23.302,4.738 M27.672,4.604
				c-0.223-0.193-0.158-0.424,0.125-0.392v-5.298h1.174v6.595C28.971,5.509,27.891,4.796,27.672,4.604 M22.954,1.633h-0.76
				c0,0.417,0.76,0.648,0.76,0.648V1.633z M17.951,0.758c0-0.192-0.009-0.505-0.018-0.758H11.3v1.166
				c0.173,0.449,0.465,0.501,0.917,0.501h4.849C18.113,1.667,17.951,1.116,17.951,0.758 M25.708,4.218V0h-1.579v3.83
				c0,0-0.323-0.124-0.766-0.32c-0.439-0.199-2.027-0.844-2.027-1.716V0.786h1.618V0h-3.838c0.003,0.185,0.007,0.457,0.007,0.856
				c0,1.257-1.071,1.941-2.024,1.941h-4.437c-0.777,0-1.152-0.188-1.362-0.403v3.247c0,0-0.693-0.487-1.202-0.874
				c-0.508-0.387,0-0.647,0-0.647V0H8.644L8.613,3.536c0,0-1.012-0.739-1.302-0.963C7.028,2.348,7.185,2.148,7.502,2.148
				c0,0-0.058-2.61-0.058-3.227c0-0.62-0.513-1.328-1.59-1.006c0,0-0.342-0.066-0.058-0.324c0.283-0.257,0.625-0.453,1.008-0.453
				c0.381,0,1.777,0.263,1.777,1.783h18.297v6.592c0,0-1.077-0.711-1.299-0.904C25.356,4.416,25.421,4.184,25.708,4.218"/>
		</g>
	</g>
</g>
</svg>
