<?xml version="1.0" standalone="no"?>
<!DOCTYPE svg PUBLIC "-//W3C//DTD SVG 1.1//EN" "http://www.w3.org/Graphics/SVG/1.1/DTD/svg11.dtd" >
<svg xmlns="http://www.w3.org/2000/svg" xmlns:xlink="http://www.w3.org/1999/xlink" version="1.1">
<metadata>
Created by FontForge 20141024 at Mon Feb  8 12:36:15 2016
 By Jimmy Warting
Copyright (c) 2015 by Rebecca Hurst. All rights reserved.
</metadata>
<defs>
<font id="Jotia-Regular" horiz-adv-x="769" >
  <font-face 
    font-family="Jotia"
    font-weight="400"
    font-stretch="normal"
    units-per-em="1000"
    panose-1="0 0 5 0 0 0 0 0 0 0"
    ascent="780"
    descent="-220"
    x-height="500"
    cap-height="720"
    bbox="-28 -312 1419 1031"
    underline-thickness="50"
    underline-position="-50"
    unicode-range="U+0020-FB02"
  />
<missing-glyph horiz-adv-x="683" 
d="M96 0v720h491v-720h-491zM342 412l137 246h-275zM523 105v510l-143 -256zM160 109l142 253l-142 251v-504zM203 62h277l-139 247z" />
    <glyph glyph-name="f_b" unicode="fb" horiz-adv-x="957" 
d="M693 514c140 0 217 -115 217 -263c0 -150 -79 -265 -215 -265c-72 0 -131 42 -180 92l-8 -78h-85v689c-87 23 -223 58 -223 -70v-119h107v-74h-107v-426h-96v426h-70v74h70v98c0 85 31 173 137 191c71 11 168 -4 279 -39l-1 -311c50 43 106 75 175 75zM660 67
c90 -8 152 60 152 184s-63 189 -153 182c-49 -3 -96 -32 -141 -65v-222c45 -41 94 -75 142 -79z" />
    <glyph glyph-name="f_f" unicode="ff" horiz-adv-x="662" 
d="M670 704c-128 33 -159 -11 -159 -78v-126h113v-74h-113v-426h-96v426h-215v-426h-97v426h-70v74h70v123c0 114 64 211 272 154l-17 -73c-127 33 -158 -11 -158 -78v-126h215v123c0 114 64 211 272 154z" />
    <glyph glyph-name="f_f_b" unicode="ffb" horiz-adv-x="1269" 
d="M1005 514c140 0 217 -115 217 -263c0 -150 -79 -265 -215 -265c-72 0 -131 42 -180 92l-8 -78h-85v689c-87 23 -223 58 -223 -70v-119h107v-74h-107v-426h-96v426h-215v-426h-97v426h-70v74h70v123c0 114 64 211 272 154l-17 -73c-127 33 -158 -11 -158 -78v-126h215v98
c0 74 20 164 114 188c76 19 184 2 302 -36l-1 -311c50 43 106 75 175 75zM972 67c91 -8 152 60 152 184s-63 189 -153 182c-48 -3 -96 -32 -141 -65v-222c45 -41 94 -75 142 -79z" />
    <glyph glyph-name="f_f_h" unicode="ffh" horiz-adv-x="1274" 
d="M1037 514c89 0 159 -57 159 -175v-339h-96v314c0 70 -34 111 -97 114c-56 3 -115 -28 -174 -79v-349h-96v689c-88 23 -223 58 -223 -70v-119h108v-74h-108v-426h-96v426h-214v-426h-97v426h-70v74h70v123c0 114 64 211 272 154l-17 -73c-127 33 -158 -11 -158 -78v-126
h214v98c0 74 19 164 114 188c75 19 184 2 301 -36v-327c67 60 142 91 208 91z" />
    <glyph glyph-name="f_f_i" unicode="ffi" horiz-adv-x="920" 
d="M508 626v-126h107v-74h-107v-426h-96v426h-215v-426h-97v426h-70v74h70v123c0 114 64 211 272 154l-17 -73c-127 33 -158 -11 -158 -78v-126h215v123c0 114 86 219 319 144l-17 -73c-160 47 -206 -1 -206 -68zM834 500v-500h-96v440l-55 16v44h151z" />
    <glyph glyph-name="f_f_j" unicode="ffj" horiz-adv-x="907" 
d="M618 426h-107v-426h-96v426h-215v-426h-97v426h-70v74h70v123c0 114 64 211 272 154l-17 -73c-127 33 -158 -11 -158 -78v-126h215v123c0 114 86 219 320 144l-18 -73c-159 47 -206 -1 -206 -68v-126h107v-74zM837 500v-554c0 -103 -33 -213 -225 -169l19 75
c106 -23 110 26 110 92v496l-55 16v44h151z" />
    <glyph glyph-name="f_f_k" unicode="ffk" horiz-adv-x="1193" 
d="M974 268l192 -268h-112l-162 235h-69v-235h-96v689c-86 23 -216 58 -216 -70v-119h107v-74h-107v-426h-96v426h-215v-426h-97v426h-70v74h70v123c0 114 64 211 272 154l-17 -73c-127 33 -158 -11 -158 -78v-126h215v98c0 82 27 171 128 191c71 12 169 -4 281 -39l-1 -437
h72l136 187h106l-163 -217l-9 -7z" />
    <glyph glyph-name="f_f_l" unicode="ffl" horiz-adv-x="906" 
d="M542 789c72 12 170 -4 282 -39v-750h-96v689c-87 23 -217 58 -217 -70v-119h107v-74h-107v-426h-96v426h-215v-426h-97v426h-70v74h70v123c0 114 64 211 272 154l-17 -73c-127 33 -158 -11 -158 -78v-126h215v98c0 82 26 171 127 191z" />
    <glyph glyph-name="f_f_t" unicode="fft" horiz-adv-x="983" 
d="M946 77l17 -71c-176 -61 -246 31 -246 137v283h-206v-426h-96v426h-215v-426h-97v426h-70v74h70v123c0 114 64 211 272 154l-17 -73c-127 33 -158 -11 -158 -78v-126h215v123c0 114 63 211 269 154l-18 -73c-124 33 -155 -11 -155 -78v-126h206v113h96v-113h101v-74h-101
v-273c0 -67 28 -109 133 -76z" />
    <glyph glyph-name="f_h" unicode="fh" horiz-adv-x="963" 
d="M726 514c89 0 159 -57 159 -175v-339h-96v314c0 70 -34 111 -97 114c-56 3 -114 -28 -173 -79v-349h-97v689c-87 23 -223 58 -223 -70v-119h107v-74h-107v-426h-96v426h-70v74h70v98c0 74 19 164 114 188c76 19 184 2 302 -36v-327c67 60 142 91 207 91z" />
    <glyph glyph-name="f_j" unicode="fj" horiz-adv-x="604" 
d="M199 626v-126h107v-74h-107v-426h-96v426h-70v74h70v123c0 114 86 219 319 144l-17 -73c-160 47 -206 -1 -206 -68zM534 500v-554c0 -103 -33 -213 -224 -169l19 75c105 -23 109 26 109 92v491l-63 20v45h159z" />
    <glyph glyph-name="f_k" unicode="fk" horiz-adv-x="880" 
d="M661 268l192 -268h-112l-162 235h-68l-1 -235h-96l1 689c-87 23 -216 58 -216 -70v-119h107v-74h-107v-426h-97v426h-69v74h69v98c0 82 27 171 128 191c71 12 169 -4 281 -39v-437h71l137 187h105l-163 -217l-9 -7z" />
    <glyph glyph-name="f_t" unicode="ft" horiz-adv-x="671" 
d="M634 77l18 -71c-177 -61 -247 31 -247 137v283h-206v-426h-96v426h-70v74h70v123c0 114 63 211 269 154l-17 -73c-125 33 -156 -11 -156 -78v-126h206v113h97v-113h100v-74h-100v-273c0 -67 27 -109 132 -76z" />
    <glyph glyph-name="fi" unicode="fi" horiz-adv-x="611" 
d="M199 626v-126h107v-74h-107v-426h-96v426h-70v74h70v123c0 114 86 219 319 144l-17 -73c-160 47 -206 -1 -206 -68zM525 500v-500h-96v439l-61 17v44h157z" />
    <glyph glyph-name="fl" unicode="fl" horiz-adv-x="594" 
d="M230 789c72 12 170 -4 282 -39v-750h-97l1 689c-87 23 -217 58 -217 -70v-119h107v-74h-107v-426h-96v426h-70v74h70v98c0 82 26 171 127 191z" />
    <glyph glyph-name=".notdef" horiz-adv-x="683" 
d="M96 0v720h491v-720h-491zM342 412l137 246h-275zM523 105v510l-143 -256zM160 109l142 253l-142 251v-504zM203 62h277l-139 247z" />
    <glyph glyph-name="space" unicode=" " horiz-adv-x="300" 
 />
    <glyph glyph-name="A" unicode="A" horiz-adv-x="734" 
d="M588 0l-70 187h-310l-70 -187h-103l277 720h107l280 -720h-111zM240 271h246l-119 318l-4 30l-5 -30z" />
    <glyph glyph-name="Aacute" unicode="&#xc1;" horiz-adv-x="734" 
d="M523 971l-107 -159h-83l81 159h109zM588 0l-70 187h-310l-70 -187h-103l277 720h107l280 -720h-111zM240 271h246l-119 318l-4 30l-5 -30z" />
    <glyph glyph-name="Abreve" unicode="&#x102;" horiz-adv-x="734" 
d="M368 800c-93 0 -163 59 -156 169h82c-4 -64 23 -99 74 -99s78 35 74 99h82c7 -110 -63 -169 -156 -169zM588 0l-70 187h-310l-70 -187h-103l277 720h107l280 -720h-111zM240 271h246l-119 318l-4 30l-5 -30z" />
    <glyph glyph-name="Acircumflex" unicode="&#xc2;" horiz-adv-x="734" 
d="M355 899l-46 -87h-107l113 159h94l114 -159h-107l-47 87l-7 26zM588 0l-70 187h-310l-70 -187h-103l277 720h107l280 -720h-111zM240 271h246l-119 318l-4 30l-5 -30z" />
    <glyph glyph-name="Adieresis" unicode="&#xc4;" horiz-adv-x="734" 
d="M346 869l-83 -51l-50 85l85 50zM537 869l-83 -51l-50 85l85 50zM588 0l-70 187h-310l-70 -187h-103l277 720h107l280 -720h-111zM240 271h246l-119 318l-4 30l-5 -30z" />
    <glyph glyph-name="Agrave" unicode="&#xc0;" horiz-adv-x="734" 
d="M396 811h-83l-107 159h109zM588 0l-70 187h-310l-70 -187h-103l277 720h107l280 -720h-111zM240 271h246l-119 318l-4 30l-5 -30z" />
    <glyph glyph-name="Amacron" unicode="&#x100;" horiz-adv-x="734" 
d="M513 929v-80h-285v80h285zM588 0l-70 187h-310l-70 -187h-103l277 720h107l280 -720h-111zM240 271h246l-119 318l-4 30l-5 -30z" />
    <glyph glyph-name="Aogonek" unicode="&#x104;" horiz-adv-x="735" 
d="M696 -140l18 -60c-65 -61 -204 -51 -223 45c-12 61 35 116 96 155h1l-70 187h-310l-70 -187h-103l277 720h107l280 -720h-10c-60 -25 -127 -75 -115 -127c10 -49 80 -48 122 -13zM240 271h246l-119 318l-4 30l-5 -30z" />
    <glyph glyph-name="Aring" unicode="&#xc5;" horiz-adv-x="734" 
d="M368 792c-61 0 -106 44 -106 103s45 104 106 104c60 0 105 -45 105 -104s-45 -103 -105 -103zM368 945c-26 0 -45 -19 -45 -50s19 -49 45 -49c25 0 44 18 44 49s-19 50 -44 50zM588 0l-70 187h-310l-70 -187h-103l277 720h107l280 -720h-111zM240 271h246l-119 318l-4 30
l-5 -30z" />
    <glyph glyph-name="Atilde" unicode="&#xc3;" horiz-adv-x="734" 
d="M277 832h-63c-21 76 26 146 138 103c43 -16 105 -49 100 16h63c21 -77 -26 -146 -138 -104c-42 16 -105 49 -100 -15zM588 0l-70 187h-310l-70 -187h-103l277 720h107l280 -720h-111zM240 271h246l-119 318l-4 30l-5 -30z" />
    <glyph glyph-name="AE" unicode="&#xc6;" horiz-adv-x="1030" 
d="M628 83h350v-83h-452v189h-273l-106 -189h-112l413 720h517v-83h-337v-236h288v-84h-288v-234zM526 272v372l-14 5l-212 -377h226z" />
    <glyph glyph-name="B" unicode="B" horiz-adv-x="665" 
d="M483 381c75 -20 128 -81 128 -176c0 -115 -75 -205 -232 -205h-264v646l-81 23v51h326c148 0 216 -74 216 -181c0 -57 -24 -124 -93 -158zM217 637v-229h128c86 0 133 39 134 112c1 79 -36 117 -134 117h-128zM358 83c107 0 152 44 152 128c0 90 -61 121 -133 121h-160
v-249h141z" />
    <glyph glyph-name="C" unicode="C" horiz-adv-x="689" 
d="M403 -14c-193 1 -343 142 -343 374s147 373 337 373c67 0 145 -18 223 -64l-19 -78c-68 38 -136 58 -197 56c-135 -2 -239 -104 -239 -287c0 -184 107 -285 248 -287c63 -2 136 17 204 56l19 -77c-80 -49 -165 -66 -233 -66z" />
    <glyph glyph-name="Cacute" unicode="&#x106;" horiz-adv-x="689" 
d="M357 812l81 159h109l-107 -159h-83zM403 -14c-193 1 -343 142 -343 374s147 373 337 373c67 0 145 -18 223 -64l-19 -78c-68 38 -136 58 -197 56c-135 -2 -239 -104 -239 -287c0 -184 107 -285 248 -287c63 -2 136 17 204 56l19 -77c-80 -49 -165 -66 -233 -66z" />
    <glyph glyph-name="Ccaron" unicode="&#x10c;" horiz-adv-x="689" 
d="M342 812l-113 159h107l46 -87l7 -26l7 26l47 87h107l-114 -159h-94zM617 129l19 -77c-80 -49 -165 -66 -233 -66c-193 1 -343 142 -343 374s147 373 337 373c67 0 145 -18 223 -64l-19 -78c-68 38 -136 58 -197 56c-135 -2 -239 -104 -239 -287c0 -184 107 -285 248 -287
c63 -2 136 17 204 56z" />
    <glyph glyph-name="Ccedilla" unicode="&#xc7;" horiz-adv-x="689" 
d="M411 -61c55 7 114 -27 107 -92c-12 -92 -140 -114 -226 -53l16 57c67 -41 123 -34 129 1c6 38 -32 52 -93 45l-16 14l33 78c-173 20 -301 156 -301 371c0 232 147 373 337 373c67 0 145 -18 223 -64l-19 -78c-68 38 -136 58 -197 56c-135 -2 -239 -104 -239 -287
c0 -184 107 -285 248 -287c63 -2 136 17 204 56l19 -77c-68 -42 -141 -60 -204 -65z" />
    <glyph glyph-name="Cdotaccent" unicode="&#x10a;" horiz-adv-x="689" 
d="M456 878l-83 -51l-50 85l85 50zM403 -14c-193 1 -343 142 -343 374s147 373 337 373c67 0 145 -18 223 -64l-19 -78c-68 38 -136 58 -197 56c-135 -2 -239 -104 -239 -287c0 -184 107 -285 248 -287c63 -2 136 17 204 56l19 -77c-80 -49 -165 -66 -233 -66z" />
    <glyph glyph-name="D" unicode="D" horiz-adv-x="738" 
d="M319 720c206 0 359 -118 359 -362s-153 -358 -359 -358h-203v645l-82 24v51h285zM319 84c151 0 254 86 254 275c0 191 -103 277 -254 277h-101v-552h101z" />
    <glyph glyph-name="Eth" unicode="&#xd0;" horiz-adv-x="738" 
d="M319 720c206 0 359 -118 359 -362s-153 -358 -359 -358h-203v317h-68v81h68v247l-82 24v51h285zM319 84c151 0 254 86 254 275c0 191 -103 277 -254 277h-101v-238h151v-81h-151v-233h101z" />
    <glyph glyph-name="Dcaron" unicode="&#x10e;" horiz-adv-x="738" 
d="M287 812l-113 159h107l46 -87l7 -26l7 26l47 87h107l-114 -159h-94zM319 720c206 0 359 -118 359 -362s-153 -358 -359 -358h-203v645l-82 24v51h285zM319 84c151 0 254 86 254 275c0 191 -103 277 -254 277h-101v-552h101z" />
    <glyph glyph-name="Dcroat" unicode="&#x110;" horiz-adv-x="738" 
d="M319 720c206 0 359 -118 359 -362s-153 -358 -359 -358h-203v317h-68v81h68v247l-82 24v51h285zM319 84c151 0 254 86 254 275c0 191 -103 277 -254 277h-101v-238h151v-81h-151v-233h101z" />
    <glyph glyph-name="E" unicode="E" horiz-adv-x="622" 
d="M218 83h352v-83h-454v646l-82 23v51h519v-83h-335v-238h287v-83h-287v-233z" />
    <glyph glyph-name="Eacute" unicode="&#xc9;" horiz-adv-x="622" 
d="M474 971l-107 -159h-83l81 159h109zM218 83h352v-83h-454v646l-82 23v51h519v-83h-335v-238h287v-83h-287v-233z" />
    <glyph glyph-name="Ecaron" unicode="&#x11a;" horiz-adv-x="622" 
d="M269 812l-113 159h107l46 -87l7 -26l7 26l47 87h107l-114 -159h-94zM218 83h352v-83h-454v646l-82 23v51h519v-83h-335v-238h287v-83h-287v-233z" />
    <glyph glyph-name="Ecircumflex" unicode="&#xca;" horiz-adv-x="622" 
d="M306 899l-46 -87h-107l113 159h94l114 -159h-107l-47 87l-7 26zM218 83h352v-83h-454v646l-82 23v51h519v-83h-335v-238h287v-83h-287v-233z" />
    <glyph glyph-name="Edieresis" unicode="&#xcb;" horiz-adv-x="622" 
d="M297 869l-83 -51l-50 85l85 50zM488 869l-83 -51l-50 85l85 50zM218 83h352v-83h-454v646l-82 23v51h519v-83h-335v-238h287v-83h-287v-233z" />
    <glyph glyph-name="Edotaccent" unicode="&#x116;" horiz-adv-x="622" 
d="M384 878l-83 -51l-50 85l85 50zM218 83h352v-83h-454v646l-82 23v51h519v-83h-335v-238h287v-83h-287v-233z" />
    <glyph glyph-name="Egrave" unicode="&#xc8;" horiz-adv-x="622" 
d="M347 811h-83l-107 159h109zM218 83h352v-83h-454v646l-82 23v51h519v-83h-335v-238h287v-83h-287v-233z" />
    <glyph glyph-name="Emacron" unicode="&#x112;" horiz-adv-x="622" 
d="M464 929v-80h-285v80h285zM218 83h352v-83h-454v646l-82 23v51h519v-83h-335v-238h287v-83h-287v-233z" />
    <glyph glyph-name="Eogonek" unicode="&#x118;" horiz-adv-x="619" 
d="M541 0c-63 -2 -146 -69 -126 -127c15 -46 71 -48 121 -13l17 -60c-75 -59 -198 -49 -221 48c-17 69 33 125 87 152h-303v646l-82 23v51h523v-83h-339v-238h290v-83h-290v-233h349v-83h-26z" />
    <glyph glyph-name="F" unicode="F" horiz-adv-x="603" 
d="M551 637h-333v-263h271v-84h-271v-290h-102v645l-82 24v51h517v-83z" />
    <glyph glyph-name="G" unicode="G" 
d="M679 346v-346h-70l-11 62c-69 -49 -142 -77 -219 -76c-175 3 -319 142 -319 372c0 249 161 373 348 376c85 1 156 -21 234 -68l-21 -78c-73 43 -144 61 -206 60c-137 -2 -250 -100 -250 -290c0 -179 103 -288 234 -288c62 0 131 29 193 79v122h-125v75h212z" />
    <glyph glyph-name="Gbreve" unicode="&#x11e;" 
d="M391 800c-93 0 -163 59 -156 169h82c-4 -64 23 -99 74 -99s78 35 74 99h82c7 -110 -63 -169 -156 -169zM679 346v-346h-70l-11 62c-69 -49 -142 -77 -219 -76c-175 3 -319 142 -319 372c0 249 161 373 348 376c85 1 156 -21 234 -68l-21 -78c-73 43 -144 61 -206 60
c-137 -2 -250 -100 -250 -290c0 -179 103 -288 234 -288c62 0 131 29 193 79v122h-125v75h212z" />
    <glyph glyph-name="Gcommaaccent" unicode="&#x122;" horiz-adv-x="765" 
d="M675 346v-346h-71l-10 62c-70 -48 -144 -77 -225 -76c-175 3 -316 141 -316 372c0 250 160 373 347 376c84 1 156 -21 234 -68l-21 -78c-74 43 -144 61 -206 60c-137 -2 -249 -99 -249 -290c0 -181 100 -288 231 -288c68 0 136 29 199 79v122h-126v75h213zM355 -103
l82 49c63 -105 15 -194 -62 -258l-28 36c46 53 49 107 8 173z" />
    <glyph glyph-name="Gdotaccent" unicode="&#x120;" 
d="M455 878l-83 -51l-50 85l85 50zM679 346v-346h-70l-11 62c-69 -49 -142 -77 -219 -76c-175 3 -319 142 -319 372c0 249 161 373 348 376c85 1 156 -21 234 -68l-21 -78c-73 43 -144 61 -206 60c-137 -2 -250 -100 -250 -290c0 -179 103 -288 234 -288c62 0 131 29 193 79
v122h-125v75h212z" />
    <glyph glyph-name="H" unicode="H" horiz-adv-x="759" 
d="M560 720h102v-720h-102v322h-362v-322h-102v720h102v-314h362v314z" />
    <glyph glyph-name="Hbar" unicode="&#x126;" horiz-adv-x="761" 
d="M563 720h102v-720h-102v307h-365v-307h-102v720h102v-133h365v133zM198 391h365v113h-365v-113z" />
    <glyph glyph-name="I" unicode="I" horiz-adv-x="295" 
d="M96 720h102v-720h-102v720z" />
    <glyph glyph-name="I.ss01" horiz-adv-x="340" 
d="M36 720h269v-43l-84 -23v-588l84 -23v-43h-269v43l83 23v588l-83 23v43z" />
    <glyph glyph-name="IJ" unicode="&#x132;" horiz-adv-x="642" 
d="M96 0v720h102v-720h-102zM546 720v-703c0 -143 -32 -303 -306 -231l20 80c187 -54 184 55 184 167v613l-82 23v51h184z" />
    <glyph glyph-name="IJ.ss01" horiz-adv-x="708" 
d="M36 677v43h269v-43l-84 -23v-588l84 -23v-43h-269v43l83 23v588zM611 720v-703c0 -143 -32 -303 -306 -231l20 80c187 -54 184 55 184 167v613l-82 23v51h184z" />
    <glyph glyph-name="Iacute" unicode="&#xcd;" horiz-adv-x="295" 
d="M114 812l81 159h109l-107 -159h-83zM96 720h102v-720h-102v720z" />
    <glyph glyph-name="Iacute.ss01" horiz-adv-x="340" 
d="M135 812l81 159h109l-107 -159h-83zM36 720h269v-43l-84 -23v-588l84 -23v-43h-269v43l83 23v588l-83 23v43z" />
    <glyph glyph-name="Icircumflex" unicode="&#xce;" horiz-adv-x="295" 
d="M142 925l-7 -26l-46 -87h-107l113 159h94l114 -159h-107l-47 87zM96 0v720h102v-720h-102z" />
    <glyph glyph-name="Icircumflex.ss01" horiz-adv-x="340" 
d="M157 899l-46 -87h-107l113 159h94l114 -159h-107l-47 87l-7 26zM36 677v43h269v-43l-84 -23v-588l84 -23v-43h-269v43l83 23v588z" />
    <glyph glyph-name="Idieresis" unicode="&#xcf;" horiz-adv-x="295" 
d="M126 869l-83 -51l-50 85l85 50zM317 869l-83 -51l-50 85l85 50zM96 720h102v-720h-102v720z" />
    <glyph glyph-name="Idieresis.ss01" horiz-adv-x="340" 
d="M148 869l-83 -51l-50 85l85 50zM339 869l-83 -51l-50 85l85 50zM36 720h269v-43l-84 -23v-588l84 -23v-43h-269v43l83 23v588l-83 23v43z" />
    <glyph glyph-name="Idotaccent" unicode="&#x130;" horiz-adv-x="295" 
d="M213 878l-83 -51l-50 85l85 50zM96 720h102v-720h-102v720z" />
    <glyph glyph-name="Idotaccent.ss01" horiz-adv-x="340" 
d="M235 878l-83 -51l-50 85l85 50zM36 720h269v-43l-84 -23v-588l84 -23v-43h-269v43l83 23v588l-83 23v43z" />
    <glyph glyph-name="Igrave" unicode="&#xcc;" horiz-adv-x="295" 
d="M176 811h-83l-107 159h109zM96 720h102v-720h-102v720z" />
    <glyph glyph-name="Igrave.ss01" horiz-adv-x="340" 
d="M198 811h-83l-107 159h109zM36 720h269v-43l-84 -23v-588l84 -23v-43h-269v43l83 23v588l-83 23v43z" />
    <glyph glyph-name="Imacron" unicode="&#x12a;" horiz-adv-x="295" 
d="M293 929v-80h-285v80h285zM96 720h102v-720h-102v720z" />
    <glyph glyph-name="Imacron.ss01" horiz-adv-x="340" 
d="M315 929v-80h-285v80h285zM36 720h269v-43l-84 -23v-588l84 -23v-43h-269v43l83 23v588l-83 23v43z" />
    <glyph glyph-name="Iogonek" unicode="&#x12e;" horiz-adv-x="295" 
d="M214 -140l17 -60c-71 -61 -206 -51 -225 45c-12 61 29 116 90 155v720h102v-720h-4c-57 -25 -117 -75 -105 -127c11 -49 77 -48 125 -13z" />
    <glyph glyph-name="Iogonek.ss01" horiz-adv-x="359" 
d="M314 677l-83 -23v-588l83 -23v-43h-56c-70 0 -139 -75 -125 -127c12 -47 74 -48 124 -13l17 -60c-70 -60 -204 -50 -224 48c-13 62 35 122 80 152h-85v43l84 23v588l-84 23v43h269v-43z" />
    <glyph glyph-name="J" unicode="J" horiz-adv-x="387" 
d="M291 720v-703c0 -143 -32 -303 -306 -231l20 80c187 -54 184 55 184 167v613l-82 23v51h184z" />
    <glyph glyph-name="K" unicode="K" horiz-adv-x="662" 
d="M384 355l238 -355h-117l-209 320h-98v-320h-102v720h102v-317h99l189 317h111l-213 -347l-10 -10z" />
    <glyph glyph-name="Kcommaaccent" unicode="&#x136;" horiz-adv-x="657" 
d="M379 363l245 -363h-117l-211 320h-98v-320h-102v720h102v-317h99l190 317h111zM288 -103l81 49c63 -105 15 -194 -61 -258l-28 36c46 53 48 107 8 173z" />
    <glyph glyph-name="L" unicode="L" horiz-adv-x="585" 
d="M198 83h344v-83h-446v720h102v-637z" />
    <glyph glyph-name="Lacute" unicode="&#x139;" horiz-adv-x="585" 
d="M455 971l-107 -159h-83l81 159h109zM198 83h344v-83h-446v720h102v-637z" />
    <glyph glyph-name="Lcaron" unicode="&#x13d;" horiz-adv-x="602" 
d="M433 738c76 -120 25 -224 -79 -288l-25 37c73 55 67 134 22 200zM198 83h360v-83h-462v720h102v-637z" />
    <glyph glyph-name="Lcommaaccent" unicode="&#x13b;" horiz-adv-x="585" 
d="M198 83h344v-83h-446v720h102v-637zM271 -103l81 49c63 -105 15 -194 -61 -258l-28 36c46 53 48 107 8 173z" />
    <glyph glyph-name="Ldot" unicode="&#x13f;" horiz-adv-x="585" 
d="M198 83h344v-83h-446v720h102v-637zM431 348l-84 -51l-50 85l86 50z" />
    <glyph glyph-name="Lslash" unicode="&#x141;" horiz-adv-x="589" 
d="M202 83h343v-83h-445v250l-90 -43v91l90 43v379h102v-331l157 74v-90l-157 -75v-215z" />
    <glyph glyph-name="M" unicode="M" horiz-adv-x="914" 
d="M34 720h175l250 -378l7 -19l5 19l251 378h95v-720h-102v564l-8 -27l-212 -309h-60l-210 309l-8 23v-560h-102v647l-81 22v51z" />
    <glyph glyph-name="N" unicode="N" horiz-adv-x="803" 
d="M605 720h102v-720h-97l-386 542l-6 22v-564h-102v647l-82 22v51h179l385 -542l7 -23v565z" />
    <glyph glyph-name="Nacute" unicode="&#x143;" horiz-adv-x="803" 
d="M381 812l81 159h109l-107 -159h-83zM605 720h102v-720h-97l-386 542l-6 22v-564h-102v647l-82 22v51h179l385 -542l7 -23v565z" />
    <glyph glyph-name="Ncaron" unicode="&#x147;" horiz-adv-x="803" 
d="M366 812l-113 159h107l46 -87l7 -26l7 26l47 87h107l-114 -159h-94zM605 720h102v-720h-97l-386 542l-6 22v-564h-102v647l-82 22v51h179l385 -542l7 -23v565z" />
    <glyph glyph-name="Ncommaaccent" unicode="&#x145;" horiz-adv-x="805" 
d="M605 720h102v-720h-97l-386 542l-6 22v-564h-102v647l-82 22v51h179l385 -542l7 -23v565zM370 -103l81 49c63 -105 15 -194 -61 -258l-29 36c47 53 49 107 9 173z" />
    <glyph glyph-name="Eng" unicode="&#x14a;" horiz-adv-x="805" 
d="M324 -206l19 79c198 -52 264 -10 264 131l-383 538l-6 22v-564h-102v647l-82 22v51h179l385 -542l7 -23v565h102v-727c0 -235 -177 -257 -383 -199z" />
    <glyph glyph-name="Ntilde" unicode="&#xd1;" horiz-adv-x="803" 
d="M262 832c-21 76 26 146 138 103c43 -16 105 -49 100 16h63c21 -77 -26 -146 -138 -104c-42 16 -105 49 -100 -15h-63zM605 720h102v-720h-97l-386 542l-6 22v-564h-102v647l-82 22v51h179l385 -542l7 -23v565z" />
    <glyph glyph-name="O" unicode="O" horiz-adv-x="833" 
d="M417 -14c-210 0 -357 150 -357 374s147 374 357 374s356 -150 356 -374s-146 -374 -356 -374zM417 72c149 0 252 107 252 288s-103 288 -252 288s-252 -107 -252 -288s103 -288 252 -288z" />
    <glyph glyph-name="Oacute" unicode="&#xd3;" horiz-adv-x="833" 
d="M382 812l81 159h109l-107 -159h-83zM417 -14c-210 0 -357 150 -357 374s147 374 357 374s356 -150 356 -374s-146 -374 -356 -374zM417 72c149 0 252 107 252 288s-103 288 -252 288s-252 -107 -252 -288s103 -288 252 -288z" />
    <glyph glyph-name="Ocircumflex" unicode="&#xd4;" horiz-adv-x="833" 
d="M403 899l-46 -87h-107l113 159h94l114 -159h-107l-47 87l-7 26zM417 734c210 0 356 -150 356 -374s-146 -374 -356 -374s-357 150 -357 374s147 374 357 374zM417 72c149 0 252 107 252 288s-103 288 -252 288s-252 -107 -252 -288s103 -288 252 -288z" />
    <glyph glyph-name="Odieresis" unicode="&#xd6;" horiz-adv-x="833" 
d="M394 869l-83 -51l-50 85l85 50zM585 869l-83 -51l-50 85l85 50zM417 -14c-210 0 -357 150 -357 374s147 374 357 374s356 -150 356 -374s-146 -374 -356 -374zM417 72c149 0 252 107 252 288s-103 288 -252 288s-252 -107 -252 -288s103 -288 252 -288z" />
    <glyph glyph-name="Ograve" unicode="&#xd2;" horiz-adv-x="833" 
d="M444 811h-83l-107 159h109zM417 -14c-210 0 -357 150 -357 374s147 374 357 374s356 -150 356 -374s-146 -374 -356 -374zM417 72c149 0 252 107 252 288s-103 288 -252 288s-252 -107 -252 -288s103 -288 252 -288z" />
    <glyph glyph-name="Ohungarumlaut" unicode="&#x150;" horiz-adv-x="833" 
d="M276 811l81 159h109l-107 -159h-83zM474 811l81 159h109l-107 -159h-83zM417 -14c-210 0 -357 150 -357 374s147 374 357 374s356 -150 356 -374s-146 -374 -356 -374zM417 72c149 0 252 107 252 288s-103 288 -252 288s-252 -107 -252 -288s103 -288 252 -288z" />
    <glyph glyph-name="Omacron" unicode="&#x14c;" horiz-adv-x="833" 
d="M561 929v-80h-285v80h285zM417 -14c-210 0 -357 150 -357 374s147 374 357 374s356 -150 356 -374s-146 -374 -356 -374zM417 72c149 0 252 107 252 288s-103 288 -252 288s-252 -107 -252 -288s103 -288 252 -288z" />
    <glyph glyph-name="Oslash" unicode="&#xd8;" horiz-adv-x="837" 
d="M689 615c56 -65 88 -154 88 -255c0 -217 -148 -374 -358 -374c-76 0 -143 20 -199 56l-51 -62l-73 60l53 65c-57 65 -89 153 -89 255c0 217 149 374 359 374c75 0 143 -20 198 -56l51 62l75 -60zM165 360c0 -70 17 -131 47 -178l347 425c-39 26 -87 41 -140 41
c-149 0 -254 -114 -254 -288zM419 72c149 0 253 114 253 288c0 70 -16 130 -46 177l-348 -424c40 -26 87 -41 141 -41z" />
    <glyph glyph-name="Otilde" unicode="&#xd5;" horiz-adv-x="833" 
d="M263 832c-21 76 26 146 138 103c43 -16 105 -49 100 16h63c21 -77 -26 -146 -138 -104c-42 16 -105 49 -100 -15h-63zM417 -14c-210 0 -357 150 -357 374s147 374 357 374s356 -150 356 -374s-146 -374 -356 -374zM417 72c149 0 252 107 252 288s-103 288 -252 288
s-252 -107 -252 -288s103 -288 252 -288z" />
    <glyph glyph-name="OE" unicode="&#x152;" horiz-adv-x="1196" 
d="M794 83h350v-83h-444v139c-54 -90 -146 -152 -284 -152c-210 0 -356 156 -356 373s146 374 356 374c138 0 230 -62 284 -151v137h431v-83h-337v-233h289v-84h-289v-237zM419 72c149 0 261 114 261 288s-112 288 -261 288s-254 -114 -254 -288s105 -288 254 -288z" />
    <glyph glyph-name="P" unicode="P" horiz-adv-x="643" 
d="M362 720c144 0 221 -96 221 -220c0 -127 -77 -224 -221 -224h-144v-276h-102v646l-82 23v51h328zM339 359c99 0 142 58 141 141c1 81 -43 137 -141 137h-121v-278h121z" />
    <glyph glyph-name="Thorn" unicode="&#xde;" horiz-adv-x="643" 
d="M365 583c144 0 221 -97 221 -220c0 -128 -77 -224 -221 -224h-148v-139h-101l1 645l-83 24v51h184l-1 -137h148zM342 222c99 0 142 57 141 141c1 81 -43 136 -141 136h-125v-277h125z" />
    <glyph glyph-name="Q" unicode="Q" horiz-adv-x="825" 
d="M765 360c0 -186 -104 -327 -265 -364c62 -56 124 -97 208 -126l-30 -79c-122 40 -212 110 -296 196c-193 14 -322 166 -322 373c0 217 142 374 352 374s353 -157 353 -374zM165 360c0 -172 98 -288 247 -288c150 0 248 116 248 288s-98 288 -248 288
c-149 0 -247 -116 -247 -288z" />
    <glyph glyph-name="R" unicode="R" horiz-adv-x="657" 
d="M617 0h-117l-145 298h-1h-136v-298h-102v645l-82 24v51h329c145 0 222 -89 222 -211c1 -90 -51 -162 -132 -193zM218 637v-260h123c99 0 141 51 141 132c0 80 -43 128 -141 128h-123z" />
    <glyph glyph-name="Racute" unicode="&#x154;" horiz-adv-x="657" 
d="M491 971l-107 -159h-83l81 159h109zM617 0h-117l-145 298h-1h-136v-298h-102v645l-82 24v51h329c145 0 222 -89 222 -211c1 -90 -51 -162 -132 -193zM218 637v-260h123c99 0 141 51 141 132c0 80 -43 128 -141 128h-123z" />
    <glyph glyph-name="Rcaron" unicode="&#x158;" horiz-adv-x="657" 
d="M286 812l-113 159h107l46 -87l7 -26l7 26l47 87h107l-114 -159h-94zM617 0h-117l-145 298h-1h-136v-298h-102v645l-82 24v51h329c145 0 222 -89 222 -211c1 -90 -51 -162 -132 -193zM218 637v-260h123c99 0 141 51 141 132c0 80 -43 128 -141 128h-123z" />
    <glyph glyph-name="Rcommaaccent" unicode="&#x156;" horiz-adv-x="657" 
d="M453 316l164 -316h-117l-145 298h-1h-136v-298h-102v645l-82 24v51h329c145 0 222 -89 222 -211c1 -90 -51 -162 -132 -193zM218 637v-260h123c99 0 141 51 141 132c0 80 -43 128 -141 128h-123zM300 -103l82 49c62 -105 15 -194 -62 -258l-28 36c46 53 49 107 8 173z
" />
    <glyph glyph-name="S" unicode="S" horiz-adv-x="620" 
d="M535 688l-21 -82c-76 33 -140 42 -187 42c-79 0 -156 -26 -157 -98c-1 -74 105 -105 197 -148c113 -51 207 -103 202 -217c-5 -117 -101 -199 -259 -199c-71 0 -160 14 -246 53l21 83c73 -31 155 -47 216 -47c105 0 164 51 165 113c2 76 -94 106 -198 155
c-101 46 -201 89 -201 205c0 127 112 183 248 186c64 1 141 -9 220 -46z" />
    <glyph glyph-name="Sacute" unicode="&#x15a;" horiz-adv-x="620" 
d="M279 812l81 159h109l-107 -159h-83zM535 688l-21 -82c-76 33 -140 42 -187 42c-79 0 -156 -26 -157 -98c-1 -74 105 -105 197 -148c113 -51 207 -103 202 -217c-5 -117 -101 -199 -259 -199c-71 0 -160 14 -246 53l21 83c73 -31 155 -47 216 -47c105 0 164 51 165 113
c2 76 -94 106 -198 155c-101 46 -201 89 -201 205c0 127 112 183 248 186c64 1 141 -9 220 -46z" />
    <glyph glyph-name="Scaron" unicode="&#x160;" horiz-adv-x="620" 
d="M264 812l-113 159h107l46 -87l7 -26l7 26l47 87h107l-114 -159h-94zM367 402c113 -51 207 -103 202 -217c-5 -117 -101 -199 -259 -199c-71 0 -160 14 -246 53l21 83c73 -31 155 -47 216 -47c105 0 164 51 165 113c2 76 -94 106 -198 155c-101 46 -201 89 -201 205
c0 127 112 183 248 186c64 1 141 -9 220 -46l-21 -82c-76 33 -140 42 -187 42c-79 0 -156 -26 -157 -98c-1 -74 105 -105 197 -148z" />
    <glyph glyph-name="Scedilla" unicode="&#x15e;" horiz-adv-x="620" 
d="M367 402c113 -51 207 -103 202 -217c-4 -107 -86 -185 -222 -197l-22 -49c55 7 114 -27 107 -92c-12 -92 -140 -114 -226 -53l16 57c67 -41 123 -34 129 1c6 38 -32 52 -93 45l-16 14l32 76c-64 4 -138 19 -210 52l21 83c73 -31 155 -47 216 -47c105 0 164 51 165 113
c2 76 -94 106 -198 155c-101 46 -201 89 -201 205c0 127 112 183 248 186c64 1 141 -9 220 -46l-21 -82c-76 33 -140 42 -187 42c-79 0 -156 -26 -157 -98c-1 -74 105 -105 197 -148z" />
    <glyph glyph-name="Scommaaccent" unicode="&#x218;" horiz-adv-x="617" 
d="M532 688l-21 -81c-75 33 -141 42 -187 43c-81 -2 -157 -30 -157 -103c0 -74 107 -106 197 -147c114 -50 207 -104 202 -219c-4 -114 -102 -195 -259 -195c-71 0 -158 15 -244 54l22 85c72 -31 149 -49 213 -50c105 0 164 49 165 109c2 75 -96 107 -198 155
c-102 47 -201 91 -201 207c0 127 112 185 248 188c64 1 141 -9 220 -46zM264 -276l28 -36c77 64 125 153 62 258l-81 -49c40 -66 37 -120 -9 -173z" />
    <glyph glyph-name="T" unicode="T" horiz-adv-x="637" 
d="M597 720v-84h-229v-636h-102v636h-226v84h226h102h229z" />
    <glyph glyph-name="Tbar" unicode="&#x166;" horiz-adv-x="637" 
d="M462 929v-80h-285v80h285zM597 720v-84h-229v-636h-102v636h-226v84h226h102h229z" />
    <glyph glyph-name="Tcaron" unicode="&#x164;" horiz-adv-x="637" 
d="M268 812l-113 159h107l46 -87l7 -26l7 26l47 87h107l-114 -159h-94zM597 720v-84h-229v-636h-102v636h-226v84h226h102h229z" />
    <glyph glyph-name="uni0162" unicode="&#x162;" horiz-adv-x="637" 
d="M368 0h-14l-29 -61c55 7 116 -27 108 -92c-11 -92 -139 -114 -226 -53l17 57c66 -41 123 -34 129 1c6 38 -33 52 -93 45l-16 14l37 89h-15v636h-226v84h226h102h229v-84h-229v-636z" />
    <glyph glyph-name="uni021A" unicode="&#x21a;" horiz-adv-x="637" 
d="M597 720v-84h-229v-636h-102v636h-226v84h226h331zM273 -103l84 49c63 -105 15 -194 -62 -258l-30 36c46 53 48 107 8 173z" />
    <glyph glyph-name="U" unicode="U" 
d="M375 -14c-184 0 -275 115 -275 340v394h103v-394c0 -177 53 -254 177 -254c119 0 191 71 191 254v394h102v-394c0 -235 -119 -340 -298 -340z" />
    <glyph glyph-name="Uacute" unicode="&#xda;" 
d="M352 812l81 159h109l-107 -159h-83zM375 -14c-184 0 -275 115 -275 340v394h103v-394c0 -177 53 -254 177 -254c119 0 191 71 191 254v394h102v-394c0 -235 -119 -340 -298 -340z" />
    <glyph glyph-name="Ucircumflex" unicode="&#xdb;" 
d="M374 899l-46 -87h-107l113 159h94l114 -159h-107l-47 87l-7 26zM571 720h102v-394c0 -235 -119 -340 -298 -340c-184 0 -275 115 -275 340v394h103v-394c0 -177 53 -254 177 -254c119 0 191 71 191 254v394z" />
    <glyph glyph-name="Udieresis" unicode="&#xdc;" 
d="M365 869l-83 -51l-50 85l85 50zM556 869l-83 -51l-50 85l85 50zM375 -14c-184 0 -275 115 -275 340v394h103v-394c0 -177 53 -254 177 -254c119 0 191 71 191 254v394h102v-394c0 -235 -119 -340 -298 -340z" />
    <glyph glyph-name="Ugrave" unicode="&#xd9;" 
d="M414 811h-83l-107 159h109zM375 -14c-184 0 -275 115 -275 340v394h103v-394c0 -177 53 -254 177 -254c119 0 191 71 191 254v394h102v-394c0 -235 -119 -340 -298 -340z" />
    <glyph glyph-name="Uhungarumlaut" unicode="&#x170;" 
d="M246 811l81 159h109l-107 -159h-83zM444 811l81 159h109l-107 -159h-83zM375 -14c-184 0 -275 115 -275 340v394h103v-394c0 -177 53 -254 177 -254c119 0 191 71 191 254v394h102v-394c0 -235 -119 -340 -298 -340z" />
    <glyph glyph-name="Umacron" unicode="&#x16a;" 
d="M531 929v-80h-285v80h285zM375 -14c-184 0 -275 115 -275 340v394h103v-394c0 -177 53 -254 177 -254c119 0 191 71 191 254v394h102v-394c0 -235 -119 -340 -298 -340z" />
    <glyph glyph-name="Uogonek" unicode="&#x172;" 
d="M598 -200c-78 -62 -209 -47 -229 52c-9 43 5 91 53 137c-15 -2 -31 -3 -47 -3c-184 0 -275 115 -275 340v394h103v-394c0 -177 53 -254 177 -254c119 0 191 71 191 254v394h102v-394c0 -154 -49 -239 -114 -290c-69 -55 -117 -114 -101 -166c13 -46 74 -41 123 -9z" />
    <glyph glyph-name="Uring" unicode="&#x16e;" 
d="M387 999c60 0 105 -45 105 -104s-45 -103 -105 -103c-61 0 -106 44 -106 103s45 104 106 104zM387 945c-26 0 -45 -19 -45 -50s19 -49 45 -49c25 0 44 18 44 49s-19 50 -44 50zM375 -14c-184 0 -275 115 -275 340v394h103v-394c0 -177 53 -254 177 -254
c119 0 191 71 191 254v394h102v-394c0 -235 -119 -340 -298 -340z" />
    <glyph glyph-name="V" unicode="V" horiz-adv-x="706" 
d="M562 720h104l-259 -720h-106l-261 720h111l201 -589l5 -32l4 32z" />
    <glyph glyph-name="W" unicode="W" horiz-adv-x="1082" 
d="M938 720h104l-243 -720h-107l-151 448l-149 -448h-109l-243 720h111l184 -586l4 -34l5 33l149 457l-44 130h111l184 -586l4 -34l4 33z" />
    <glyph glyph-name="Wacute" unicode="&#x1e82;" horiz-adv-x="1082" 
d="M669 971l-107 -159h-83l81 159h109zM938 720h104l-243 -720h-107l-151 448l-149 -448h-109l-243 720h111l184 -586l4 -34l5 33l149 457l-44 130h111l184 -586l4 -34l4 33z" />
    <glyph glyph-name="Wcircumflex" unicode="&#x174;" horiz-adv-x="1082" 
d="M501 899l-46 -87h-107l113 159h94l114 -159h-107l-47 87l-7 26zM938 720h104l-243 -720h-107l-151 448l-149 -448h-109l-243 720h111l184 -586l4 -34l5 33l149 457l-44 130h111l184 -586l4 -34l4 33z" />
    <glyph glyph-name="Wdieresis" unicode="&#x1e84;" horiz-adv-x="1082" 
d="M492 869l-83 -51l-50 85l85 50zM683 869l-83 -51l-50 85l85 50zM938 720h104l-243 -720h-107l-151 448l-149 -448h-109l-243 720h111l184 -586l4 -34l5 33l149 457l-44 130h111l184 -586l4 -34l4 33z" />
    <glyph glyph-name="Wgrave" unicode="&#x1e80;" horiz-adv-x="1082" 
d="M542 811h-83l-107 159h109zM938 720h104l-243 -720h-107l-151 448l-149 -448h-109l-243 720h111l184 -586l4 -34l5 33l149 457l-44 130h111l184 -586l4 -34l4 33z" />
    <glyph glyph-name="X" unicode="X" horiz-adv-x="724" 
d="M40 0l251 368l5 6l-5 6l-236 340h119l179 -259l4 -16l4 16l177 259h119l-234 -337l-4 -5l4 -5l261 -373h-121l-201 289l-4 17l-5 -17l-194 -289h-119z" />
    <glyph glyph-name="Y" unicode="Y" horiz-adv-x="660" 
d="M625 720l-236 -414l-1 -306h-100v302l-253 418h112l188 -318l5 -26l5 26l176 318h104z" />
    <glyph glyph-name="Yacute" unicode="&#xdd;" horiz-adv-x="660" 
d="M495 971l-107 -159h-83l81 159h109zM625 720l-236 -414l-1 -306h-100v302l-253 418h112l188 -318l5 -26l5 26l176 318h104z" />
    <glyph glyph-name="Ycircumflex" unicode="&#x176;" horiz-adv-x="660" 
d="M327 899l-46 -87h-107l113 159h94l114 -159h-107l-47 87l-7 26zM625 720l-236 -414l-1 -306h-100v302l-253 418h112l188 -318l5 -26l5 26l176 318h104z" />
    <glyph glyph-name="Ydieresis" unicode="&#x178;" horiz-adv-x="660" 
d="M318 869l-83 -51l-50 85l85 50zM509 869l-83 -51l-50 85l85 50zM625 720l-236 -414l-1 -306h-100v302l-253 418h112l188 -318l5 -26l5 26l176 318h104z" />
    <glyph glyph-name="Ygrave" unicode="&#x1ef2;" horiz-adv-x="660" 
d="M368 811h-83l-107 159h109zM625 720l-236 -414l-1 -306h-100v302l-253 418h112l188 -318l5 -26l5 26l176 318h104z" />
    <glyph glyph-name="Z" unicode="Z" horiz-adv-x="625" 
d="M169 83h406v-83h-525v62l387 565l22 10h-380v83h494v-62l-381 -564z" />
    <glyph glyph-name="Zacute" unicode="&#x179;" horiz-adv-x="625" 
d="M477 971l-107 -159h-83l81 159h109zM169 83h406v-83h-525v62l387 565l22 10h-380v83h494v-62l-381 -564z" />
    <glyph glyph-name="Zcaron" unicode="&#x17d;" horiz-adv-x="625" 
d="M272 812l-113 159h107l46 -87l7 -26l7 26l47 87h107l-114 -159h-94zM169 83h406v-83h-525v62l387 565l22 10h-380v83h494v-62l-381 -564z" />
    <glyph glyph-name="Zdotaccent" unicode="&#x17b;" horiz-adv-x="625" 
d="M386 878l-83 -51l-50 85l85 50zM169 83h406v-83h-525v62l387 565l22 10h-380v83h494v-62l-381 -564z" />
    <glyph glyph-name="a" unicode="a" horiz-adv-x="553" 
d="M179 -14c-161 9 -170 191 -110 258c54 65 151 65 295 58v57c0 92 -110 88 -245 49l-19 72c149 48 358 64 358 -107l-1 -313l62 -16v-44h-147l-6 76c-52 -48 -109 -94 -187 -90zM202 62c63 -7 120 39 159 73l1 102c-114 6 -185 6 -215 -36c-28 -37 -29 -129 55 -139z" />
    <glyph glyph-name="a.ss01" horiz-adv-x="633" 
d="M266 -14c-136 0 -219 114 -219 265c0 152 76 263 219 263c73 0 129 -34 183 -78l4 64h86v-440l61 -16v-44h-147l-5 78c-53 -51 -109 -92 -182 -92zM301 67c49 2 95 36 142 78v223c-45 33 -90 64 -142 65c-92 7 -156 -59 -156 -182c1 -122 66 -192 156 -184z" />
    <glyph glyph-name="aacute" unicode="&#xe1;" horiz-adv-x="553" 
d="M242 592l81 159h109l-107 -159h-83zM179 -14c-161 9 -170 191 -110 258c54 65 151 65 295 58v57c0 92 -110 88 -245 49l-19 72c149 48 358 64 358 -107l-1 -313l62 -16v-44h-147l-6 76c-52 -48 -109 -94 -187 -90zM202 62c63 -7 120 39 159 73l1 102
c-114 6 -185 6 -215 -36c-28 -37 -29 -129 55 -139z" />
    <glyph glyph-name="aacute.ss01" horiz-adv-x="633" 
d="M277 592l81 159h109l-107 -159h-83zM266 -14c-136 0 -219 114 -219 265c0 152 76 263 219 263c73 0 129 -34 183 -78l4 64h86v-440l61 -16v-44h-147l-5 78c-53 -51 -109 -92 -182 -92zM301 67c49 2 95 36 142 78v223c-45 33 -90 64 -142 65c-92 7 -156 -59 -156 -182
c1 -122 66 -192 156 -184z" />
    <glyph glyph-name="abreve" unicode="&#x103;" horiz-adv-x="553" 
d="M121 749h82c-4 -64 23 -99 74 -99s78 35 74 99h82c7 -110 -63 -169 -156 -169s-163 59 -156 169zM179 -14c-161 9 -170 191 -110 258c54 65 151 65 295 58v57c0 92 -110 88 -245 49l-19 72c149 48 358 64 358 -107l-1 -313l62 -16v-44h-147l-6 76
c-52 -48 -109 -94 -187 -90zM202 62c63 -7 120 39 159 73l1 102c-114 6 -185 6 -215 -36c-28 -37 -29 -129 55 -139z" />
    <glyph glyph-name="abreve.ss01" horiz-adv-x="633" 
d="M156 749h82c-4 -64 23 -99 74 -99s78 35 74 99h82c7 -110 -63 -169 -156 -169s-163 59 -156 169zM266 -14c-136 0 -219 114 -219 265c0 152 76 263 219 263c73 0 129 -34 183 -78l4 64h86v-440l61 -16v-44h-147l-5 78c-53 -51 -109 -92 -182 -92zM301 67
c49 2 95 36 142 78v223c-45 33 -90 64 -142 65c-92 7 -156 -59 -156 -182c1 -122 66 -192 156 -184z" />
    <glyph glyph-name="acircumflex" unicode="&#xe2;" horiz-adv-x="553" 
d="M264 679l-46 -87h-107l113 159h94l114 -159h-107l-47 87l-7 26zM457 60l62 -16v-44h-147l-6 76c-52 -48 -109 -94 -187 -90c-161 9 -170 191 -110 258c54 65 151 65 295 58v57c0 92 -110 88 -245 49l-19 72c149 48 358 64 358 -107zM361 135l1 102
c-114 6 -185 6 -215 -36c-28 -37 -29 -129 55 -139c63 -7 120 39 159 73z" />
    <glyph glyph-name="acircumflex.ss01" horiz-adv-x="633" 
d="M299 679l-46 -87h-107l113 159h94l114 -159h-107l-47 87l-7 26zM539 60l61 -16v-44h-147l-5 78c-53 -51 -109 -92 -182 -92c-136 0 -219 114 -219 265c0 152 76 263 219 263c73 0 129 -34 183 -78l4 64h86v-440zM443 145v223c-45 33 -90 64 -142 65
c-92 7 -156 -59 -156 -182c1 -122 66 -192 156 -184c49 2 95 36 142 78z" />
    <glyph glyph-name="adieresis" unicode="&#xe4;" horiz-adv-x="553" 
d="M255 649l-83 -51l-50 85l85 50zM446 649l-83 -51l-50 85l85 50zM179 -14c-161 9 -170 191 -110 258c54 65 151 65 295 58v57c0 92 -110 88 -245 49l-19 72c149 48 358 64 358 -107l-1 -313l62 -16v-44h-147l-6 76c-52 -48 -109 -94 -187 -90zM202 62c63 -7 120 39 159 73
l1 102c-114 6 -185 6 -215 -36c-28 -37 -29 -129 55 -139z" />
    <glyph glyph-name="adieresis.ss01" horiz-adv-x="633" 
d="M290 649l-83 -51l-50 85l85 50zM481 649l-83 -51l-50 85l85 50zM266 -14c-136 0 -219 114 -219 265c0 152 76 263 219 263c73 0 129 -34 183 -78l4 64h86v-440l61 -16v-44h-147l-5 78c-53 -51 -109 -92 -182 -92zM301 67c49 2 95 36 142 78v223c-45 33 -90 64 -142 65
c-92 7 -156 -59 -156 -182c1 -122 66 -192 156 -184z" />
    <glyph glyph-name="agrave" unicode="&#xe0;" horiz-adv-x="553" 
d="M304 591h-83l-107 159h109zM179 -14c-161 9 -170 191 -110 258c54 65 151 65 295 58v57c0 92 -110 88 -245 49l-19 72c149 48 358 64 358 -107l-1 -313l62 -16v-44h-147l-6 76c-52 -48 -109 -94 -187 -90zM202 62c63 -7 120 39 159 73l1 102c-114 6 -185 6 -215 -36
c-28 -37 -29 -129 55 -139z" />
    <glyph glyph-name="agrave.ss01" horiz-adv-x="633" 
d="M339 591h-83l-107 159h109zM266 -14c-136 0 -219 114 -219 265c0 152 76 263 219 263c73 0 129 -34 183 -78l4 64h86v-440l61 -16v-44h-147l-5 78c-53 -51 -109 -92 -182 -92zM301 67c49 2 95 36 142 78v223c-45 33 -90 64 -142 65c-92 7 -156 -59 -156 -182
c1 -122 66 -192 156 -184z" />
    <glyph glyph-name="amacron" unicode="&#x101;" horiz-adv-x="553" 
d="M421 709v-80h-285v80h285zM179 -14c-161 9 -170 191 -110 258c54 65 151 65 295 58v57c0 92 -110 88 -245 49l-19 72c149 48 358 64 358 -107l-1 -313l62 -16v-44h-147l-6 76c-52 -48 -109 -94 -187 -90zM202 62c63 -7 120 39 159 73l1 102c-114 6 -185 6 -215 -36
c-28 -37 -29 -129 55 -139z" />
    <glyph glyph-name="amacron.ss01" horiz-adv-x="633" 
d="M456 709v-80h-285v80h285zM266 -14c-136 0 -219 114 -219 265c0 152 76 263 219 263c73 0 129 -34 183 -78l4 64h86v-440l61 -16v-44h-147l-5 78c-53 -51 -109 -92 -182 -92zM301 67c49 2 95 36 142 78v223c-45 33 -90 64 -142 65c-92 7 -156 -59 -156 -182
c1 -122 66 -192 156 -184z" />
    <glyph glyph-name="aogonek" unicode="&#x105;" horiz-adv-x="555" 
d="M494 0c-63 -2 -146 -69 -126 -127c14 -46 70 -48 120 -13l17 -60c-74 -59 -198 -49 -221 48c-16 69 33 125 88 152l-6 76c-52 -48 -109 -94 -187 -90c-161 9 -170 190 -110 257c54 65 151 63 295 55v60c0 93 -110 89 -245 50l-19 72c149 48 358 64 358 -107l-1 -313
l62 -16v-44h-25zM361 134l1 102c-114 7 -185 7 -215 -34c-28 -37 -29 -131 55 -140c63 -7 120 38 159 72z" />
    <glyph glyph-name="aogonek.ss01" horiz-adv-x="634" 
d="M576 0c-63 -2 -147 -69 -127 -127c15 -46 71 -48 121 -13l17 -60c-74 -59 -198 -49 -221 48c-17 69 33 125 87 152l-5 78c-53 -51 -109 -92 -182 -92c-136 0 -219 114 -219 265c0 152 76 263 219 263c73 0 129 -34 183 -78l4 64h86v-440l61 -16v-44h-24zM443 145v223
c-45 33 -90 64 -142 65c-92 7 -156 -59 -156 -182c1 -122 66 -192 156 -184c49 2 95 36 142 78z" />
    <glyph glyph-name="aring" unicode="&#xe5;" horiz-adv-x="553" 
d="M277 779c60 0 105 -45 105 -104s-45 -103 -105 -103c-61 0 -106 44 -106 103s45 104 106 104zM277 725c-26 0 -45 -19 -45 -50s19 -49 45 -49c25 0 44 18 44 49s-19 50 -44 50zM179 -14c-161 9 -170 191 -110 258c54 65 151 65 295 58v57c0 92 -110 88 -245 49l-19 72
c149 48 358 64 358 -107l-1 -313l62 -16v-44h-147l-6 76c-52 -48 -109 -94 -187 -90zM202 62c63 -7 120 39 159 73l1 102c-114 6 -185 6 -215 -36c-28 -37 -29 -129 55 -139z" />
    <glyph glyph-name="aring.ss01" horiz-adv-x="633" 
d="M312 779c60 0 105 -45 105 -104s-45 -103 -105 -103c-61 0 -106 44 -106 103s45 104 106 104zM312 725c-26 0 -45 -19 -45 -50s19 -49 45 -49c25 0 44 18 44 49s-19 50 -44 50zM266 -14c-136 0 -219 114 -219 265c0 152 76 263 219 263c73 0 129 -34 183 -78l4 64h86
v-440l61 -16v-44h-147l-5 78c-53 -51 -109 -92 -182 -92zM301 67c49 2 95 36 142 78v223c-45 33 -90 64 -142 65c-92 7 -156 -59 -156 -182c1 -122 66 -192 156 -184z" />
    <glyph glyph-name="atilde" unicode="&#xe3;" horiz-adv-x="553" 
d="M123 612c-21 76 26 146 138 103c43 -16 105 -49 100 16h63c21 -77 -26 -146 -138 -104c-42 16 -105 49 -100 -15h-63zM179 -14c-161 9 -170 191 -110 258c54 65 151 65 295 58v57c0 92 -110 88 -245 49l-19 72c149 48 358 64 358 -107l-1 -313l62 -16v-44h-147l-6 76
c-52 -48 -109 -94 -187 -90zM202 62c63 -7 120 39 159 73l1 102c-114 6 -185 6 -215 -36c-28 -37 -29 -129 55 -139z" />
    <glyph glyph-name="atilde.ss01" horiz-adv-x="633" 
d="M158 612c-21 76 26 146 138 103c43 -16 105 -49 100 16h63c21 -77 -26 -146 -138 -104c-42 16 -105 49 -100 -15h-63zM266 -14c-136 0 -219 114 -219 265c0 152 76 263 219 263c73 0 129 -34 183 -78l4 64h86v-440l61 -16v-44h-147l-5 78c-53 -51 -109 -92 -182 -92z
M301 67c49 2 95 36 142 78v223c-45 33 -90 64 -142 65c-92 7 -156 -59 -156 -182c1 -122 66 -192 156 -184z" />
    <glyph glyph-name="ae" unicode="&#xe6;" horiz-adv-x="872" 
d="M102 476c135 47 305 67 335 -51c43 55 106 89 183 89c188 0 224 -162 197 -282h-339c2 -99 66 -166 161 -167c56 0 104 19 149 43l21 -67c-46 -33 -111 -55 -182 -55c-97 0 -163 46 -202 114c-113 -94 -159 -118 -237 -114c-174 7 -178 189 -118 258c52 63 168 60 295 58
v60c0 92 -113 84 -247 41zM479 301h253c8 63 -19 135 -114 135c-72 1 -129 -53 -139 -135zM366 236c-107 3 -192 6 -221 -38c-23 -37 -23 -126 57 -136c63 -7 123 40 164 75v99z" />
    <glyph glyph-name="b" unicode="b" horiz-adv-x="623" 
d="M359 514c140 0 217 -115 217 -263c0 -150 -79 -265 -215 -265c-72 0 -131 42 -180 92l-8 -78h-85v718l-60 18v44h157l-1 -341c50 43 106 75 175 75zM326 67c90 -8 152 60 152 184s-63 189 -153 182c-49 -3 -96 -32 -141 -65v-222c45 -41 94 -75 142 -79z" />
    <glyph glyph-name="c" unicode="c" horiz-adv-x="515" 
d="M288 -14c-146 -1 -241 105 -241 265c0 158 95 263 236 263c61 0 122 -20 172 -51l-17 -69c-45 25 -95 45 -144 43c-92 -2 -149 -75 -149 -186c0 -109 56 -183 153 -187c54 -2 111 19 153 41l17 -69c-57 -32 -118 -49 -180 -50z" />
    <glyph glyph-name="cacute" unicode="&#x107;" horiz-adv-x="515" 
d="M243 592l81 159h109l-107 -159h-83zM288 -14c-146 -1 -241 105 -241 265c0 158 95 263 236 263c61 0 122 -20 172 -51l-17 -69c-45 25 -95 45 -144 43c-92 -2 -149 -75 -149 -186c0 -109 56 -183 153 -187c54 -2 111 19 153 41l17 -69c-57 -32 -118 -49 -180 -50z" />
    <glyph glyph-name="ccaron" unicode="&#x10d;" horiz-adv-x="515" 
d="M228 592l-113 159h107l46 -87l7 -26l7 26l47 87h107l-114 -159h-94zM451 105l17 -69c-57 -32 -118 -49 -180 -50c-146 -1 -241 105 -241 265c0 158 95 263 236 263c61 0 122 -20 172 -51l-17 -69c-45 25 -95 45 -144 43c-92 -2 -149 -75 -149 -186
c0 -109 56 -183 153 -187c54 -2 111 19 153 41z" />
    <glyph glyph-name="ccedilla" unicode="&#xe7;" horiz-adv-x="515" 
d="M300 -61c55 7 114 -27 107 -92c-12 -92 -140 -114 -226 -53l16 57c67 -41 123 -34 129 1c6 38 -32 52 -93 45l-16 14l32 77c-124 17 -202 117 -202 263c0 158 95 263 236 263c61 0 122 -20 172 -51l-17 -69c-45 25 -95 45 -144 43c-92 -2 -149 -75 -149 -186
c0 -109 56 -183 153 -187c54 -2 111 19 153 41l17 -69c-47 -26 -96 -42 -146 -48z" />
    <glyph glyph-name="cdotaccent" unicode="&#x10b;" horiz-adv-x="515" 
d="M343 658l-83 -51l-50 85l85 50zM288 -14c-146 -1 -241 105 -241 265c0 158 95 263 236 263c61 0 122 -20 172 -51l-17 -69c-45 25 -95 45 -144 43c-92 -2 -149 -75 -149 -186c0 -109 56 -183 153 -187c54 -2 111 19 153 41l17 -69c-57 -32 -118 -49 -180 -50z" />
    <glyph glyph-name="d" unicode="d" horiz-adv-x="630" 
d="M540 62l62 -18v-44h-148l-7 77c-50 -49 -108 -91 -180 -91c-135 0 -220 115 -220 265s82 263 222 263c69 0 124 -33 174 -75v279l-61 18v44h158v-718zM145 251c1 -121 67 -192 157 -184c48 4 97 41 141 82v215c-45 35 -93 66 -141 69c-92 7 -157 -61 -157 -182z" />
    <glyph glyph-name="eth" unicode="&#xf0;" horiz-adv-x="591" 
d="M531 355c51 -213 -50 -356 -224 -367c-240 -16 -337 271 -189 408c83 78 217 85 301 17c-25 65 -62 117 -113 163l-114 -65l-33 48l97 57c-27 20 -57 39 -91 58l46 65c43 -21 85 -47 123 -78l92 54l36 -50l-80 -45c70 -68 124 -155 149 -265zM299 67
c105 6 175 89 148 244c-47 86 -162 106 -237 54c-128 -79 -60 -308 89 -298z" />
    <glyph glyph-name="dcaron" unicode="&#x10f;" horiz-adv-x="847" 
d="M540 780v-718l62 -18v-44h-148l-7 77c-50 -49 -108 -91 -180 -91c-135 0 -220 115 -220 265s82 263 222 263c69 0 124 -33 174 -75v279l-61 18v44h158zM754 738c76 -120 25 -224 -79 -288l-25 37c73 55 67 134 23 200zM145 251c1 -121 67 -192 157 -184
c48 4 97 41 141 82v215c-45 35 -93 66 -141 69c-92 7 -157 -61 -157 -182z" />
    <glyph glyph-name="dcroat" unicode="&#x111;" horiz-adv-x="630" 
d="M540 62l62 -18v-44h-148l-7 77c-50 -49 -108 -91 -180 -91c-135 0 -220 115 -220 265s82 263 222 263c69 0 124 -33 174 -75v143h-175v64h175v72l-61 18v44h158v-134h56v-64h-56v-520zM145 251c1 -121 67 -192 157 -184c48 4 97 41 141 82v215c-45 35 -93 66 -141 69
c-92 7 -157 -61 -157 -182z" />
    <glyph glyph-name="e" unicode="e" horiz-adv-x="543" 
d="M297 -14c-171 1 -250 121 -250 265c0 157 98 264 242 263c184 -1 226 -146 199 -282h-345c1 -107 62 -165 168 -166c54 0 106 15 155 41l16 -66c-45 -33 -111 -55 -185 -55zM147 298h258c6 68 -16 137 -117 138c-80 0 -133 -54 -141 -138z" />
    <glyph glyph-name="eacute" unicode="&#xe9;" horiz-adv-x="543" 
d="M252 592l81 159h109l-107 -159h-83zM297 -14c-171 1 -250 121 -250 265c0 157 98 264 242 263c184 -1 226 -146 199 -282h-345c1 -107 62 -165 168 -166c54 0 106 15 155 41l16 -66c-45 -33 -111 -55 -185 -55zM147 298h258c6 68 -16 137 -117 138
c-80 0 -133 -54 -141 -138z" />
    <glyph glyph-name="ecaron" unicode="&#x11b;" horiz-adv-x="543" 
d="M237 592l-113 159h107l46 -87l7 -26l7 26l47 87h107l-114 -159h-94zM289 514c184 -1 226 -146 199 -282h-345c1 -107 62 -165 168 -166c54 0 106 15 155 41l16 -66c-45 -33 -111 -55 -185 -55c-171 1 -250 121 -250 265c0 157 98 264 242 263zM405 298
c6 68 -16 137 -117 138c-80 0 -133 -54 -141 -138h258z" />
    <glyph glyph-name="ecircumflex" unicode="&#xea;" horiz-adv-x="543" 
d="M274 679l-46 -87h-107l113 159h94l114 -159h-107l-47 87l-7 26zM289 514c184 -1 226 -146 199 -282h-345c1 -107 62 -165 168 -166c54 0 106 15 155 41l16 -66c-45 -33 -111 -55 -185 -55c-171 1 -250 121 -250 265c0 157 98 264 242 263zM405 298c6 68 -16 137 -117 138
c-80 0 -133 -54 -141 -138h258z" />
    <glyph glyph-name="edieresis" unicode="&#xeb;" horiz-adv-x="543" 
d="M265 649l-83 -51l-50 85l85 50zM456 649l-83 -51l-50 85l85 50zM297 -14c-171 1 -250 121 -250 265c0 157 98 264 242 263c184 -1 226 -146 199 -282h-345c1 -107 62 -165 168 -166c54 0 106 15 155 41l16 -66c-45 -33 -111 -55 -185 -55zM147 298h258
c6 68 -16 137 -117 138c-80 0 -133 -54 -141 -138z" />
    <glyph glyph-name="edotaccent" unicode="&#x117;" horiz-adv-x="543" 
d="M352 658l-83 -51l-50 85l85 50zM297 -14c-171 1 -250 121 -250 265c0 157 98 264 242 263c184 -1 226 -146 199 -282h-345c1 -107 62 -165 168 -166c54 0 106 15 155 41l16 -66c-45 -33 -111 -55 -185 -55zM147 298h258c6 68 -16 137 -117 138c-80 0 -133 -54 -141 -138z
" />
    <glyph glyph-name="egrave" unicode="&#xe8;" horiz-adv-x="543" 
d="M315 591h-83l-107 159h109zM297 -14c-171 1 -250 121 -250 265c0 157 98 264 242 263c184 -1 226 -146 199 -282h-345c1 -107 62 -165 168 -166c54 0 106 15 155 41l16 -66c-45 -33 -111 -55 -185 -55zM147 298h258c6 68 -16 137 -117 138c-80 0 -133 -54 -141 -138z" />
    <glyph glyph-name="emacron" unicode="&#x113;" horiz-adv-x="543" 
d="M432 709v-80h-285v80h285zM297 -14c-171 1 -250 121 -250 265c0 157 98 264 242 263c184 -1 226 -146 199 -282h-345c1 -107 62 -165 168 -166c54 0 106 15 155 41l16 -66c-45 -33 -111 -55 -185 -55zM147 298h258c6 68 -16 137 -117 138c-80 0 -133 -54 -141 -138z" />
    <glyph glyph-name="eogonek" unicode="&#x119;" horiz-adv-x="543" 
d="M464 -201c-81 -61 -206 -44 -224 49c-14 61 31 109 77 144c-164 -17 -270 90 -270 258c0 156 94 265 245 264c182 -2 223 -163 196 -282h-345c2 -107 62 -165 167 -166c55 0 107 17 156 43l16 -67l-83 -55c-51 -35 -90 -78 -76 -119c15 -44 76 -43 124 -9zM147 298h258
c5 64 -22 138 -117 138c-82 0 -133 -54 -141 -138z" />
    <glyph glyph-name="f" unicode="f" horiz-adv-x="355" 
d="M361 703c-130 33 -160 -11 -160 -78v-125h126v-74h-126v-426h-96v426h-77v74h77v123c0 114 63 211 275 154z" />
    <glyph glyph-name="g" unicode="g" horiz-adv-x="631" 
d="M596 500v-44l-62 -18v-429c0 -202 -144 -289 -399 -212l19 75c177 -54 285 -26 285 137l-1 57c-47 -42 -102 -75 -172 -75c-137 0 -219 114 -219 260c0 152 85 263 222 263c68 0 124 -36 173 -83l9 69h145zM302 72c48 4 95 35 136 69v219c-45 39 -91 70 -135 73
c-91 7 -158 -60 -158 -182c1 -118 66 -186 157 -179z" />
    <glyph glyph-name="g.ss01" horiz-adv-x="561" 
d="M517 447c-20 1 -42 -4 -60 -15c26 -34 40 -77 40 -124c0 -117 -88 -203 -226 -203c-39 0 -74 6 -104 19c-13 -13 -18 -25 -18 -37c0 -41 55 -39 142 -41c130 -3 223 -21 223 -133c0 -165 -247 -162 -437 -114l18 75c167 -37 326 -36 326 38c0 55 -69 56 -164 58
c-99 1 -193 15 -193 95c0 38 24 65 52 88c-46 37 -72 91 -72 155c1 118 89 206 227 206c51 0 95 -12 130 -33c28 27 74 37 116 34v-68zM271 179c84 0 130 56 130 129c0 74 -46 130 -130 130s-130 -56 -130 -130c0 -73 46 -129 130 -129z" />
    <glyph glyph-name="gbreve" unicode="&#x11f;" horiz-adv-x="631" 
d="M311 580c-93 0 -163 59 -156 169h82c-4 -64 23 -99 74 -99s78 35 74 99h82c7 -110 -63 -169 -156 -169zM596 500v-44l-62 -18v-429c0 -202 -144 -289 -399 -212l19 75c177 -54 285 -26 285 137l-1 57c-47 -42 -102 -75 -172 -75c-137 0 -219 114 -219 260
c0 152 85 263 222 263c68 0 124 -36 173 -83l9 69h145zM302 72c48 4 95 35 136 69v219c-45 39 -91 70 -135 73c-91 7 -158 -60 -158 -182c1 -118 66 -186 157 -179z" />
    <glyph glyph-name="gbreve.ss01" horiz-adv-x="561" 
d="M274 580c-93 0 -163 59 -156 169h82c-4 -64 23 -99 74 -99s78 35 74 99h82c7 -110 -63 -169 -156 -169zM517 447c-20 1 -42 -4 -60 -15c26 -34 40 -77 40 -124c0 -117 -88 -203 -226 -203c-39 0 -74 6 -104 19c-13 -13 -18 -25 -18 -37c0 -41 55 -39 142 -41
c130 -3 223 -21 223 -133c0 -165 -247 -162 -437 -114l18 75c167 -37 326 -36 326 38c0 55 -69 56 -164 58c-99 1 -193 15 -193 95c0 38 24 65 52 88c-46 37 -72 91 -72 155c1 118 89 206 227 206c51 0 95 -12 130 -33c28 27 74 37 116 34v-68zM271 179c84 0 130 56 130 129
c0 74 -46 130 -130 130s-130 -56 -130 -130c0 -73 46 -129 130 -129z" />
    <glyph glyph-name="gcommaaccent" unicode="&#x123;" horiz-adv-x="631" 
d="M375 625l-78 -47c-62 105 -17 190 59 254l27 -35c-46 -53 -48 -106 -8 -172zM596 500v-44l-62 -18v-429c0 -202 -144 -291 -399 -211l19 72c177 -54 285 -24 285 139l-1 57c-47 -42 -102 -75 -172 -75c-137 0 -219 114 -219 260c0 152 85 263 222 263
c68 0 124 -36 173 -83l9 69h145zM302 72c48 4 94 35 136 69v220c-45 38 -91 69 -135 72c-91 7 -158 -60 -158 -182c1 -118 66 -186 157 -179z" />
    <glyph glyph-name="gcommaaccent.ss01" horiz-adv-x="567" 
d="M326 625l-78 -47c-63 105 -17 190 59 254l27 -35c-46 -53 -48 -106 -8 -172zM517 447c-20 1 -42 -4 -60 -15c26 -34 40 -77 40 -124c0 -117 -88 -203 -226 -203c-39 0 -74 6 -104 19c-13 -13 -18 -25 -18 -37c0 -35 55 -33 142 -34c124 -3 223 -15 223 -134
c0 -177 -247 -175 -437 -120l18 75c167 -44 326 -42 326 44c0 62 -69 57 -164 58c-99 2 -193 15 -193 89c0 38 24 65 52 88c-46 37 -72 91 -72 155c1 118 89 206 227 206c51 0 95 -12 130 -33c28 27 74 37 116 34v-68zM271 179c84 0 130 56 130 129c0 74 -46 130 -130 130
s-130 -56 -130 -130c0 -73 46 -129 130 -129z" />
    <glyph glyph-name="gdotaccent" unicode="&#x121;" horiz-adv-x="631" 
d="M375 658l-83 -51l-50 85l85 50zM596 500v-44l-62 -18v-429c0 -202 -144 -289 -399 -212l19 75c177 -54 285 -26 285 137l-1 57c-47 -42 -102 -75 -172 -75c-137 0 -219 114 -219 260c0 152 85 263 222 263c68 0 124 -36 173 -83l9 69h145zM302 72c48 4 95 35 136 69v219
c-45 39 -91 70 -135 73c-91 7 -158 -60 -158 -182c1 -118 66 -186 157 -179z" />
    <glyph glyph-name="gdotaccent.ss01" horiz-adv-x="561" 
d="M338 658l-83 -51l-50 85l85 50zM517 447c-20 1 -42 -4 -60 -15c26 -34 40 -77 40 -124c0 -117 -88 -203 -226 -203c-39 0 -74 6 -104 19c-13 -13 -18 -25 -18 -37c0 -41 55 -39 142 -41c130 -3 223 -21 223 -133c0 -165 -247 -162 -437 -114l18 75
c167 -37 326 -36 326 38c0 55 -69 56 -164 58c-99 1 -193 15 -193 95c0 38 24 65 52 88c-46 37 -72 91 -72 155c1 118 89 206 227 206c51 0 95 -12 130 -33c28 27 74 37 116 34v-68zM271 179c84 0 130 56 130 129c0 74 -46 130 -130 130s-130 -56 -130 -130
c0 -73 46 -129 130 -129z" />
    <glyph glyph-name="h" unicode="h" horiz-adv-x="629" 
d="M392 514c89 0 159 -57 159 -175v-339h-96v314c0 72 -34 113 -97 114c-54 0 -114 -28 -173 -79v-349h-96v718l-61 18v44h157v-357c67 60 142 91 207 91z" />
    <glyph glyph-name="hbar" unicode="&#x127;" horiz-adv-x="631" 
d="M394 514c89 0 159 -57 159 -175v-339h-96v314c0 72 -34 113 -97 114c-54 0 -114 -28 -173 -79v-349h-96v575h-71v64h73v79l-63 18v44h157v-141h170v-64h-170v-152c67 60 142 91 207 91z" />
    <glyph glyph-name="i" unicode="i" horiz-adv-x="277" 
d="M208 658l-83 -51l-50 85l85 50zM192 500v-500h-96v439l-61 17v44h157z" />
    <glyph glyph-name="dotlessi" unicode="&#x131;" horiz-adv-x="278" 
d="M192 500v-500h-96v439l-61 17v44h157z" />
    <glyph glyph-name="iacute" unicode="&#xed;" horiz-adv-x="278" 
d="M191 751h109l-107 -159h-83zM192 500v-500h-96v439l-61 17v44h157z" />
    <glyph glyph-name="icircumflex" unicode="&#xee;" horiz-adv-x="278" 
d="M186 751l114 -159h-107l-47 87l-7 26l-7 -26l-46 -87h-107l113 159h94zM192 500v-500h-96v439l-61 17v44h157z" />
    <glyph glyph-name="idieresis" unicode="&#xef;" horiz-adv-x="282" 
d="M58 742l48 -85l-84 -51l-50 85zM258 742l49 -85l-85 -51l-50 85zM192 500v-500h-96v439l-61 17v44h157z" />
    <glyph glyph-name="i.loclTRK" horiz-adv-x="278" 
d="M210 658l-83 -51l-50 85l85 50zM192 500v-500h-96v439l-61 17v44h157z" />
    <glyph glyph-name="igrave" unicode="&#xec;" horiz-adv-x="278" 
d="M173 591h-83l-107 159h109zM192 500v-500h-96v439l-61 17v44h157z" />
    <glyph glyph-name="ij" unicode="&#x133;" horiz-adv-x="564" 
d="M75 692l85 50l48 -84l-83 -51zM493 657l-84 -51l-50 85l86 51zM192 500v-500h-96v439l-61 17v44h157zM477 500v-554c0 -109 -33 -214 -225 -170l19 74c105 -22 109 28 109 94v495l-60 17v44h157z" />
    <glyph glyph-name="imacron" unicode="&#x12b;" horiz-adv-x="282" 
d="M-9 715h285v-79h-285v79zM192 500v-500h-96v439l-61 17v44h157z" />
    <glyph glyph-name="iogonek" unicode="&#x12f;" horiz-adv-x="278" 
d="M208 657l-83 -50l-50 84l85 51zM209 -141l18 -59c-75 -62 -200 -48 -221 52c-12 60 37 114 90 148v439l-61 17v44h157v-500c-60 -21 -119 -81 -104 -131c13 -47 73 -45 121 -10z" />
    <glyph glyph-name="j" unicode="j" horiz-adv-x="286" 
d="M216 657l-84 -51l-50 85l86 51zM200 500v-554c0 -109 -33 -214 -225 -170l19 74c105 -22 109 28 109 94v495l-60 17v44h157z" />
    <glyph glyph-name="k" unicode="k" horiz-adv-x="554" 
d="M335 268l192 -268h-112l-162 235h-68l-1 -235h-96l1 719l-61 17v44h157v-467h71l137 187h105l-163 -217l-9 -7z" />
    <glyph glyph-name="kcommaaccent" unicode="&#x137;" horiz-adv-x="554" 
d="M335 268l192 -268h-112l-162 235h-68l-1 -235h-96l1 719l-61 17v44h157v-467h71l137 187h105l-163 -217l-9 -7zM246 -101l78 47c63 -105 15 -194 -62 -258l-27 36c47 52 51 109 11 175z" />
    <glyph glyph-name="l" unicode="l" horiz-adv-x="267" 
d="M185 780v-780h-96v719l-61 17v44h157z" />
    <glyph glyph-name="lacute" unicode="&#x13a;" horiz-adv-x="267" 
d="M185 1031h109l-107 -159h-83zM185 780v-780h-96v719l-61 17v44h157z" />
    <glyph glyph-name="lcaron" unicode="&#x13e;" horiz-adv-x="483" 
d="M185 780l-1 -780h-96l1 719l-61 17v44h157zM390 734c76 -120 25 -224 -78 -288l-25 37c72 55 66 134 22 200z" />
    <glyph glyph-name="lcommaaccent" unicode="&#x13c;" horiz-adv-x="274" 
d="M89 0v719l-60 17v44h157l-1 -780h-96zM161 -54c63 -105 15 -194 -61 -258l-27 36c46 52 51 109 11 175z" />
    <glyph glyph-name="ldot" unicode="&#x140;" horiz-adv-x="510" 
d="M186 780l-1 -780h-96v719l-60 17v44h157zM390 357l50 -90l-88 -53l-52 90z" />
    <glyph glyph-name="lslash" unicode="&#x142;" horiz-adv-x="297" 
d="M274 457v-91l-74 -38v-328h-96v278l-74 -39v91l74 38v351l-60 17v44h157l-1 -361z" />
    <glyph glyph-name="m" unicode="m" horiz-adv-x="953" 
d="M716 514c89 0 159 -57 159 -175v-339h-96v314c0 70 -34 111 -97 114c-53 2 -99 -26 -149 -71v-18v-339h-96v314c0 70 -33 111 -97 114c-52 2 -99 -26 -149 -69v-359h-96v438l-61 18v44h147l6 -70c61 53 124 84 187 84c66 0 121 -31 146 -95c64 61 129 95 196 95z" />
    <glyph glyph-name="n" unicode="n" horiz-adv-x="635" 
d="M398 514c89 0 159 -57 159 -175v-339h-96v314c0 70 -33 111 -97 114c-55 3 -114 -32 -173 -84v-344h-96v438l-61 18v44h147l8 -85c67 63 143 99 209 99z" />
    <glyph glyph-name="nacute" unicode="&#x144;" horiz-adv-x="635" 
d="M485 751l-107 -159h-83l81 159h109zM398 514c89 0 159 -57 159 -175v-339h-96v314c0 70 -33 111 -97 114c-55 3 -114 -32 -173 -84v-344h-96v438l-61 18v44h147l8 -85c67 63 143 99 209 99z" />
    <glyph glyph-name="ncaron" unicode="&#x148;" horiz-adv-x="635" 
d="M280 592l-113 159h107l46 -87l7 -26l7 26l47 87h107l-114 -159h-94zM398 514c89 0 159 -57 159 -175v-339h-96v314c0 70 -33 111 -97 114c-55 3 -114 -32 -173 -84v-344h-96v438l-61 18v44h147l8 -85c67 63 143 99 209 99z" />
    <glyph glyph-name="ncommaaccent" unicode="&#x146;" horiz-adv-x="637" 
d="M399 514c90 0 160 -57 160 -175v-339h-97v314c0 70 -33 111 -96 114c-56 3 -114 -32 -173 -84v-344h-97v438l-61 18v44h147l8 -85c68 63 144 99 209 99zM271 -101l77 47c63 -105 15 -194 -61 -258l-27 36c47 52 51 109 11 175z" />
    <glyph glyph-name="eng" unicode="&#x14b;" horiz-adv-x="637" 
d="M399 514c90 0 160 -57 160 -175v-328c0 -220 -129 -282 -330 -224l18 75c138 -39 215 -4 215 138v314c0 70 -33 111 -96 114c-56 3 -114 -32 -173 -84v-344h-97v438l-61 18v44h147l8 -85c68 63 144 99 209 99z" />
    <glyph glyph-name="ntilde" unicode="&#xf1;" horiz-adv-x="635" 
d="M240 612h-63c-21 76 26 146 138 103c43 -16 105 -49 100 16h63c21 -77 -26 -146 -138 -104c-42 16 -105 49 -100 -15zM398 514c89 0 159 -57 159 -175v-339h-96v314c0 70 -33 111 -97 114c-55 3 -114 -32 -173 -84v-344h-96v438l-61 18v44h147l8 -85c67 63 143 99 209 99
z" />
    <glyph glyph-name="o" unicode="o" horiz-adv-x="601" 
d="M300 -12c-150 0 -253 110 -253 264s103 262 253 262s254 -108 254 -262s-104 -264 -254 -264zM300 66c91 0 155 69 155 186s-63 184 -155 184c-91 0 -155 -67 -155 -184s64 -186 155 -186z" />
    <glyph glyph-name="oacute" unicode="&#xf3;" horiz-adv-x="601" 
d="M265 592l81 159h109l-107 -159h-83zM300 -12c-150 0 -253 110 -253 264s103 262 253 262s254 -108 254 -262s-104 -264 -254 -264zM300 66c91 0 155 69 155 186s-63 184 -155 184c-91 0 -155 -67 -155 -184s64 -186 155 -186z" />
    <glyph glyph-name="ocircumflex" unicode="&#xf4;" horiz-adv-x="601" 
d="M287 679l-46 -87h-107l113 159h94l114 -159h-107l-47 87l-7 26zM300 514c150 0 254 -108 254 -262s-104 -264 -254 -264s-253 110 -253 264s103 262 253 262zM300 66c91 0 155 69 155 186s-63 184 -155 184c-91 0 -155 -67 -155 -184s64 -186 155 -186z" />
    <glyph glyph-name="odieresis" unicode="&#xf6;" horiz-adv-x="601" 
d="M278 649l-83 -51l-50 85l85 50zM469 649l-83 -51l-50 85l85 50zM300 -12c-150 0 -253 110 -253 264s103 262 253 262s254 -108 254 -262s-104 -264 -254 -264zM300 66c91 0 155 69 155 186s-63 184 -155 184c-91 0 -155 -67 -155 -184s64 -186 155 -186z" />
    <glyph glyph-name="ograve" unicode="&#xf2;" horiz-adv-x="601" 
d="M327 591h-83l-107 159h109zM300 -12c-150 0 -253 110 -253 264s103 262 253 262s254 -108 254 -262s-104 -264 -254 -264zM300 66c91 0 155 69 155 186s-63 184 -155 184c-91 0 -155 -67 -155 -184s64 -186 155 -186z" />
    <glyph glyph-name="ohungarumlaut" unicode="&#x151;" horiz-adv-x="601" 
d="M159 591l81 159h109l-107 -159h-83zM357 591l81 159h109l-107 -159h-83zM300 -12c-150 0 -253 110 -253 264s103 262 253 262s254 -108 254 -262s-104 -264 -254 -264zM300 66c91 0 155 69 155 186s-63 184 -155 184c-91 0 -155 -67 -155 -184s64 -186 155 -186z" />
    <glyph glyph-name="omacron" unicode="&#x14d;" horiz-adv-x="601" 
d="M445 709v-80h-285v80h285zM300 -12c-150 0 -253 110 -253 264s103 262 253 262s254 -108 254 -262s-104 -264 -254 -264zM300 66c91 0 155 69 155 186s-63 184 -155 184c-91 0 -155 -67 -155 -184s64 -186 155 -186z" />
    <glyph glyph-name="oslash" unicode="&#xf8;" horiz-adv-x="601" 
d="M505 413c31 -44 49 -99 49 -162c0 -154 -104 -264 -254 -264c-63 0 -117 19 -160 53l-44 -45l-49 43l49 50c-31 44 -49 99 -49 163c0 153 103 263 253 263c63 0 118 -19 161 -53l44 45l49 -44zM145 251c0 -37 6 -68 18 -95l237 243c-26 24 -60 37 -100 37
c-91 0 -155 -69 -155 -185zM300 65c91 0 155 69 155 186c0 36 -6 67 -17 93l-237 -242c26 -24 60 -37 99 -37z" />
    <glyph glyph-name="otilde" unicode="&#xf5;" horiz-adv-x="601" 
d="M146 612c-21 76 26 146 138 103c43 -16 105 -49 100 16h63c21 -77 -26 -146 -138 -104c-42 16 -105 49 -100 -15h-63zM300 -12c-150 0 -253 110 -253 264s103 262 253 262s254 -108 254 -262s-104 -264 -254 -264zM300 66c91 0 155 69 155 186s-63 184 -155 184
c-91 0 -155 -67 -155 -184s64 -186 155 -186z" />
    <glyph glyph-name="oe" unicode="&#x153;" horiz-adv-x="969" 
d="M47 251c0 150 101 263 253 263c96 0 171 -47 211 -120c36 73 109 120 208 120c182 -1 221 -162 196 -280h-344c1 -107 57 -167 164 -167c59 -1 107 17 152 42l19 -67c-46 -32 -111 -56 -184 -56c-104 0 -174 49 -211 119c-39 -71 -115 -118 -211 -118
c-152 0 -253 113 -253 264zM145 251c0 -114 66 -186 157 -186s160 72 160 186c0 113 -69 185 -160 185c-92 0 -157 -72 -157 -185zM574 301h258c5 63 -21 135 -115 135c-82 0 -134 -53 -143 -135z" />
    <glyph glyph-name="p" unicode="p" horiz-adv-x="635" 
d="M368 514c135 0 220 -115 220 -265s-83 -263 -221 -263c-70 0 -125 33 -174 75v-281h-97v658l-62 18v44h147l8 -77c50 50 108 91 179 91zM333 67c92 -7 158 61 157 182s-67 192 -157 184c-48 -4 -96 -41 -140 -82v-215c44 -35 92 -66 140 -69z" />
    <glyph glyph-name="thorn" unicode="&#xfe;" horiz-adv-x="628" 
d="M361 514c136 0 220 -115 220 -265s-83 -263 -221 -263c-70 0 -125 33 -174 75v-281h-97v879l-61 17v44h158v-294c48 48 105 88 175 88zM327 67c91 -7 157 61 156 182s-67 192 -157 184c-48 -4 -96 -41 -140 -82v-215c44 -35 92 -66 141 -69z" />
    <glyph glyph-name="q" unicode="q" horiz-adv-x="622" 
d="M455 500h84l-1 -720h-96v281c-49 -43 -104 -75 -173 -75c-139 0 -222 113 -222 263s85 265 220 265c72 0 130 -41 179 -91zM302 67c48 3 96 34 140 68l1 216c-45 42 -93 78 -141 82c-90 8 -156 -63 -157 -184c0 -121 65 -189 157 -182z" />
    <glyph glyph-name="r" unicode="r" horiz-adv-x="418" 
d="M190 417c58 62 114 112 198 92l-9 -84c-75 14 -127 -33 -186 -96v-329h-97v438l-61 18v44h147z" />
    <glyph glyph-name="racute" unicode="&#x155;" horiz-adv-x="418" 
d="M364 751l-107 -159h-83l81 159h109zM190 417c58 62 114 112 198 92l-9 -84c-75 14 -127 -33 -186 -96v-329h-97v438l-61 18v44h147z" />
    <glyph glyph-name="rcaron" unicode="&#x159;" horiz-adv-x="418" 
d="M159 592l-113 159h107l46 -87l7 -26l7 26l47 87h107l-114 -159h-94zM190 417c58 62 114 112 198 92l-9 -84c-75 14 -127 -33 -186 -96v-329h-97v438l-61 18v44h147z" />
    <glyph glyph-name="rcommaaccent" unicode="&#x157;" horiz-adv-x="418" 
d="M190 417c58 62 114 112 198 92l-9 -81c-74 15 -127 -35 -186 -99v-329h-97v438l-61 18v44h147zM191 -101l78 47c63 -105 15 -194 -62 -258l-26 36c46 52 51 109 10 175z" />
    <glyph glyph-name="s" unicode="s" horiz-adv-x="441" 
d="M412 133c-5 -172 -234 -169 -379 -109l19 72c119 -42 266 -57 268 37c1 44 -52 63 -129 92c-84 31 -154 65 -151 150c4 156 223 162 351 106l-18 -72c-102 41 -241 42 -241 -33c0 -50 65 -64 130 -89c81 -30 153 -66 150 -154z" />
    <glyph glyph-name="sacute" unicode="&#x15b;" horiz-adv-x="441" 
d="M188 592l81 159h109l-107 -159h-83zM412 133c-5 -172 -234 -169 -379 -109l19 72c119 -42 266 -57 268 37c1 44 -52 63 -129 92c-84 31 -154 65 -151 150c4 156 223 162 351 106l-18 -72c-102 41 -241 42 -241 -33c0 -50 65 -64 130 -89c81 -30 153 -66 150 -154z" />
    <glyph glyph-name="scaron" unicode="&#x161;" horiz-adv-x="441" 
d="M173 592l-113 159h107l46 -87l7 -26l7 26l47 87h107l-114 -159h-94zM262 287c81 -30 153 -66 150 -154c-5 -172 -234 -169 -379 -109l19 72c119 -42 266 -57 268 37c1 44 -52 63 -129 92c-84 31 -154 65 -151 150c4 156 223 162 351 106l-18 -72
c-102 41 -241 42 -241 -33c0 -50 65 -64 130 -89z" />
    <glyph glyph-name="scedilla" unicode="&#x15f;" horiz-adv-x="441" 
d="M262 287c81 -30 153 -66 150 -154c-3 -94 -72 -136 -159 -144l-22 -50c55 7 114 -27 107 -92c-12 -92 -140 -114 -226 -53l16 57c67 -41 123 -34 129 1c6 38 -32 52 -93 45l-16 14l32 77c-51 5 -103 18 -147 36l19 72c119 -42 266 -57 268 37c1 44 -52 63 -129 92
c-84 31 -154 65 -151 150c4 156 223 162 351 106l-18 -72c-102 41 -241 42 -241 -33c0 -50 65 -64 130 -89z" />
    <glyph glyph-name="scommaaccent" unicode="&#x219;" horiz-adv-x="441" 
d="M33 24l19 72c127 -42 266 -55 268 36c1 42 -53 65 -129 94c-87 32 -151 67 -151 149c1 155 223 162 351 106l-18 -72c-105 42 -241 41 -241 -34c0 -48 64 -63 130 -89c89 -34 151 -72 150 -153c-2 -173 -230 -167 -379 -109zM203 -312l-27 36c47 52 51 109 11 175l78 47
c63 -105 15 -194 -62 -258z" />
    <glyph glyph-name="germandbls" unicode="&#xdf;" horiz-adv-x="635" 
d="M452 401c-18 -92 151 -126 143 -274c-8 -103 -98 -180 -277 -123l18 74c130 -40 161 13 164 57c7 113 -165 146 -140 265c11 56 53 111 70 154c28 69 -21 106 -89 106c-102 0 -129 -81 -129 -195v-465h-97v426h-84v47l86 28c9 134 74 233 227 233c138 0 200 -79 183 -158
c-11 -55 -68 -131 -75 -175z" />
    <glyph glyph-name="t" unicode="t" horiz-adv-x="367" 
d="M330 79l18 -73c-177 -61 -247 31 -247 137v283h-84v45l84 35v113h97v-119h105v-74h-105v-271c0 -67 27 -109 132 -76z" />
    <glyph glyph-name="tbar" unicode="&#x167;" horiz-adv-x="361" 
d="M329 78l18 -71c-177 -61 -247 30 -247 137v94h-80v69h80v123h-81v41l81 35v113h96v-119h102v-70h-102v-123h102v-69h-102v-84c0 -67 28 -109 133 -76z" />
    <glyph glyph-name="tcaron" unicode="&#x165;" horiz-adv-x="560" 
d="M461 734c77 -120 25 -224 -78 -288l-25 37c73 55 66 134 22 200zM196 154c0 -67 28 -109 133 -76l18 -71c-177 -61 -247 30 -247 137v282h-80v45l80 35v113h96v-119h102v-74h-102v-272z" />
    <glyph glyph-name="uni0163" unicode="&#x163;" horiz-adv-x="367" 
d="M227 -61c55 7 114 -27 107 -92c-12 -92 -140 -114 -226 -53l16 57c67 -41 123 -34 129 1c6 38 -32 52 -93 45l-16 14l37 88c-56 24 -80 82 -80 144v283h-84v45l84 35v113h97v-119h105v-74h-105v-271c0 -67 27 -109 132 -76l18 -73c-38 -13 -71 -19 -100 -19z" />
    <glyph glyph-name="uni021B" unicode="&#x21b;" horiz-adv-x="361" 
d="M347 7c-177 -61 -247 30 -247 137v282h-80v45l80 35v113h96v-119h102v-74h-102v-272c0 -67 28 -109 133 -76zM167 -101l77 47c63 -105 15 -194 -61 -258l-27 36c46 52 51 109 11 175z" />
    <glyph glyph-name="u" unicode="u" horiz-adv-x="608" 
d="M513 62l62 -18v-44h-147l-8 76c-62 -60 -127 -90 -191 -90c-86 1 -152 57 -152 175v339h96v-314c0 -70 29 -111 91 -113c52 -3 101 26 153 75v352h96v-438z" />
    <glyph glyph-name="uacute" unicode="&#xfa;" horiz-adv-x="608" 
d="M453 751l-107 -159h-83l81 159h109zM513 62l62 -18v-44h-147l-8 76c-62 -60 -127 -90 -191 -90c-86 1 -152 57 -152 175v339h96v-314c0 -70 29 -111 91 -113c52 -3 101 26 153 75v352h96v-438z" />
    <glyph glyph-name="ucircumflex" unicode="&#xfb;" horiz-adv-x="608" 
d="M285 679l-46 -87h-107l113 159h94l114 -159h-107l-47 87l-7 26zM513 62l62 -18v-44h-147l-8 76c-62 -60 -127 -90 -191 -90c-86 1 -152 57 -152 175v339h96v-314c0 -70 29 -111 91 -113c52 -3 101 26 153 75v352h96v-438z" />
    <glyph glyph-name="udieresis" unicode="&#xfc;" horiz-adv-x="608" 
d="M276 649l-83 -51l-50 85l85 50zM467 649l-83 -51l-50 85l85 50zM513 62l62 -18v-44h-147l-8 76c-62 -60 -127 -90 -191 -90c-86 1 -152 57 -152 175v339h96v-314c0 -70 29 -111 91 -113c52 -3 101 26 153 75v352h96v-438z" />
    <glyph glyph-name="ugrave" unicode="&#xf9;" horiz-adv-x="608" 
d="M326 591h-83l-107 159h109zM513 62l62 -18v-44h-147l-8 76c-62 -60 -127 -90 -191 -90c-86 1 -152 57 -152 175v339h96v-314c0 -70 29 -111 91 -113c52 -3 101 26 153 75v352h96v-438z" />
    <glyph glyph-name="uhungarumlaut" unicode="&#x171;" horiz-adv-x="608" 
d="M347 750l-107 -159h-83l81 159h109zM545 750l-107 -159h-83l81 159h109zM513 62l62 -18v-44h-147l-8 76c-62 -60 -127 -90 -191 -90c-86 1 -152 57 -152 175v339h96v-314c0 -70 29 -111 91 -113c52 -3 101 26 153 75v352h96v-438z" />
    <glyph glyph-name="umacron" unicode="&#x16b;" horiz-adv-x="608" 
d="M443 709v-80h-285v80h285zM513 62l62 -18v-44h-147l-8 76c-62 -60 -127 -90 -191 -90c-86 1 -152 57 -152 175v339h96v-314c0 -70 29 -111 91 -113c52 -3 101 26 153 75v352h96v-438z" />
    <glyph glyph-name="uogonek" unicode="&#x173;" horiz-adv-x="608" 
d="M550 0c-63 -2 -146 -69 -126 -127c15 -46 71 -48 120 -13l17 -60c-74 -59 -198 -49 -221 48c-16 69 33 125 88 152l-8 76c-62 -60 -127 -90 -191 -90c-86 1 -152 57 -152 175v339h96v-314c0 -70 29 -111 91 -113c52 -3 101 26 153 75v352h96v-438l62 -18v-44h-25z" />
    <glyph glyph-name="uring" unicode="&#x16f;" horiz-adv-x="608" 
d="M298 572c-61 0 -106 44 -106 103s45 104 106 104c60 0 105 -45 105 -104s-45 -103 -105 -103zM298 725c-26 0 -45 -19 -45 -50s19 -49 45 -49c25 0 44 18 44 49s-19 50 -44 50zM513 62l62 -18v-44h-147l-8 76c-62 -60 -127 -90 -191 -90c-86 1 -152 57 -152 175v339h96
v-314c0 -70 29 -111 91 -113c52 -3 101 26 153 75v352h96v-438z" />
    <glyph glyph-name="v" unicode="v" horiz-adv-x="526" 
d="M406 500h95l-189 -500h-97l-190 500h101l134 -382l6 -29l5 29z" />
    <glyph glyph-name="w" unicode="w" horiz-adv-x="803" 
d="M684 500h94l-177 -500h-97l-100 292l-105 -292h-99l-175 500h101l121 -385l4 -22l5 22l108 293l-32 92h101l116 -385l5 -28l6 28z" />
    <glyph glyph-name="wacute" unicode="&#x1e83;" horiz-adv-x="803" 
d="M539 751l-107 -159h-83l81 159h109zM684 500h94l-177 -500h-97l-100 292l-105 -292h-99l-175 500h101l121 -385l4 -22l5 22l108 293l-32 92h101l116 -385l5 -28l6 28z" />
    <glyph glyph-name="wcircumflex" unicode="&#x175;" horiz-adv-x="803" 
d="M371 679l-46 -87h-107l113 159h94l114 -159h-107l-47 87l-7 26zM684 500h94l-177 -500h-97l-100 292l-105 -292h-99l-175 500h101l121 -385l4 -22l5 22l108 293l-32 92h101l116 -385l5 -28l6 28z" />
    <glyph glyph-name="wdieresis" unicode="&#x1e85;" horiz-adv-x="803" 
d="M362 649l-83 -51l-50 85l85 50zM553 649l-83 -51l-50 85l85 50zM684 500h94l-177 -500h-97l-100 292l-105 -292h-99l-175 500h101l121 -385l4 -22l5 22l108 293l-32 92h101l116 -385l5 -28l6 28z" />
    <glyph glyph-name="wgrave" unicode="&#x1e81;" horiz-adv-x="803" 
d="M412 591h-83l-107 159h109zM684 500h94l-177 -500h-97l-100 292l-105 -292h-99l-175 500h101l121 -385l4 -22l5 22l108 293l-32 92h101l116 -385l5 -28l6 28z" />
    <glyph glyph-name="x" unicode="x" horiz-adv-x="550" 
d="M25 0l178 246l10 11l-11 12l-169 231h106l130 -176l5 -12l5 12l123 176h104l-164 -235l-9 -10l9 -10l182 -245h-109l-140 190l-5 12l-5 -12l-135 -190h-105z" />
    <glyph glyph-name="y" unicode="y" horiz-adv-x="561" 
d="M437 500h99l-283 -720h-100l106 258h-39l-195 462h98l163 -390z" />
    <glyph glyph-name="yacute" unicode="&#xfd;" horiz-adv-x="561" 
d="M443 751l-107 -159h-83l81 159h109zM437 500h99l-283 -720h-100l106 258h-39l-195 462h98l163 -390z" />
    <glyph glyph-name="ycircumflex" unicode="&#x177;" horiz-adv-x="561" 
d="M275 679l-46 -87h-107l113 159h94l114 -159h-107l-47 87l-7 26zM437 500h99l-283 -720h-100l106 258h-39l-195 462h98l163 -390z" />
    <glyph glyph-name="ydieresis" unicode="&#xff;" horiz-adv-x="561" 
d="M266 649l-83 -51l-50 85l85 50zM457 649l-83 -51l-50 85l85 50zM437 500h99l-283 -720h-100l106 258h-39l-195 462h98l163 -390z" />
    <glyph glyph-name="ygrave" unicode="&#x1ef3;" horiz-adv-x="561" 
d="M316 591h-83l-107 159h109zM437 500h99l-283 -720h-100l106 258h-39l-195 462h98l163 -390z" />
    <glyph glyph-name="z" unicode="z" horiz-adv-x="462" 
d="M136 74h288v-74h-396v54l269 364l22 8h-264v74h367v-54l-264 -363z" />
    <glyph glyph-name="zacute" unicode="&#x17a;" horiz-adv-x="462" 
d="M394 751l-107 -159h-83l81 159h109zM136 74h288v-74h-396v54l269 364l22 8h-264v74h367v-54l-264 -363z" />
    <glyph glyph-name="zcaron" unicode="&#x17e;" horiz-adv-x="462" 
d="M189 592l-113 159h107l46 -87l7 -26l7 26l47 87h107l-114 -159h-94zM136 74h288v-74h-396v54l269 364l22 8h-264v74h367v-54l-264 -363z" />
    <glyph glyph-name="zdotaccent" unicode="&#x17c;" horiz-adv-x="462" 
d="M304 658l-83 -51l-50 85l85 50zM136 74h288v-74h-396v54l269 364l22 8h-264v74h367v-54l-264 -363z" />
    <glyph glyph-name="c_b" horiz-adv-x="1124" 
d="M860 514c140 0 217 -115 217 -263c0 -150 -79 -265 -215 -265c-72 0 -131 42 -180 92l-8 -78h-85v706h-92c-141 0 -143 -170 -41 -246l-18 -67c-43 24 -96 45 -147 42c-94 -4 -147 -73 -147 -184c0 -113 54 -182 151 -185c56 -3 111 19 155 44l18 -68
c-52 -34 -111 -55 -179 -55c-146 0 -242 102 -242 264c0 161 96 262 236 264c19 0 38 -2 56 -6c-72 111 -23 271 166 271h181l-1 -341c50 43 106 75 175 75zM827 67c90 -8 152 60 152 184s-63 189 -153 182c-49 -3 -96 -32 -141 -65v-222c45 -41 94 -75 142 -79z" />
    <glyph glyph-name="c_h" horiz-adv-x="1129" 
d="M892 514c89 0 159 -57 159 -175v-339h-96v314c0 72 -34 113 -97 114c-54 0 -114 -28 -173 -79v-349h-96v706h-92c-141 0 -143 -170 -41 -246l-18 -67c-43 24 -96 45 -147 42c-94 -4 -147 -73 -147 -184c0 -113 54 -182 151 -185c56 -3 111 19 155 44l18 -68
c-52 -34 -111 -55 -179 -55c-146 0 -242 102 -242 264c0 161 96 262 236 264c19 0 38 -2 56 -6c-72 111 -23 271 166 271h180v-357c67 60 142 91 207 91z" />
    <glyph glyph-name="c_k" horiz-adv-x="1055" 
d="M836 268l192 -268h-112l-162 235h-69v-235h-96v706h-92c-141 0 -143 -170 -41 -246l-18 -67c-43 24 -96 45 -147 42c-94 -4 -147 -73 -147 -184c0 -113 54 -182 151 -185c56 -3 111 19 155 44l18 -68c-52 -34 -111 -55 -179 -55c-146 0 -242 102 -242 264
c0 161 96 262 236 264c19 0 38 -2 56 -6c-72 111 -23 271 166 271h181l-1 -467h72l136 187h106l-163 -217l-9 -7z" />
    <glyph glyph-name="c_t" horiz-adv-x="867" 
d="M837 77l17 -71c-176 -61 -246 31 -246 137v283h-81v45l81 35v140h-106c-22 0 -50 -4 -70 -22c-45 -41 -39 -116 23 -164l-18 -67c-43 24 -96 45 -147 42c-94 -4 -147 -73 -147 -184c0 -113 54 -182 151 -185c56 -3 111 19 154 44l19 -68c-52 -34 -112 -55 -179 -55
c-146 0 -242 102 -242 264c0 161 95 262 236 264c25 0 49 -3 72 -9c-38 66 -21 146 42 188c32 21 71 26 107 26h201v-220h102v-74h-102v-273c0 -67 28 -109 133 -76z" />
    <glyph glyph-name="s_b" horiz-adv-x="1060" 
d="M796 514c140 0 217 -115 217 -263c0 -150 -79 -265 -215 -265c-72 0 -130 42 -180 92l-8 -78h-85v706h-86c-137 0 -153 -152 -49 -229l-17 -67c-105 40 -241 42 -241 -34c0 -48 63 -64 129 -90c89 -34 151 -71 150 -153c-2 -170 -232 -170 -378 -108l19 73
c127 -43 265 -56 267 34c1 43 -52 65 -128 94c-87 32 -151 67 -151 150c1 122 136 149 257 128c-100 103 -42 276 149 276h176l-1 -341c50 43 106 75 175 75zM763 67c91 -8 152 60 152 184s-63 189 -153 182c-48 -3 -96 -32 -141 -65v-222c45 -41 94 -75 142 -79z" />
    <glyph glyph-name="s_h" horiz-adv-x="1066" 
d="M829 514c89 0 159 -57 159 -175v-339h-96v314c0 72 -34 113 -97 114c-54 0 -114 -28 -173 -79v-349h-96v706h-87c-137 0 -153 -152 -49 -229l-17 -67c-105 40 -241 42 -241 -34c0 -48 63 -64 129 -90c89 -34 151 -71 150 -153c-2 -170 -232 -170 -378 -108l19 73
c127 -43 265 -56 267 34c1 43 -52 65 -128 94c-87 32 -151 67 -151 150c1 122 136 149 257 128c-100 103 -42 276 149 276h176v-357c67 60 142 91 207 91z" />
    <glyph glyph-name="s_k" horiz-adv-x="989" 
d="M769 268l193 -268h-113l-162 235h-68v-235h-96v706h-88c-137 0 -142 -149 -45 -226l-17 -70c-105 40 -241 42 -241 -34c0 -48 63 -64 129 -90c89 -34 151 -71 150 -153c-2 -170 -232 -170 -378 -108l19 73c127 -43 265 -56 267 34c1 43 -52 65 -128 94
c-87 32 -151 67 -151 150c1 117 127 149 244 134c-86 105 -36 270 159 270h176v-467h71l137 187h106l-164 -217l-8 -7z" />
    <glyph glyph-name="s_t" horiz-adv-x="810" 
d="M773 77l17 -71c-176 -61 -246 31 -246 137v283h-80v45l80 35v140h-95c-35 0 -59 -7 -78 -26c-34 -33 -34 -96 19 -140l-17 -70c-105 40 -241 42 -241 -34c0 -48 63 -64 129 -90c89 -34 151 -71 150 -153c-2 -170 -232 -170 -378 -108l19 73c127 -43 265 -56 267 34
c1 43 -52 65 -128 94c-87 32 -151 67 -151 150c1 121 138 153 261 131c-42 64 -20 150 51 192c27 16 62 21 101 21h187v-220h102v-74h-102v-273c0 -67 28 -109 133 -76z" />
    <glyph glyph-name="ordfeminine" unicode="&#xaa;" horiz-adv-x="502" 
d="M409 345l48 -13v-42h-124l-4 66c-46 -41 -97 -82 -163 -79c-136 7 -148 164 -94 226c47 55 135 50 254 40v54c0 82 -97 74 -213 38l-15 65c129 44 312 61 311 -85v-270zM324 485c-93 8 -152 13 -180 -23c-27 -32 -25 -108 47 -115c51 -5 99 34 133 63v75z" />
    <glyph glyph-name="ordmasculine" unicode="&#xba;" horiz-adv-x="518" 
d="M259 280c-128 0 -219 95 -219 228c0 132 91 226 219 226s219 -94 219 -226c0 -133 -91 -228 -219 -228zM259 355c77 0 128 56 128 152c0 97 -51 153 -128 153s-128 -55 -128 -153c0 -96 51 -152 128 -152z" />
    <glyph glyph-name="Delta" unicode="&#x394;" horiz-adv-x="708" 
d="M96 0l-54 87l263 633h97l264 -633l-54 -87h-516zM130 78l18 7h411l18 -7l-15 15l-203 508l-5 28l-5 -28l-205 -508z" />
    <glyph glyph-name="Omega" unicode="&#x3a9;" horiz-adv-x="759" 
d="M699 425c0 -108 -60 -210 -162 -273v-78h116v-74h-197v184c90 53 145 146 145 240c1 138 -89 232 -222 232c-132 0 -222 -94 -221 -232c0 -94 55 -187 146 -240v-184h-197v74h115v78c-102 63 -162 165 -162 273c-1 178 134 309 319 309s321 -131 320 -309z" />
    <glyph glyph-name="mu" unicode="&#x3bc;" horiz-adv-x="608" 
d="M513 62l62 -18v-44h-147l-8 76c-62 -60 -127 -90 -191 -90c-24 0 -47 5 -68 14l12 -220h-96v720h96v-314c0 -70 29 -111 91 -113c52 -3 101 26 153 75v352h96v-438z" />
    <glyph glyph-name="pi" unicode="&#x3c0;" horiz-adv-x="669" 
d="M644 426h-121v-365l60 -17v-44h-156v426h-187v-426h-96v426h-119v74h619v-74z" />
    <glyph glyph-name="zero" unicode="0" horiz-adv-x="703" 
d="M352 -14c-208 0 -292 164 -292 374s84 374 292 374c207 0 291 -164 291 -374s-84 -374 -291 -374zM352 65c132 0 192 112 192 295s-60 295 -192 295s-193 -112 -193 -295s61 -295 193 -295z" />
    <glyph glyph-name="one" unicode="1" horiz-adv-x="319" 
d="M30 697l181 28v-725h-95v630h-86v67z" />
    <glyph glyph-name="two" unicode="2" horiz-adv-x="563" 
d="M177 84l-19 -7h349v-77h-465v65l280 312c83 93 103 164 61 221c-44 60 -169 67 -298 8l-20 81c142 63 308 67 393 -22c62 -65 84 -173 -46 -318z" />
    <glyph glyph-name="three" unicode="3" horiz-adv-x="580" 
d="M50 35l19 78c156 -75 354 -58 361 87c3 89 -73 131 -170 131h-40v76h35c116 0 180 79 155 164c-28 92 -177 102 -319 39l-19 78c208 91 396 42 433 -86c28 -86 -18 -187 -102 -228c70 -23 128 -90 122 -190c-12 -200 -273 -245 -475 -149z" />
    <glyph glyph-name="four" unicode="4" horiz-adv-x="565" 
d="M401 380h94v-380h-94v134h-351v76l229 510h97l-225 -504l-14 -6h264v170z" />
    <glyph glyph-name="five" unicode="5" horiz-adv-x="590" 
d="M540 245c2 -164 -121 -257 -268 -257c-71 0 -147 17 -212 53l19 77c58 -29 125 -46 185 -47c102 0 179 61 180 168c1 158 -176 219 -305 92l-68 2l34 387h385v-77h-308l-20 -219c148 120 376 36 378 -179z" />
    <glyph glyph-name="six" unicode="6" horiz-adv-x="609" 
d="M461 438c66 -43 98 -123 98 -199c0 -124 -82 -252 -245 -252c-277 0 -292 354 -199 556c81 185 254 218 399 156l-19 -77c-100 43 -214 38 -280 -76c-23 -40 -40 -91 -49 -142c79 84 211 90 295 34zM460 233c2 93 -47 171 -140 172c-63 2 -133 -33 -164 -115
c0 -17 1 -33 3 -49c11 -103 59 -175 149 -175c100 0 149 77 152 167z" />
    <glyph glyph-name="seven" unicode="7" horiz-adv-x="572" 
d="M70 720h452v-77l-285 -643h-101l284 638l17 5h-367v77z" />
    <glyph glyph-name="eight" unicode="8" horiz-adv-x="612" 
d="M406 388c73 -27 156 -81 156 -203c0 -112 -82 -199 -250 -199c-169 0 -262 87 -262 202c0 120 87 173 157 196c-63 26 -129 76 -129 174c0 95 78 176 231 176c151 0 221 -81 221 -171c0 -100 -63 -150 -124 -175zM172 551c0 -80 72 -111 135 -129c58 15 130 46 130 131
c0 56 -41 102 -130 102s-135 -46 -135 -104zM309 67c108 0 160 57 160 125c0 101 -83 140 -164 159c-73 -17 -161 -54 -161 -155c0 -72 56 -129 165 -129z" />
    <glyph glyph-name="nine" unicode="9" horiz-adv-x="610" 
d="M298 730c284 0 289 -356 194 -556c-84 -190 -252 -216 -397 -156l19 77c99 -43 213 -39 280 76c26 44 44 100 54 156c-67 -79 -178 -96 -263 -60c-79 33 -133 110 -135 213c-1 120 81 250 248 250zM290 318c67 -2 137 39 167 122c-1 14 -1 27 -3 40
c-11 98 -60 168 -153 168c-98 0 -153 -74 -153 -164c-2 -97 58 -165 142 -166z" />
    <glyph glyph-name="zero.osf" horiz-adv-x="641" 
d="M320 -14c-191 0 -273 131 -273 264s82 264 273 264c192 0 274 -131 274 -264s-82 -264 -274 -264zM320 65c116 0 175 79 175 185s-59 185 -175 185c-115 0 -174 -79 -174 -185s59 -185 174 -185z" />
    <glyph glyph-name="one.osf" horiz-adv-x="300" 
d="M32 475l173 28v-88l-1 -415h-95v415h-77v60z" />
    <glyph glyph-name="two.osf" horiz-adv-x="494" 
d="M175 77h271v-77h-406v65l121 92c100 74 205 140 181 217c-22 76 -148 76 -274 20l-19 75c175 78 339 52 380 -52c41 -103 -67 -204 -157 -275l-73 -58z" />
    <glyph glyph-name="three.osf" horiz-adv-x="551" 
d="M35 -215l20 77c250 -54 337 35 349 121c11 83 -49 131 -157 131h-41v76h36c117 0 182 86 152 168c-32 88 -175 97 -316 34l-19 77c202 87 383 42 428 -72c41 -103 -19 -197 -101 -240c74 -20 124 -88 113 -182c-16 -138 -149 -258 -464 -190z" />
    <glyph glyph-name="four.osf" horiz-adv-x="577" 
d="M537 18v-77h-92v-161h-94v161h-299v77l207 482h96l-200 -477l-20 -5h216v179h95l-1 -179h92z" />
    <glyph glyph-name="five.osf" horiz-adv-x="587" 
d="M535 33c4 -147 -115 -265 -308 -268c-47 -1 -103 5 -160 20l20 76c51 -13 96 -17 137 -15c134 2 209 82 216 174c5 84 -49 158 -142 159c-54 1 -102 -21 -161 -69l-1 -1l-69 2l39 389h377v-77h-296l-22 -221c46 34 96 52 152 52c121 0 214 -88 218 -221z" />
    <glyph glyph-name="six.osf" horiz-adv-x="614" 
d="M559 251c3 -129 -80 -264 -245 -264c-277 0 -292 354 -199 556c81 185 254 218 399 156l-19 -77c-100 43 -214 38 -280 -76c-23 -41 -40 -94 -49 -149c83 101 225 104 309 38c55 -43 82 -115 84 -184zM308 66c98 0 153 86 153 181c-1 92 -52 160 -137 162
c-72 1 -134 -38 -167 -109c0 -18 1 -34 2 -50c10 -107 56 -184 149 -184z" />
    <glyph glyph-name="seven.osf" horiz-adv-x="557" 
d="M60 500h452v-77l-285 -643h-101l284 638l17 5h-367v77z" />
    <glyph glyph-name="eight.osf" horiz-adv-x="613" 
d="M406 388c73 -27 156 -84 156 -203c0 -112 -78 -199 -250 -199c-173 0 -262 87 -262 202c0 116 87 173 157 196c-63 26 -129 84 -129 174c0 95 75 176 231 176c155 0 221 -81 221 -171c0 -93 -63 -150 -124 -175zM172 551c0 -80 72 -111 135 -129c58 15 130 46 130 131
c0 56 -41 102 -130 102s-135 -46 -135 -104zM309 67c108 0 160 57 160 125c0 101 -83 140 -164 159c-73 -17 -161 -54 -161 -155c0 -72 56 -129 165 -129z" />
    <glyph glyph-name="nine.osf" horiz-adv-x="619" 
d="M305 514c277 0 292 -354 199 -556c-81 -185 -254 -218 -399 -156l19 77c100 -43 214 -38 280 76c23 41 40 94 49 149c-83 -101 -225 -104 -309 -38c-55 43 -82 115 -84 185c-3 128 80 263 245 263zM295 92c72 -1 134 38 167 110c0 17 -1 33 -2 49
c-10 107 -56 184 -149 184c-98 0 -153 -86 -153 -181c1 -92 52 -160 137 -162z" />
    <glyph glyph-name="fraction" unicode="&#x2044;" horiz-adv-x="527" 
d="M412 720h98l-397 -720h-97z" />
    <glyph glyph-name="onehalf" unicode="&#xbd;" horiz-adv-x="974" 
d="M37 653v48l123 19v-434h-73v367h-50zM574 720h98l-397 -720h-97zM728 64h199v-64h-289v57l162 173c41 44 65 86 41 121c-29 40 -97 40 -177 3l-16 60c88 41 199 44 250 -9c48 -51 35 -129 -29 -197l-128 -138z" />
    <glyph glyph-name="onequarter" unicode="&#xbc;" horiz-adv-x="900" 
d="M37 653v48l123 19v-434h-73v367h-50zM574 720h98l-397 -720h-97zM783 230h72v-230h-72v76h-210v63l136 295h76l-133 -291l-13 -4h144v91z" />
    <glyph glyph-name="threequarters" unicode="&#xbe;" horiz-adv-x="1021" 
d="M262 510c49 -16 75 -68 66 -123c-11 -113 -167 -144 -288 -75l19 60c84 -51 196 -42 198 37c3 48 -31 68 -86 68h-25v60h23c55 0 83 33 82 69c-1 59 -81 83 -181 33l-16 60c120 54 231 33 261 -37c25 -51 5 -128 -53 -152zM694 720h98l-397 -720h-97zM904 230h72v-230
h-72v76h-210v63l136 295h76l-133 -291l-13 -4h144v91z" />
    <glyph glyph-name="oneeighth" unicode="&#x215b;" horiz-adv-x="964" 
d="M37 653v48l123 19v-434h-73v367h-50zM574 720h98l-397 -720h-97zM840 235c44 -17 93 -51 93 -124c0 -70 -48 -121 -154 -121c-107 0 -161 51 -161 122c0 72 50 106 94 120c-39 16 -77 51 -77 106c0 59 45 106 142 106s137 -47 137 -103c0 -57 -37 -91 -74 -106zM703 328
c0 -43 41 -60 72 -68c30 7 70 23 70 69c0 30 -21 56 -69 56c-49 0 -73 -26 -73 -57zM777 50c58 0 85 32 85 67c0 55 -47 74 -88 85c-36 -9 -85 -28 -85 -83c0 -37 28 -69 88 -69z" />
    <glyph glyph-name="threeeighths" unicode="&#x215c;" horiz-adv-x="1084" 
d="M40 312l19 60c84 -51 196 -42 198 37c3 48 -31 68 -86 68h-25v60h23c55 0 83 33 82 69c-1 59 -81 83 -181 33l-16 60c120 54 231 33 261 -37c25 -51 5 -128 -53 -152c49 -16 75 -68 66 -123c-11 -113 -167 -144 -288 -75zM694 720h98l-397 -720h-97zM961 235
c44 -17 93 -51 93 -124c0 -70 -48 -121 -154 -121c-107 0 -161 51 -161 122c0 72 50 106 94 120c-39 16 -77 51 -77 106c0 59 45 106 142 106s137 -47 137 -103c0 -57 -37 -91 -74 -106zM824 328c0 -43 41 -60 72 -68c30 7 70 23 70 69c0 30 -21 56 -69 56
c-49 0 -73 -26 -73 -57zM898 50c58 0 85 32 85 67c0 55 -47 74 -88 85c-36 -9 -85 -28 -85 -83c0 -37 28 -69 88 -69z" />
    <glyph glyph-name="fiveeighths" unicode="&#x215d;" horiz-adv-x="1087" 
d="M343 433c0 -102 -78 -156 -171 -153c-41 1 -86 12 -127 34l17 60c35 -17 79 -30 110 -30c59 0 100 34 97 94c-4 79 -97 105 -165 38l-54 1l22 243h236v-63h-177l-11 -117c94 69 222 15 223 -107zM697 720h98l-397 -720h-97zM963 235c44 -17 93 -51 93 -124
c0 -70 -48 -121 -154 -121c-107 0 -161 51 -161 122c0 72 50 106 94 120c-39 16 -77 51 -77 106c0 59 45 106 142 106s137 -47 137 -103c0 -57 -37 -91 -74 -106zM826 328c0 -43 41 -60 72 -68c30 7 70 23 70 69c0 30 -21 56 -69 56c-49 0 -73 -26 -73 -57zM900 50
c58 0 85 32 85 67c0 55 -47 74 -88 85c-36 -9 -85 -28 -85 -83c0 -37 28 -69 88 -69z" />
    <glyph glyph-name="seveneighths" unicode="&#x215e;" horiz-adv-x="1000" 
d="M321 720v-63l-163 -371h-81l163 366l18 5h-221v63h284zM610 720h98l-397 -720h-97zM876 235c44 -17 93 -51 93 -124c0 -70 -48 -121 -154 -121c-107 0 -161 51 -161 122c0 72 50 106 94 120c-39 16 -77 51 -77 106c0 59 45 106 142 106s137 -47 137 -103
c0 -57 -37 -91 -74 -106zM739 328c0 -43 41 -60 72 -68c30 7 70 23 70 69c0 30 -21 56 -69 56c-49 0 -73 -26 -73 -57zM813 50c58 0 85 32 85 67c0 55 -47 74 -88 85c-36 -9 -85 -28 -85 -83c0 -37 28 -69 88 -69z" />
    <glyph glyph-name="zero.dnom" horiz-adv-x="450" 
d="M225 -10c-126 0 -178 99 -178 227s52 227 178 227s178 -99 178 -227s-52 -227 -178 -227zM225 56c70 0 104 57 104 161s-34 161 -104 161s-104 -57 -104 -161s34 -161 104 -161z" />
    <glyph glyph-name="one.dnom" horiz-adv-x="255" 
d="M37 415l123 19v-434h-73v367h-50v48z" />
    <glyph glyph-name="two.dnom" horiz-adv-x="376" 
d="M143 70l-14 -6h200v-64h-289v57l162 173c41 44 65 86 41 121c-29 40 -97 40 -177 3l-16 60c88 41 199 44 250 -9c48 -51 35 -129 -29 -197z" />
    <glyph glyph-name="three.dnom" horiz-adv-x="372" 
d="M40 20l19 60c84 -44 196 -35 198 44c3 48 -31 68 -86 68h-25v59h23c55 0 83 33 82 70c-1 59 -78 80 -181 39l-16 60c141 55 265 18 267 -83c5 -43 -13 -93 -59 -113c49 -15 75 -67 66 -122c-11 -113 -167 -144 -288 -82z" />
    <glyph glyph-name="four.dnom" horiz-adv-x="362" 
d="M245 230h72v-230h-72v76h-210v63l136 295h76l-133 -291l-13 -4h144v91z" />
    <glyph glyph-name="five.dnom" horiz-adv-x="390" 
d="M343 147c0 -102 -78 -156 -171 -153c-41 1 -86 12 -127 34l17 60c35 -17 79 -30 110 -30c59 0 100 34 97 94c-4 79 -97 105 -165 38l-54 1l22 243h236v-63h-177l-11 -117c94 69 222 15 223 -107z" />
    <glyph glyph-name="six.dnom" horiz-adv-x="385" 
d="M350 149c1 -79 -57 -159 -155 -159c-174 0 -186 201 -123 337c48 112 156 139 248 95l-17 -60c-59 30 -123 24 -160 -42c-10 -19 -19 -41 -25 -65c46 42 110 49 163 21c43 -24 69 -74 69 -127zM277 149c1 51 -30 92 -82 91c-31 0 -67 -17 -88 -59c-1 -9 -1 -18 0 -27
c2 -58 28 -99 85 -99c56 0 85 44 85 94z" />
    <glyph glyph-name="seven.dnom" horiz-adv-x="358" 
d="M37 434h284v-63l-163 -371h-81l163 366l18 5h-221v63z" />
    <glyph glyph-name="eight.dnom" horiz-adv-x="375" 
d="M252 235c44 -17 93 -51 93 -124c0 -70 -48 -121 -154 -121c-107 0 -161 51 -161 122c0 72 50 106 94 120c-39 16 -77 51 -77 106c0 59 45 106 142 106s137 -47 137 -103c0 -57 -37 -91 -74 -106zM115 328c0 -43 41 -60 72 -68c30 7 70 23 70 69c0 30 -21 56 -69 56
c-49 0 -73 -26 -73 -57zM189 50c58 0 85 32 85 67c0 55 -47 74 -88 85c-36 -9 -85 -28 -85 -83c0 -37 28 -69 88 -69z" />
    <glyph glyph-name="nine.dnom" horiz-adv-x="385" 
d="M190 444c174 0 186 -202 124 -338c-49 -112 -156 -138 -249 -94l17 60c59 -31 124 -24 160 41c11 19 19 42 25 65c-45 -42 -110 -49 -163 -20c-43 24 -69 73 -69 126c-1 79 57 160 155 160zM190 193c32 0 67 17 89 59v27c-3 59 -28 100 -86 100c-56 0 -84 -44 -85 -95
c0 -51 31 -92 82 -91z" />
    <glyph glyph-name="zero.numr" horiz-adv-x="450" 
d="M225 276c-126 0 -178 100 -178 227s52 227 178 227s178 -100 178 -227s-52 -227 -178 -227zM225 342c70 0 104 57 104 161s-34 161 -104 161s-104 -57 -104 -161s34 -161 104 -161z" />
    <glyph glyph-name="one.numr" horiz-adv-x="255" 
d="M37 701l123 19v-434h-73v367h-50v48z" />
    <glyph glyph-name="two.numr" horiz-adv-x="376" 
d="M143 356l-14 -6h200v-64h-289v57l162 173c41 44 65 87 40 121c-28 40 -96 41 -176 4l-16 60c88 40 199 43 250 -10c48 -51 36 -129 -29 -197z" />
    <glyph glyph-name="three.numr" horiz-adv-x="372" 
d="M40 312l19 60c84 -51 196 -42 198 37c3 48 -31 68 -86 68h-25v60h23c55 0 83 33 82 69c-1 59 -81 83 -181 33l-16 60c120 54 231 33 261 -37c25 -51 5 -128 -53 -152c49 -16 75 -68 66 -123c-11 -113 -167 -144 -288 -75z" />
    <glyph glyph-name="four.numr" horiz-adv-x="362" 
d="M245 516h72v-230h-72v76h-210v63l136 295h76l-133 -291l-13 -4h144v91z" />
    <glyph glyph-name="five.numr" horiz-adv-x="390" 
d="M343 433c0 -102 -78 -156 -171 -153c-41 1 -86 12 -127 34l17 60c35 -17 79 -30 110 -30c59 0 100 34 97 94c-4 79 -97 105 -165 38l-54 1l22 243h236v-63h-177l-11 -117c94 69 222 15 223 -107z" />
    <glyph glyph-name="six.numr" horiz-adv-x="385" 
d="M350 435c1 -78 -57 -159 -155 -159c-174 0 -186 201 -123 337c48 112 156 139 248 95l-17 -60c-59 31 -123 24 -160 -41c-10 -19 -19 -42 -25 -66c46 42 110 50 163 21c43 -24 69 -73 69 -127zM277 435c1 52 -30 93 -82 92c-31 0 -67 -18 -88 -59c-1 -10 -1 -19 0 -28
c2 -58 28 -99 85 -99c56 0 85 44 85 94z" />
    <glyph glyph-name="seven.numr" horiz-adv-x="358" 
d="M37 720h284v-63l-163 -371h-81l163 366l18 5h-221v63z" />
    <glyph glyph-name="eight.numr" horiz-adv-x="375" 
d="M252 520c44 -17 93 -51 93 -124c0 -69 -48 -120 -154 -120c-107 0 -161 51 -161 122s50 106 94 120c-39 16 -77 51 -77 105c0 60 45 107 142 107s137 -47 137 -104c0 -56 -37 -91 -74 -106zM115 614c0 -43 41 -60 72 -68c30 7 70 23 70 68c0 30 -21 56 -69 56
c-49 0 -73 -26 -73 -56zM189 335c58 0 85 32 85 68c0 55 -47 74 -88 85c-36 -9 -85 -29 -85 -83c0 -38 28 -70 88 -70z" />
    <glyph glyph-name="nine.numr" horiz-adv-x="385" 
d="M190 730c174 0 186 -201 124 -337c-49 -113 -156 -139 -249 -95l17 60c59 -31 124 -24 160 41c11 19 19 42 25 65c-45 -41 -110 -49 -163 -20c-43 24 -69 73 -69 127c-1 78 57 159 155 159zM190 479c32 0 67 17 89 59v27c-3 59 -28 100 -86 100c-56 0 -84 -44 -85 -95
c0 -51 31 -92 82 -91z" />
    <glyph glyph-name="uni00B9" unicode="&#xb9;" horiz-adv-x="255" 
d="M37 701l123 19v-434h-73v367h-50v48z" />
    <glyph glyph-name="uni00B2" unicode="&#xb2;" horiz-adv-x="376" 
d="M143 356l-14 -6h200v-64h-289v57l162 173c41 44 65 87 40 121c-28 40 -96 41 -176 4l-16 60c88 40 199 43 250 -10c48 -51 36 -129 -29 -197z" />
    <glyph glyph-name="uni00B3" unicode="&#xb3;" horiz-adv-x="372" 
d="M40 312l19 60c84 -51 196 -42 198 37c3 48 -31 68 -86 68h-25v60h23c55 0 83 33 82 69c-1 59 -81 83 -181 33l-16 60c120 54 231 33 261 -37c25 -51 5 -128 -53 -152c49 -16 75 -68 66 -123c-11 -113 -167 -144 -288 -75z" />
    <glyph glyph-name="asterisk" unicode="*" horiz-adv-x="332" 
d="M282 648l-75 -37l75 -39l-26 -42l-69 44l6 -82h-53l5 83l-69 -45l-26 42l75 39l-75 37l26 42l69 -44l-5 81h53l-6 -80l69 43z" />
    <glyph glyph-name="backslash" unicode="\" horiz-adv-x="411" 
d="M115 720l276 -720h-94l-277 720h95z" />
    <glyph glyph-name="periodcentered" unicode="&#xb7;" horiz-adv-x="281" 
d="M211 267l-88 -53l-53 90l90 53z" />
    <glyph glyph-name="bullet" unicode="&#x2022;" horiz-adv-x="394" 
d="M324 252l-159 -94l-95 162l163 94z" />
    <glyph glyph-name="colon" unicode=":" horiz-adv-x="274" 
d="M208 416l-88 -54l-54 90l91 53zM208 46l-88 -53l-54 89l91 54z" />
    <glyph glyph-name="comma" unicode="," horiz-adv-x="255" 
d="M64 -135l31 -35c79 73 131 176 58 299l-81 -49c46 -73 41 -145 -8 -215z" />
    <glyph glyph-name="ellipsis" unicode="&#x2026;" horiz-adv-x="827" 
d="M207 46l-88 -53l-53 90l91 52zM484 46l-88 -53l-53 90l91 52zM761 46l-89 -53l-52 90l90 52z" />
    <glyph glyph-name="exclam" unicode="!" horiz-adv-x="290" 
d="M107 215l-9 505h96l-10 -505h-77zM211 44l-82 -50l-50 83l84 50z" />
    <glyph glyph-name="exclamdown" unicode="&#xa1;" horiz-adv-x="290" 
d="M211 456l-48 -83l-84 50l50 83zM107 285h77l10 -505h-96z" />
    <glyph glyph-name="numbersign" unicode="#" horiz-adv-x="823" 
d="M768 437h-152l-44 -155h134v-74h-155l-58 -208h-92l58 208h-178l-59 -208h-92l58 208h-138v74h159l44 155h-139v74h159l59 209h93l-59 -209h178l59 209h92l-58 -209h131v-74zM480 282l43 155h-178l-44 -155h179z" />
    <glyph glyph-name="period" unicode="." horiz-adv-x="273" 
d="M207 43l-88 -53l-53 89l91 53z" />
    <glyph glyph-name="question" unicode="?" horiz-adv-x="522" 
d="M191 211c-2 85 40 140 90 188c45 43 96 90 86 159c-14 101 -147 122 -286 54l-19 75c165 81 381 60 408 -108c15 -89 -37 -147 -92 -201c-54 -54 -97 -94 -97 -167h-90zM221 -7l-51 84l86 51l48 -85z" />
    <glyph glyph-name="questiondown" unicode="&#xbf;" horiz-adv-x="515" 
d="M266 373l-48 84l84 51l50 -85zM460 -186c-165 -82 -381 -60 -408 107c-14 89 37 147 92 202c54 53 98 93 98 166h89c2 -85 -40 -139 -90 -188c-45 -43 -96 -90 -86 -158c15 -101 147 -123 286 -55z" />
    <glyph glyph-name="quotedbl" unicode="&#x22;" horiz-adv-x="420" 
d="M71 454l-7 266h95l-8 -266h-80zM269 454l-8 266h95l-7 -266h-80z" />
    <glyph glyph-name="quotesingle" unicode="'" horiz-adv-x="222" 
d="M71 454l-7 266h95l-8 -266h-80z" />
    <glyph glyph-name="semicolon" unicode=";" horiz-adv-x="276" 
d="M121 363l-53 89l91 54l51 -90zM111 -170l-31 35c49 70 54 142 7 215l84 49c73 -123 19 -226 -60 -299z" />
    <glyph glyph-name="slash" unicode="/" horiz-adv-x="412" 
d="M296 720h95l-277 -720h-94z" />
    <glyph glyph-name="underscore" unicode="_" horiz-adv-x="626" 
d="M554 -14v-74h-481v74h481z" />
    <glyph glyph-name="braceleft" unicode="{" horiz-adv-x="364" 
d="M295 -175c-65 16 -162 60 -162 212v107c1 50 3 153 -79 153v79c82 0 79 103 79 153v106c0 153 97 197 162 212l29 -73c-53 -18 -93 -48 -93 -157v-91c1 -70 2 -145 -74 -190c76 -50 75 -120 74 -190v-90c0 -109 40 -139 93 -157z" />
    <glyph glyph-name="braceright" unicode="}" horiz-adv-x="364" 
d="M70 -175l-30 74c53 18 93 45 93 157v90c-1 70 -2 140 75 190c-77 45 -75 120 -75 190v91c0 109 -40 139 -93 157l30 73c64 -15 162 -59 162 -212v-106c-1 -50 -4 -153 79 -153v-79c-83 0 -81 -103 -79 -153v-107c0 -152 -98 -196 -162 -212z" />
    <glyph glyph-name="bracketleft" unicode="[" horiz-adv-x="370" 
d="M329 766h-142l-1 -852h143v-74h-239l1 1000h238v-74z" />
    <glyph glyph-name="bracketright" unicode="]" horiz-adv-x="370" 
d="M280 840v-1000h-239v74h143l-1 852h-142v74h239z" />
    <glyph glyph-name="parenleft" unicode="(" horiz-adv-x="369" 
d="M255 834h99c-225 -329 -227 -669 0 -1000h-99c-233 328 -234 669 0 1000z" />
    <glyph glyph-name="parenright" unicode=")" horiz-adv-x="369" 
d="M15 834h99c234 -331 233 -672 0 -1000h-99c227 331 225 671 0 1000z" />
    <glyph glyph-name="emdash" unicode="&#x2014;" horiz-adv-x="923" 
d="M843 287v-74h-763v74h763z" />
    <glyph glyph-name="endash" unicode="&#x2013;" horiz-adv-x="587" 
d="M507 287v-74h-427v74h427z" />
    <glyph glyph-name="hyphen" unicode="-" horiz-adv-x="433" 
d="M353 287v-74h-273v74h273z" />
    <glyph glyph-name="uni00AD" unicode="&#xad;" horiz-adv-x="426" 
d="M353 287v-74h-273v74h273z" />
    <glyph glyph-name="guillemotleft" unicode="&#xab;" horiz-adv-x="505" 
d="M55 310l176 127v-87l-124 -81l124 -82v-87l-176 127v83zM445 437v-87l-123 -81l123 -82v-87l-175 127v83z" />
    <glyph glyph-name="guillemotright" unicode="&#xbb;" horiz-adv-x="507" 
d="M60 351v84l176 -129v-78l-176 -129v85l122 83zM276 435l176 -129v-78l-176 -129v85l122 83l-122 84v84z" />
    <glyph glyph-name="guilsinglleft" unicode="&#x2039;" horiz-adv-x="291" 
d="M231 437v-87l-124 -81l124 -82v-87l-176 127v83z" />
    <glyph glyph-name="guilsinglright" unicode="&#x203a;" horiz-adv-x="284" 
d="M57 437l175 -127v-83l-175 -127v87l123 82l-123 81v87z" />
    <glyph glyph-name="quotedblbase" unicode="&#x201e;" horiz-adv-x="447" 
d="M262 -168l-25 37c73 55 65 155 22 217l81 51c78 -122 26 -243 -78 -305zM83 -168l-25 37c73 55 67 147 23 214l81 51c78 -127 25 -240 -79 -302z" />
    <glyph glyph-name="quotedblleft" unicode="&#x201c;" horiz-adv-x="424" 
d="M90 436c-78 123 -26 240 78 302l25 -37c-73 -55 -66 -151 -23 -214zM268 440c-79 126 -25 236 79 298l25 -37c-73 -55 -68 -144 -24 -210z" />
    <glyph glyph-name="quotedblright" unicode="&#x201d;" horiz-adv-x="424" 
d="M256 436l-25 37c73 55 65 151 23 214l80 51c78 -123 26 -240 -78 -302zM77 436l-25 37c73 55 67 144 23 210l81 51c79 -126 25 -236 -79 -298z" />
    <glyph glyph-name="quoteleft" unicode="&#x2018;" horiz-adv-x="246" 
d="M90 440c-78 126 -25 236 79 298l25 -37c-73 -55 -67 -144 -23 -210z" />
    <glyph glyph-name="quoteright" unicode="&#x2019;" horiz-adv-x="245" 
d="M77 440l-25 37c73 55 67 144 23 210l81 51c76 -121 25 -235 -79 -298z" />
    <glyph glyph-name="quotesinglbase" unicode="&#x201a;" horiz-adv-x="266" 
d="M83 -168l-25 37c73 55 66 147 21 214l83 51c78 -127 25 -240 -79 -302z" />
    <glyph glyph-name="uni2034" unicode="&#x2034;" horiz-adv-x="694" 
d="M60 475l85 245h98l-102 -245h-81zM257 475l85 245h98l-100 -245h-83zM454 475l85 245h98l-101 -245h-82z" />
    <glyph glyph-name="cent" unicode="&#xa2;" horiz-adv-x="515" 
d="M468 42c-42 -27 -88 -46 -140 -53v-103h-88v105c-118 21 -193 117 -193 260s75 238 189 259l1 104h88v-102c47 -7 92 -26 132 -52l-17 -67c-43 24 -98 45 -149 42c-94 -4 -147 -73 -147 -184c0 -113 54 -182 151 -185c56 -3 113 19 157 44z" />
    <glyph glyph-name="currency" unicode="&#xa4;" horiz-adv-x="704" 
d="M602 340c0 -55 -18 -105 -48 -146l75 -74l-61 -58l-72 76c-41 -29 -92 -46 -147 -46c-54 0 -103 16 -144 43l-69 -73l-61 58l71 70c-32 42 -50 94 -50 150s19 108 51 150l-72 75l63 56l68 -76c41 26 90 42 143 42c55 0 105 -17 146 -45l71 79l63 -56l-76 -79
c31 -41 49 -91 49 -146zM349 171c90 0 156 73 156 169s-66 168 -156 168c-91 0 -156 -72 -156 -168c0 -97 65 -169 156 -169z" />
    <glyph glyph-name="dollar" unicode="$" horiz-adv-x="615" 
d="M364 400c119 -53 207 -107 202 -218c-5 -100 -80 -174 -203 -192v-107h-92v105c-63 4 -136 20 -208 53l22 85c64 -27 136 -47 198 -49c115 -4 178 45 180 108c3 74 -83 101 -187 148c-120 54 -212 102 -212 212c0 112 86 171 200 185v107h93l-1 -104
c54 -4 115 -17 176 -46l-21 -80c-79 34 -150 44 -197 42c-76 -3 -146 -32 -147 -102c-1 -74 105 -105 197 -147z" />
    <glyph glyph-name="Euro" unicode="&#x20ac;" horiz-adv-x="719" 
d="M647 129l19 -77c-77 -48 -144 -66 -209 -66c-158 0 -277 93 -319 246h-118l14 76h91c-2 17 -3 35 -3 53c0 25 2 48 5 71h-107l14 75h110c45 141 158 227 299 227c64 0 134 -18 212 -65l-19 -78c-69 40 -132 58 -185 58c-89 0 -161 -51 -198 -142h207l-13 -75h-215
c-3 -22 -5 -46 -5 -71c0 -18 1 -36 3 -53h220l-13 -76h-191c35 -102 113 -161 216 -161c56 0 115 18 185 58z" />
    <glyph glyph-name="florin" unicode="&#x192;" horiz-adv-x="538" 
d="M499 642c-106 43 -140 -8 -148 -71l-16 -117h106v-74h-115l-53 -399c-17 -140 -112 -202 -263 -144l18 74c106 -43 141 8 148 70l53 399h-76v74h86l15 113c17 140 111 203 263 145z" />
    <glyph glyph-name="sterling" unicode="&#xa3;" horiz-adv-x="582" 
d="M75 -1l-20 76c75 53 115 116 105 204h-98v74h74c-6 13 -12 26 -19 40c-41 82 -89 182 -15 271c87 99 254 79 391 20l-20 -80c-132 59 -248 65 -295 -6c-40 -55 -3 -125 33 -193c9 -17 17 -35 25 -52h150v-74h-136c6 -64 -15 -129 -58 -180c109 12 179 -72 321 -2l19 -76
c-210 -103 -281 60 -457 -22z" />
    <glyph glyph-name="yen" unicode="&#xa5;" horiz-adv-x="672" 
d="M631 720l-177 -310h84v-76h-127l-16 -27v-42h132v-76h-132v-189h-101v189h-130v76h130v37l-19 32h-122v76h76l-188 310h112l188 -318l5 -22l5 22l176 318h104z" />
    <glyph glyph-name="approxequal" unicode="&#x2248;" horiz-adv-x="510" 
d="M263 429c-78 36 -160 66 -203 -46l36 -28c39 60 94 25 150 -1c80 -38 161 -67 204 45l-36 29c-37 -63 -92 -26 -151 1zM263 284c-78 37 -160 67 -203 -45l36 -29c39 60 94 25 150 -1c80 -38 161 -66 204 46l-36 28c-37 -63 -92 -26 -151 1z" />
    <glyph glyph-name="asciitilde" unicode="~" horiz-adv-x="510" 
d="M263 344c-78 37 -160 67 -203 -46l36 -28c39 60 94 25 150 -1c80 -38 161 -67 204 45l-36 29c-37 -63 -92 -26 -151 1z" />
    <glyph glyph-name="divide" unicode="&#xf7;" horiz-adv-x="499" 
d="M204 503h94v-94h-94v94zM439 353v-72h-379v72h379zM204 224h94v-93h-94v93z" />
    <glyph glyph-name="emptyset" unicode="&#x2205;" horiz-adv-x="716" 
d="M590 470c41 -51 66 -116 66 -186c0 -165 -134 -298 -298 -298c-73 0 -139 26 -191 70l-63 -62l-41 42l63 62c-41 51 -66 116 -66 186c0 164 134 297 298 297c73 0 139 -26 191 -69l63 62l41 -43zM142 284c0 -49 15 -94 40 -131l312 306c-37 32 -84 51 -136 51
c-117 0 -216 -100 -216 -226zM358 57c117 0 215 101 215 227c0 49 -14 94 -39 131l-313 -306c38 -33 86 -52 137 -52z" />
    <glyph glyph-name="equal" unicode="=" horiz-adv-x="516" 
d="M456 426v-73h-396v73h396zM456 285v-72h-396v72h396z" />
    <glyph glyph-name="greater" unicode="&#x3e;" horiz-adv-x="580" 
d="M90 537l420 -169v-81l-420 -165v84l312 118l27 5l-27 4l-312 120v84z" />
    <glyph glyph-name="greaterequal" unicode="&#x2265;" horiz-adv-x="595" 
d="M90 566l420 -158v-79l-420 -153v81l305 108l36 5l-36 4l-305 111v81zM90 66v71h417v-71h-417z" />
    <glyph glyph-name="infinity" unicode="&#x221e;" horiz-adv-x="852" 
d="M620 500c106 1 172 -77 172 -172c0 -94 -66 -171 -172 -170c-81 1 -143 63 -194 121c-52 -58 -113 -120 -195 -121c-106 -1 -171 76 -171 170c0 96 65 173 171 172c82 -1 143 -64 195 -121c51 57 113 120 194 121zM237 228c54 1 103 52 143 101c-40 50 -89 100 -143 101
c-60 0 -96 -42 -96 -102c0 -58 37 -101 96 -100zM614 229c58 0 95 42 95 99c0 59 -37 101 -95 100c-53 0 -104 -49 -143 -99c39 -50 90 -99 143 -100z" />
    <glyph glyph-name="integral" unicode="&#x222b;" horiz-adv-x="390" 
d="M122 -13c-37 -1 -72 8 -102 24l18 71c73 -36 109 2 109 63v467c0 110 41 166 120 170c36 3 72 -6 103 -22l-18 -72c-73 36 -109 -2 -109 -62v-468c0 -110 -42 -166 -121 -171z" />
    <glyph glyph-name="less" unicode="&#x3c;" horiz-adv-x="580" 
d="M490 453l-312 -120l-28 -4l28 -5l312 -118v-84l-420 165v81l420 169v-84z" />
    <glyph glyph-name="lessequal" unicode="&#x2264;" horiz-adv-x="595" 
d="M505 485l-306 -111l-35 -4l35 -5l306 -108v-81l-420 153v79l420 158v-81zM88 66v71h417v-71h-417z" />
    <glyph glyph-name="logicalnot" unicode="&#xac;" horiz-adv-x="572" 
d="M75 391h417v-72h-1v-133h-91v133h-325v72z" />
    <glyph glyph-name="minus" unicode="&#x2212;" horiz-adv-x="511" 
d="M438 347v-72h-365v72h365z" />
    <glyph glyph-name="multiply" unicode="&#xd7;" horiz-adv-x="501" 
d="M441 182l-53 -52l-138 136l-138 -136l-52 53l137 135l-134 134l52 52l135 -134l136 135l52 -53l-135 -134z" />
    <glyph glyph-name="notequal" unicode="&#x2260;" horiz-adv-x="523" 
d="M463 354h-145l-39 -72h184v-73h-222l-62 -115h-73l61 115h-107v73h146l38 72h-184v73h223l60 113h74l-60 -113h106v-73z" />
    <glyph glyph-name="partialdiff" unicode="&#x2202;" horiz-adv-x="645" 
d="M197 720c250 70 395 -119 388 -354c-6 -200 -102 -405 -334 -375c-183 23 -226 199 -177 332c42 116 148 183 262 155c61 -14 118 -54 151 -120c3 55 -3 111 -18 157c-40 126 -150 160 -253 127zM274 67c77 -8 132 31 167 104c14 26 24 55 32 88c-14 70 -55 114 -101 135
c-89 42 -174 -5 -206 -102c-33 -100 -5 -213 108 -225z" />
    <glyph glyph-name="percent" unicode="%" horiz-adv-x="1026" 
d="M231 353c-108 0 -181 81 -181 190s73 191 181 191c109 0 182 -82 182 -191s-73 -190 -182 -190zM263 0l399 720h102l-400 -720h-101zM231 421c57 0 100 42 100 122c0 81 -43 123 -100 123s-99 -42 -99 -123c0 -80 42 -122 99 -122zM794 -14c-108 0 -181 82 -181 191
s73 190 181 190c109 0 182 -81 182 -190s-73 -191 -182 -191zM794 54c58 0 100 42 100 123c0 80 -42 122 -100 122c-57 0 -99 -42 -99 -122c0 -81 42 -123 99 -123z" />
    <glyph glyph-name="perthousand" unicode="&#x2030;" horiz-adv-x="1469" 
d="M231 353c-108 0 -181 81 -181 190s73 191 181 191c109 0 182 -82 182 -191s-73 -190 -182 -190zM263 0l399 720h102l-400 -720h-101zM231 421c57 0 100 42 100 122c0 81 -43 123 -100 123s-99 -42 -99 -123c0 -80 42 -122 99 -122zM794 -14c-108 0 -181 82 -181 191
s73 190 181 190c109 0 182 -81 182 -190s-73 -191 -182 -191zM1238 -14c-109 0 -182 82 -182 191s73 190 182 190c108 0 181 -81 181 -190s-73 -191 -181 -191zM794 54c58 0 100 42 100 123c0 80 -42 122 -100 122c-57 0 -99 -42 -99 -122c0 -81 42 -123 99 -123zM1238 54
c57 0 99 42 99 123c0 80 -42 122 -99 122s-100 -42 -100 -122c0 -81 43 -123 100 -123z" />
    <glyph glyph-name="plus" unicode="+" horiz-adv-x="543" 
d="M483 357v-72h-170v-165h-87v165h-166v72h166v166h87v-166h170z" />
    <glyph glyph-name="plusminus" unicode="&#xb1;" horiz-adv-x="543" 
d="M226 218v126h-162v73h162v130h87v-130h166v-73h-166v-126h-87zM60 148h423v-72h-423v72z" />
    <glyph glyph-name="product" unicode="&#x220f;" horiz-adv-x="670" 
d="M588 720l-1 -940h-96v865h-312l-1 -865h-96l1 940h505z" />
    <glyph glyph-name="radical" unicode="&#x221a;" horiz-adv-x="726" 
d="M571 720h95l-297 -920h-94l-141 345l-84 26v45h151l115 -299l4 -29l5 29z" />
    <glyph glyph-name="summation" unicode="&#x2211;" horiz-adv-x="647" 
d="M160 -145h447v-75h-557v70l263 398l-250 467v65h513v-75h-403l245 -457z" />
    <glyph glyph-name="lozenge" unicode="&#x25ca;" horiz-adv-x="515" 
d="M212 -4l-175 364l175 364h91l175 -364l-175 -364h-91zM250 106h15l119 254l-119 254h-15l-118 -254z" />
    <glyph glyph-name="bar" unicode="|" horiz-adv-x="257" 
d="M80 -220l1 1000h96l-1 -1000h-96z" />
    <glyph glyph-name="brokenbar" unicode="&#xa6;" horiz-adv-x="257" 
d="M80 376l1 404h96l-1 -404h-96zM80 -220l1 404h96l-1 -404h-96z" />
    <glyph glyph-name="at" unicode="@" horiz-adv-x="944" 
d="M469 -127c-247 3 -409 160 -409 387c0 241 187 419 435 419c227 0 418 -146 385 -389c-17 -133 -100 -214 -180 -226c-57 -11 -112 4 -137 43c-54 -41 -113 -69 -178 -59c-121 21 -128 169 -68 230c44 52 140 57 259 21l9 34c25 95 -74 108 -209 73v65
c172 46 330 21 290 -136l-34 -132c-15 -58 11 -78 48 -71c43 7 94 54 108 163c24 196 -116 302 -292 302c-200 0 -341 -141 -341 -334c0 -180 113 -308 315 -312c79 -1 151 19 235 56l23 -74c-87 -41 -172 -62 -259 -60zM416 115c45 -11 95 17 130 43c0 10 1 22 5 36l12 49
c-96 31 -153 20 -178 -11c-27 -31 -27 -102 31 -117z" />
    <glyph glyph-name="ampersand" unicode="&#x26;" horiz-adv-x="703" 
d="M276 -14c-114 1 -213 53 -233 161c-20 107 39 197 136 225c-96 30 -144 144 -115 234c38 119 195 158 356 97l-20 -77c-119 46 -246 26 -250 -80c-3 -81 56 -139 166 -139h123v96h93v-96h99v-74h-99v-174c0 -86 57 -106 135 -83l17 -68c-83 -35 -185 -21 -221 56
c-46 -57 -119 -78 -187 -78zM281 67c60 0 149 24 161 133v133h-126c-124 0 -197 -69 -181 -168c12 -67 69 -97 146 -98z" />
    <glyph glyph-name="paragraph" unicode="&#xb6;" horiz-adv-x="624" 
d="M370 720v-880h-97v471h-14c-115 0 -199 81 -199 206s84 203 199 203h111zM457 720h97v-880h-97v880z" />
    <glyph glyph-name="copyright" unicode="&#xa9;" horiz-adv-x="910" 
d="M456 -34c-223 0 -396 172 -396 395c0 222 172 393 396 393c222 0 394 -171 394 -393c0 -223 -170 -395 -394 -395zM456 26c186 0 326 143 326 335c0 190 -142 333 -326 333c-186 0 -327 -143 -327 -333s141 -335 327 -335zM457 133c-124 0 -210 94 -210 227
s87 225 203 226c56 1 107 -19 148 -46l-16 -60c-40 24 -81 37 -123 36c-73 -3 -128 -59 -128 -156s56 -152 130 -156c48 -2 90 15 132 36l16 -60c-49 -30 -99 -47 -152 -47z" />
    <glyph glyph-name="registered" unicode="&#xae;" horiz-adv-x="910" 
d="M456 -34c-223 0 -396 172 -396 395c0 222 172 393 396 393c222 0 394 -171 394 -393c0 -223 -170 -395 -394 -395zM456 26c186 0 326 143 326 335c0 190 -142 333 -326 333c-186 0 -327 -143 -327 -333s141 -335 327 -335zM318 140v384l-52 13v40h218
c79 0 138 -48 139 -130c0 -59 -34 -102 -83 -119l97 -188h-83l-83 173h-80v-173h-73zM391 372h72c55 0 80 29 80 76s-31 66 -80 66h-72v-142z" />
    <glyph glyph-name="section" unicode="&#xa7;" horiz-adv-x="543" 
d="M487 290c-1 -54 -26 -95 -70 -123c42 -28 70 -66 68 -124c-3 -105 -106 -148 -215 -148c-63 0 -129 14 -178 39l22 75c47 -22 103 -33 153 -33c68 0 124 22 125 70c3 58 -80 86 -147 111c-96 36 -188 75 -188 177c0 54 26 97 70 124c-42 29 -70 67 -69 122
c1 106 107 152 217 152c62 0 126 -13 175 -39l-21 -73c-46 22 -100 33 -147 33c-69 0 -129 -21 -129 -72c0 -62 89 -90 156 -115c93 -35 180 -74 178 -176zM285 228l61 -24c33 15 52 42 51 75c-1 69 -87 98 -155 125l-46 18c-32 -15 -49 -40 -48 -75c1 -66 71 -94 137 -119z
" />
    <glyph glyph-name="trademark" unicode="&#x2122;" horiz-adv-x="1064" 
d="M412 725v-66h-140v-370h-86v370h-141v66h367zM892 725h82v-432h-85v310l-6 -19l-113 -161h-38l-122 166l-5 17v-313h-85v368l-54 18v46h135l145 -206l5 -16l5 16z" />
    <glyph glyph-name="degree" unicode="&#xb0;" horiz-adv-x="399" 
d="M200 443c-82 0 -150 61 -150 146s68 147 150 147c81 0 149 -62 149 -147s-68 -146 -149 -146zM200 509c42 0 73 35 73 80s-31 81 -73 81c-43 0 -74 -36 -74 -81s31 -80 74 -80z" />
    <glyph glyph-name="asciicircum" unicode="^" horiz-adv-x="553" 
d="M315 720l183 -348h-87l-130 258l-4 21l-4 -21l-130 -258h-88l184 348h76z" />
    <glyph glyph-name="dagger" unicode="&#x2020;" horiz-adv-x="537" 
d="M467 500v-83l-150 4v-641h-97v641l-150 -4v83l150 -5v225h97v-225z" />
    <glyph glyph-name="daggerdbl" unicode="&#x2021;" horiz-adv-x="537" 
d="M467 417l-150 4v-267l150 5v-83l-150 4v-300h-97v300l-150 -4v83l150 -5v267l-150 -4v83l150 -5v225h97v-225l150 5v-83z" />
    <glyph glyph-name="minute" unicode="&#x2032;" horiz-adv-x="303" 
d="M60 475l85 245h98l-102 -245h-81z" />
    <glyph glyph-name="second" unicode="&#x2033;" horiz-adv-x="500" 
d="M60 475l85 245h98l-102 -245h-81zM257 475l85 245h98l-100 -245h-83z" />
    <glyph glyph-name="acute" unicode="&#xb4;" horiz-adv-x="290" 
d="M50 592l81 159h109l-107 -159h-83z" />
    <glyph glyph-name="breve" unicode="&#x2d8;" horiz-adv-x="414" 
d="M51 749h82c-4 -64 23 -99 74 -99s78 35 74 99h82c7 -110 -63 -169 -156 -169s-163 59 -156 169z" />
    <glyph glyph-name="caron" unicode="&#x2c7;" horiz-adv-x="421" 
d="M264 751h107l-114 -159h-94l-113 159h107l46 -87l7 -24l7 24z" />
    <glyph glyph-name="cedilla" unicode="&#xb8;" horiz-adv-x="322" 
d="M125 4h73l-29 -65c55 7 114 -27 107 -92c-12 -92 -140 -114 -226 -53l16 57c67 -41 123 -34 129 1c6 38 -32 52 -93 45l-16 14z" />
    <glyph glyph-name="circumflex" unicode="&#x2c6;" horiz-adv-x="421" 
d="M257 751l114 -159h-107l-47 87l-7 24l-7 -24l-46 -87h-107l113 159h94z" />
    <glyph glyph-name="dieresis" unicode="&#xa8;" horiz-adv-x="421" 
d="M183 658l-83 -51l-50 85l85 50zM374 658l-83 -51l-50 85l85 50z" />
    <glyph glyph-name="dotaccent" unicode="&#x2d9;" horiz-adv-x="233" 
d="M201 658l-83 -51l-50 85l85 50z" />
    <glyph glyph-name="grave" unicode="`" horiz-adv-x="290" 
d="M240 591h-83l-107 159h109z" />
    <glyph glyph-name="hungarumlaut" unicode="&#x2dd;" horiz-adv-x="488" 
d="M50 591l81 159h109l-107 -159h-83zM248 591l81 159h109l-107 -159h-83z" />
    <glyph glyph-name="macron" unicode="&#xaf;" horiz-adv-x="385" 
d="M335 709v-80h-285v80h285z" />
    <glyph glyph-name="ogonek" unicode="&#x2db;" horiz-adv-x="337" 
d="M238 2c-65 -29 -116 -87 -103 -133c13 -47 78 -45 127 -10l17 -59c-75 -62 -206 -46 -227 53c-12 61 42 119 98 149h88z" />
    <glyph glyph-name="ring" unicode="&#x2da;" horiz-adv-x="289" 
d="M145 779c60 0 105 -45 105 -104s-45 -103 -105 -103c-61 0 -106 44 -106 103s45 104 106 104zM145 725c-26 0 -45 -19 -45 -50s19 -49 45 -49c25 0 44 18 44 49s-19 50 -44 50z" />
    <glyph glyph-name="tilde" unicode="&#x2dc;" horiz-adv-x="401" 
d="M50 612c-21 76 26 146 138 103c43 -16 105 -49 100 16h63c21 -77 -26 -146 -138 -104c-42 16 -105 49 -100 -15h-63z" />
    </font>
</defs>
</svg>
