<?xml version="1.0" standalone="no"?>
<!DOCTYPE svg PUBLIC "-//W3C//DTD SVG 1.1//EN" "http://www.w3.org/Graphics/SVG/1.1/DTD/svg11.dtd" >
<svg xmlns="http://www.w3.org/2000/svg" xmlns:xlink="http://www.w3.org/1999/xlink" version="1.1">
<metadata>
Created by FontForge 20150715 at Mon Feb  8 12:28:32 2016
 By Jimmy Wärting
Copyright (c) 2015 by Rebecca Hurst. All rights reserved.
</metadata>
<defs>
<font id="Jotia-Thin" horiz-adv-x="603" >
  <font-face 
    font-family="Jotia Thin"
    font-weight="250"
    font-stretch="normal"
    units-per-em="1000"
    panose-1="0 0 3 0 0 0 0 0 0 0"
    ascent="780"
    descent="-220"
    x-height="500"
    cap-height="720"
    bbox="-30 -267 1353 1021"
    underline-thickness="50"
    underline-position="-100"
    unicode-range="U+0020-FB02"
  />
<missing-glyph horiz-adv-x="650" 
d="M100 0v720h450v-720h-450zM323 395l157 285h-315zM510 63v594l-164 -298zM140 73l159 289l-159 286v-575zM164 40h317l-159 287z" />
    <glyph glyph-name="f_b" unicode="fb" horiz-adv-x="896" 
d="M630 514c147 0 219 -122 219 -262c0 -144 -76 -266 -220 -266c-78 0 -134 45 -192 100l-3 -86h-45l1 726c-65 16 -236 83 -236 -78v-148h108v-42h-108v-458h-48v458h-71v42h71v148c0 101 59 140 133 145c65 4 141 -17 199 -43v-317c57 45 113 81 192 81zM628 29
c112 0 171 99 171 223c0 121 -56 219 -170 219c-73 0 -134 -40 -192 -81v-262c63 -54 123 -99 191 -99z" />
    <glyph glyph-name="f_f" unicode="ff" horiz-adv-x="586" 
d="M599 740c-145 36 -173 -11 -173 -82v-158h118v-42h-118v-458h-48v458h-224v-458h-48v458h-71v42h71v158c0 100 59 169 233 121l-12 -39c-145 36 -173 -11 -173 -82v-158h224v158c0 100 59 169 233 121z" />
    <glyph glyph-name="f_f_b" unicode="ffb" horiz-adv-x="1168" 
d="M902 514c147 0 219 -122 219 -262c0 -144 -76 -266 -220 -266c-78 0 -134 45 -192 100l-3 -86h-45l1 726c-65 16 -236 83 -236 -78v-148h108v-42h-108v-458h-48v458h-224v-458h-48v458h-71v42h71v158c0 100 59 169 233 121l-12 -39c-145 36 -173 -11 -173 -82v-158h224
v148c0 84 41 125 97 139c71 18 166 -6 235 -37v-317c57 45 113 81 192 81zM900 29c112 0 171 99 171 223c0 121 -56 219 -170 219c-73 0 -134 -40 -192 -81v-262c63 -54 123 -99 191 -99z" />
    <glyph glyph-name="f_f_h" unicode="ffh" horiz-adv-x="1175" 
d="M934 514c93 0 163 -57 163 -175v-339h-48v339c0 86 -51 130 -123 131c-63 1 -142 -31 -218 -97v-373h-49l1 726c-65 16 -236 83 -236 -78v-148h110v-42h-110v-458h-48v458h-222v-458h-48v458h-71v42h71v158c0 100 59 169 233 121l-12 -39c-145 36 -173 -11 -173 -82v-158
h222v148c0 84 41 125 97 139c71 18 166 -6 235 -37v-332c74 64 157 96 226 96z" />
    <glyph glyph-name="f_f_i" unicode="ffi" horiz-adv-x="786" 
d="M421 658v-158h108v-42h-108v-458h-48v458h-224v-458h-48v458h-71v42h71v158c0 100 59 169 233 121l-12 -39c-145 36 -173 -11 -173 -82v-158h224v158c0 100 89 174 273 111l-12 -39c-155 51 -213 -1 -213 -72zM699 500v-500h-48v459l-53 14v27h101z" />
    <glyph glyph-name="f_f_j" unicode="ffj" horiz-adv-x="774" 
d="M534 458h-108v-458h-48v458h-224v-458h-48v458h-71v42h71v158c0 100 59 169 233 121l-12 -39c-145 36 -173 -11 -173 -82v-158h224v158c0 100 89 174 273 111l-12 -39c-155 51 -213 -1 -213 -72v-158h108v-42zM704 500v-580c0 -100 -28 -181 -172 -144l14 40
c115 -25 110 33 110 104v539l-53 14v27h101z" />
    <glyph glyph-name="f_f_k" unicode="ffk" horiz-adv-x="1058" 
d="M824 272l207 -272h-59l-192 252h-82v-252h-48l1 726c-65 16 -225 83 -225 -78v-148h108v-42h-108v-458h-48v458h-224v-458h-48v458h-71v42h71v158c0 100 59 169 233 121l-12 -39c-145 36 -173 -11 -173 -82v-158h224v148c0 97 52 137 119 144c64 7 142 -15 202 -42
l-1 -456h83l165 206h52l-174 -220l-6 -4z" />
    <glyph glyph-name="f_f_l" unicode="ffl" horiz-adv-x="783" 
d="M496 792c65 7 143 -15 204 -42l-1 -750h-48l1 726c-65 16 -226 83 -226 -78v-148h108v-42h-108v-458h-48v458h-224v-458h-48v458h-71v42h71v158c0 100 59 169 233 121l-12 -39c-145 36 -173 -11 -173 -82v-158h224v148c0 97 51 136 118 144z" />
    <glyph glyph-name="f_f_t" unicode="fft" horiz-adv-x="856" 
d="M824 39l12 -38c-131 -46 -193 25 -193 125v332h-218v-458h-48v458h-223v-458h-48v458h-71v42h71v158c0 100 59 169 233 121l-12 -39c-145 36 -173 -11 -173 -82v-158h223v158c0 100 59 169 233 121l-12 -39c-145 36 -173 -11 -173 -82v-158h218v109h48v-109h97v-42h-97
v-332c0 -71 31 -121 133 -87z" />
    <glyph glyph-name="f_h" unicode="fh" horiz-adv-x="905" 
d="M664 514c93 0 163 -57 163 -175v-339h-48v339c0 86 -51 130 -123 131c-63 1 -142 -31 -218 -97v-373h-49l1 726c-65 16 -236 83 -236 -78v-148h108v-42h-108v-458h-48v458h-71v42h71v148c0 84 41 125 97 139c71 18 166 -6 235 -37v-332c74 64 157 96 226 96z" />
    <glyph glyph-name="f_j" unicode="fj" horiz-adv-x="517" 
d="M154 658v-158h108v-42h-108v-458h-48v458h-71v42h71v158c0 100 89 174 273 111l-12 -39c-155 51 -213 -1 -213 -72zM447 500v-580c0 -100 -28 -181 -172 -144l14 40c115 -25 110 33 110 104v532l-66 19v29h114z" />
    <glyph glyph-name="f_k" unicode="fk" horiz-adv-x="785" 
d="M551 272l207 -272h-59l-192 252h-82v-252h-48l1 726c-65 16 -225 83 -225 -78v-148h109v-42h-109v-458h-48v458h-70v42h70v148c0 97 52 137 119 144c64 7 142 -15 202 -42l-1 -456h83l165 206h52l-174 -220l-6 -4z" />
    <glyph glyph-name="f_t" unicode="ft" horiz-adv-x="585" 
d="M553 39l12 -38c-131 -46 -193 25 -193 125v332h-218v-458h-48v458h-71v42h71v158c0 100 59 169 233 121l-12 -39c-145 36 -173 -11 -173 -82v-158h218v109h48v-109h97v-42h-97v-332c0 -71 31 -121 133 -87z" />
    <glyph glyph-name="fi" unicode="fi" horiz-adv-x="519" 
d="M154 658v-158h108v-42h-108v-458h-48v458h-71v42h71v158c0 100 89 174 273 111l-12 -39c-155 51 -213 -1 -213 -72zM432 500v-500h-48v458l-63 15v27h111z" />
    <glyph glyph-name="fl" unicode="fl" horiz-adv-x="511" 
d="M224 792c65 7 143 -15 204 -42l-1 -750h-48l1 726c-65 16 -226 83 -226 -78v-148h108v-42h-108v-458h-48v458h-71v42h71v148c0 97 51 136 118 144z" />
    <glyph glyph-name=".notdef" horiz-adv-x="650" 
d="M100 0v720h450v-720h-450zM323 395l157 285h-315zM510 63v594l-164 -298zM140 73l159 289l-159 286v-575zM164 40h317l-159 287z" />
    <glyph glyph-name="space" unicode=" " horiz-adv-x="300" 
 />
    <glyph glyph-name="A" unicode="A" horiz-adv-x="702" 
d="M612 0l-86 213h-355l-85 -213h-51l289 720h51l292 -720h-55zM189 257h319l-157 391l-3 18l-3 -18z" />
    <glyph glyph-name="Aacute" unicode="&#xc1;" horiz-adv-x="702" 
d="M465 961l-82 -139h-46l68 139h60zM612 0l-86 213h-355l-85 -213h-51l289 720h51l292 -720h-55zM189 257h319l-157 391l-3 18l-3 -18z" />
    <glyph glyph-name="Abreve" unicode="&#x102;" horiz-adv-x="702" 
d="M352 814c-87 0 -133 62 -125 146h48c-5 -65 21 -104 77 -104s82 39 77 104h48c8 -84 -38 -146 -125 -146zM612 0l-86 213h-355l-85 -213h-51l289 720h51l292 -720h-55zM189 257h319l-157 391l-3 18l-3 -18z" />
    <glyph glyph-name="Acircumflex" unicode="&#xc2;" horiz-adv-x="702" 
d="M341 913l-53 -91h-61l94 139h54l94 -139h-61l-54 92l-6 15zM612 0l-86 213h-355l-85 -213h-51l289 720h51l292 -720h-55zM189 257h319l-157 391l-3 18l-3 -18z" />
    <glyph glyph-name="Adieresis" unicode="&#xc4;" horiz-adv-x="702" 
d="M317 872l-53 -32l-32 54l54 32zM476 872l-53 -32l-32 54l54 32zM612 0l-86 213h-355l-85 -213h-51l289 720h51l292 -720h-55zM189 257h319l-157 391l-3 18l-3 -18z" />
    <glyph glyph-name="Agrave" unicode="&#xc0;" horiz-adv-x="702" 
d="M361 821h-46l-82 139h60zM612 0l-86 213h-355l-85 -213h-51l289 720h51l292 -720h-55zM189 257h319l-157 391l-3 18l-3 -18z" />
    <glyph glyph-name="Amacron" unicode="&#x100;" horiz-adv-x="702" 
d="M472 912v-46h-240v46h240zM612 0l-86 213h-355l-85 -213h-51l289 720h51l292 -720h-55zM189 257h319l-157 391l-3 18l-3 -18z" />
    <glyph glyph-name="Aogonek" unicode="&#x104;" horiz-adv-x="703" 
d="M676 -163l12 -38c-51 -56 -171 -42 -187 41c-12 62 47 120 111 160l-86 213h-355l-85 -213h-51l289 720h51l292 -720c-57 -40 -131 -94 -116 -153c13 -52 87 -47 125 -10zM189 257h319l-157 391l-3 18l-3 -18z" />
    <glyph glyph-name="Aring" unicode="&#xc5;" horiz-adv-x="702" 
d="M352 803c-51 0 -92 36 -92 90s41 90 92 90s92 -36 92 -90s-41 -90 -92 -90zM352 947c-26 0 -49 -18 -49 -54s23 -54 49 -54s49 18 49 54s-23 54 -49 54zM612 0l-86 213h-355l-85 -213h-51l289 720h51l292 -720h-55zM189 257h319l-157 391l-3 18l-3 -18z" />
    <glyph glyph-name="Atilde" unicode="&#xc3;" horiz-adv-x="702" 
d="M263 852h-37c-10 59 33 96 115 66c38 -14 91 -43 91 10h37c10 -59 -33 -96 -115 -66c-38 14 -91 43 -91 -10zM612 0l-86 213h-355l-85 -213h-51l289 720h51l292 -720h-55zM189 257h319l-157 391l-3 18l-3 -18z" />
    <glyph glyph-name="AE" unicode="&#xc6;" horiz-adv-x="995" 
d="M568 43h375v-43h-425v215h-294l-130 -215h-59l442 720h456v-43h-365v-298h315v-43h-315v-293zM518 258v420l-10 5l-258 -425h268z" />
    <glyph glyph-name="B" unicode="B" horiz-adv-x="624" 
d="M435 383c78 -20 135 -79 135 -181c0 -114 -68 -202 -232 -202h-226v673l-77 18v29h286c148 0 211 -68 211 -178c0 -64 -30 -126 -97 -159zM162 677v-281h158c106 0 162 51 164 137c2 97 -41 144 -164 144h-158zM335 43c135 0 187 62 187 161c0 108 -78 150 -157 150h-203
v-311h173z" />
    <glyph glyph-name="C" unicode="C" horiz-adv-x="680" 
d="M387 -14c-181 2 -327 142 -327 374c0 235 143 372 323 372c73 0 153 -22 231 -70l-12 -39c-75 45 -151 65 -219 63c-153 -4 -271 -121 -271 -326c0 -207 124 -322 280 -326c70 -2 147 19 222 65l13 -38c-81 -52 -164 -75 -240 -75z" />
    <glyph glyph-name="Cacute" unicode="&#x106;" horiz-adv-x="680" 
d="M370 822l68 139h60l-82 -139h-46zM387 -14c-181 2 -327 142 -327 374c0 235 143 372 323 372c73 0 153 -22 231 -70l-12 -39c-75 45 -151 65 -219 63c-153 -4 -271 -121 -271 -326c0 -207 124 -322 280 -326c70 -2 147 19 222 65l13 -38c-81 -52 -164 -75 -240 -75z" />
    <glyph glyph-name="Ccaron" unicode="&#x10c;" horiz-adv-x="680" 
d="M356 822l-94 139h61l53 -91l7 -16l6 15l54 92h61l-94 -139h-54zM614 99l13 -38c-81 -52 -164 -75 -240 -75c-181 2 -327 142 -327 374c0 235 143 372 323 372c73 0 153 -22 231 -70l-12 -39c-75 45 -151 65 -219 63c-153 -4 -271 -121 -271 -326
c0 -207 124 -322 280 -326c70 -2 147 19 222 65z" />
    <glyph glyph-name="Ccedilla" unicode="&#xc7;" horiz-adv-x="680" 
d="M394 -69c43 8 111 -14 105 -81c-8 -86 -114 -110 -199 -48l12 37c74 -49 135 -35 140 6c6 46 -36 62 -102 52l-16 10l35 80c-173 10 -309 149 -309 373c0 235 143 372 323 372c73 0 153 -22 231 -70l-12 -39c-75 45 -151 65 -219 63c-153 -4 -271 -121 -271 -326
c0 -207 124 -322 280 -326c70 -2 147 19 222 65l13 -38c-70 -45 -141 -68 -208 -74z" />
    <glyph glyph-name="Cdotaccent" unicode="&#x10a;" horiz-adv-x="680" 
d="M427 886l-53 -32l-32 54l54 32zM387 -14c-181 2 -327 142 -327 374c0 235 143 372 323 372c73 0 153 -22 231 -70l-12 -39c-75 45 -151 65 -219 63c-153 -4 -271 -121 -271 -326c0 -207 124 -322 280 -326c70 -2 147 19 222 65l13 -38c-81 -52 -164 -75 -240 -75z" />
    <glyph glyph-name="D" unicode="D" horiz-adv-x="698" 
d="M283 720c206 0 355 -114 355 -362s-149 -358 -355 -358h-170v672l-78 19v29h248zM283 43c175 0 303 101 303 317s-128 317 -303 317h-120v-634h120z" />
    <glyph glyph-name="Eth" unicode="&#xd0;" horiz-adv-x="698" 
d="M283 720c206 0 355 -114 355 -362s-149 -358 -355 -358h-170v336h-65v43h65v293l-78 19v29h248zM283 43c175 0 303 101 303 317s-128 317 -303 317h-120v-298h167v-43h-167v-293h120z" />
    <glyph glyph-name="Dcaron" unicode="&#x10e;" horiz-adv-x="698" 
d="M282 822l-94 139h61l53 -91l7 -16l6 15l54 92h61l-94 -139h-54zM283 720c206 0 355 -114 355 -362s-149 -358 -355 -358h-170v672l-78 19v29h248zM283 43c175 0 303 101 303 317s-128 317 -303 317h-120v-634h120z" />
    <glyph glyph-name="Dcroat" unicode="&#x110;" horiz-adv-x="698" 
d="M283 720c206 0 355 -114 355 -362s-149 -358 -355 -358h-170v336h-65v43h65v293l-78 19v29h248zM283 43c175 0 303 101 303 317s-128 317 -303 317h-120v-298h167v-43h-167v-293h120z" />
    <glyph glyph-name="E" unicode="E" horiz-adv-x="595" 
d="M163 43h380v-43h-430v673l-78 18v29h493v-43h-365v-300h315v-43h-315v-291z" />
    <glyph glyph-name="Eacute" unicode="&#xc9;" horiz-adv-x="595" 
d="M424 961l-82 -139h-46l68 139h60zM163 43h380v-43h-430v673l-78 18v29h493v-43h-365v-300h315v-43h-315v-291z" />
    <glyph glyph-name="Ecaron" unicode="&#x11a;" horiz-adv-x="595" 
d="M282 822l-94 139h61l53 -91l7 -16l6 15l54 92h61l-94 -139h-54zM163 43h380v-43h-430v673l-78 18v29h493v-43h-365v-300h315v-43h-315v-291z" />
    <glyph glyph-name="Ecircumflex" unicode="&#xca;" horiz-adv-x="595" 
d="M300 913l-53 -91h-61l94 139h54l94 -139h-61l-54 92l-6 15zM163 43h380v-43h-430v673l-78 18v29h493v-43h-365v-300h315v-43h-315v-291z" />
    <glyph glyph-name="Edieresis" unicode="&#xcb;" horiz-adv-x="595" 
d="M276 872l-53 -32l-32 54l54 32zM435 872l-53 -32l-32 54l54 32zM163 43h380v-43h-430v673l-78 18v29h493v-43h-365v-300h315v-43h-315v-291z" />
    <glyph glyph-name="Edotaccent" unicode="&#x116;" horiz-adv-x="595" 
d="M353 886l-53 -32l-32 54l54 32zM163 43h380v-43h-430v673l-78 18v29h493v-43h-365v-300h315v-43h-315v-291z" />
    <glyph glyph-name="Egrave" unicode="&#xc8;" horiz-adv-x="595" 
d="M320 821h-46l-82 139h60zM163 43h380v-43h-430v673l-78 18v29h493v-43h-365v-300h315v-43h-315v-291z" />
    <glyph glyph-name="Emacron" unicode="&#x112;" horiz-adv-x="595" 
d="M431 912v-46h-240v46h240zM163 43h380v-43h-430v673l-78 18v29h493v-43h-365v-300h315v-43h-315v-291z" />
    <glyph glyph-name="Eogonek" unicode="&#x118;" horiz-adv-x="595" 
d="M514 0c-66 -3 -157 -85 -129 -153c20 -48 78 -48 128 -10l12 -38c-66 -54 -168 -39 -190 46c-19 74 42 134 95 155h-317v673l-78 18v29h493v-43h-365v-300h315v-43h-315v-291h380v-43h-29z" />
    <glyph glyph-name="F" unicode="F" horiz-adv-x="576" 
d="M524 677h-361v-325h296v-43h-296v-309h-50v672l-78 19v29h489v-43z" />
    <glyph glyph-name="G" unicode="G" horiz-adv-x="746" 
d="M656 320v-320h-42l-7 70v4c-68 -51 -140 -88 -226 -88c-171 0 -321 130 -321 373c0 248 154 371 327 375c83 2 160 -22 237 -72l-15 -39c-84 51 -159 66 -221 65c-153 -4 -276 -117 -276 -330c0 -215 128 -326 268 -326c77 0 157 42 227 93v152h-129v43h178z" />
    <glyph glyph-name="Gbreve" unicode="&#x11e;" horiz-adv-x="746" 
d="M379 814c-87 0 -133 62 -125 146h48c-5 -65 21 -104 77 -104s82 39 77 104h48c8 -84 -38 -146 -125 -146zM656 320v-320h-42l-7 70v4c-68 -51 -140 -88 -226 -88c-171 0 -321 130 -321 373c0 248 154 371 327 375c83 2 160 -22 237 -72l-15 -39c-84 51 -159 66 -221 65
c-153 -4 -276 -117 -276 -330c0 -215 128 -326 268 -326c77 0 157 42 227 93v152h-129v43h178z" />
    <glyph glyph-name="Gcommaaccent" unicode="&#x122;" horiz-adv-x="740" 
d="M650 320v-320h-43l-7 70v4c-68 -51 -143 -88 -235 -88c-171 0 -316 128 -316 373c0 250 152 371 325 375c83 2 160 -22 237 -72l-15 -39c-84 51 -159 66 -221 65c-153 -4 -274 -115 -274 -330c0 -217 123 -326 263 -326c87 0 166 42 236 93v152h-129v43h179zM361 -93
l50 32c57 -80 5 -158 -41 -206l-16 21c40 57 38 104 7 153z" />
    <glyph glyph-name="Gdotaccent" unicode="&#x120;" horiz-adv-x="746" 
d="M421 886l-53 -32l-32 54l54 32zM656 320v-320h-42l-7 70v4c-68 -51 -140 -88 -226 -88c-171 0 -321 130 -321 373c0 248 154 371 327 375c83 2 160 -22 237 -72l-15 -39c-84 51 -159 66 -221 65c-153 -4 -276 -117 -276 -330c0 -215 128 -326 268 -326
c77 0 157 42 227 93v152h-129v43h178z" />
    <glyph glyph-name="H" unicode="H" horiz-adv-x="730" 
d="M580 720h50v-720h-50v339h-430v-339h-50v720h50v-338h430v338z" />
    <glyph glyph-name="Hbar" unicode="&#x126;" horiz-adv-x="740" 
d="M590 720h50v-720h-50v339h-440v-339h-50v720h50v-158h440v158zM150 382h440v137h-440v-137z" />
    <glyph glyph-name="I" unicode="I" horiz-adv-x="250" 
d="M100 720h50v-720h-50v720z" />
    <glyph glyph-name="I.ss01" horiz-adv-x="266" 
d="M30 720h206v-24l-78 -18v-636l78 -18v-24h-206v24l78 18v636l-78 18v24z" />
    <glyph glyph-name="IJ" unicode="&#x132;" horiz-adv-x="542" 
d="M100 0v720h50v-720h-50zM442 720v-728c0 -140 -29 -275 -262 -204l13 42c200 -63 199 59 199 162v681l-78 18v29h128z" />
    <glyph glyph-name="IJ.ss01" horiz-adv-x="578" 
d="M236 24v-24h-206v24l78 18v636l-78 18v24h206v-24l-78 -18v-636zM478 720v-728c0 -140 -29 -275 -262 -204l13 42c200 -63 199 59 199 162v681l-78 18v29h128z" />
    <glyph glyph-name="Iacute" unicode="&#xcd;" horiz-adv-x="250" 
d="M111 822l68 139h60l-82 -139h-46zM100 720h50v-720h-50v720z" />
    <glyph glyph-name="Iacute.ss01" horiz-adv-x="266" 
d="M118 822l68 139h60l-82 -139h-46zM30 720h206v-24l-78 -18v-636l78 -18v-24h-206v24l78 18v636l-78 18v24z" />
    <glyph glyph-name="Icircumflex" unicode="&#xce;" horiz-adv-x="250" 
d="M149 961l94 -139h-61l-54 92l-6 15l-7 -16l-53 -91h-61l94 139h54zM100 0v720h50v-720h-50z" />
    <glyph glyph-name="Icircumflex.ss01" horiz-adv-x="266" 
d="M122 913l-53 -91h-61l94 139h54l94 -139h-61l-54 92l-6 15zM30 696v24h206v-24l-78 -18v-636l78 -18v-24h-206v24l78 18v636z" />
    <glyph glyph-name="Idieresis" unicode="&#xcf;" horiz-adv-x="250" 
d="M91 872l-53 -32l-32 54l54 32zM250 872l-53 -32l-32 54l54 32zM100 720h50v-720h-50v720z" />
    <glyph glyph-name="Idieresis.ss01" horiz-adv-x="266" 
d="M98 872l-53 -32l-32 54l54 32zM257 872l-53 -32l-32 54l54 32zM30 720h206v-24l-78 -18v-636l78 -18v-24h-206v24l78 18v636l-78 18v24z" />
    <glyph glyph-name="Idotaccent" unicode="&#x130;" horiz-adv-x="250" 
d="M168 886l-53 -32l-32 54l54 32zM100 720h50v-720h-50v720z" />
    <glyph glyph-name="Idotaccent.ss01" horiz-adv-x="266" 
d="M175 886l-53 -32l-32 54l54 32zM30 720h206v-24l-78 -18v-636l78 -18v-24h-206v24l78 18v636l-78 18v24z" />
    <glyph glyph-name="Igrave" unicode="&#xcc;" horiz-adv-x="250" 
d="M135 821h-46l-82 139h60zM100 720h50v-720h-50v720z" />
    <glyph glyph-name="Igrave.ss01" horiz-adv-x="266" 
d="M142 821h-46l-82 139h60zM30 720h206v-24l-78 -18v-636l78 -18v-24h-206v24l78 18v636l-78 18v24z" />
    <glyph glyph-name="Imacron" unicode="&#x12a;" horiz-adv-x="250" 
d="M246 912v-46h-240v46h240zM100 720h50v-720h-50v720z" />
    <glyph glyph-name="Imacron.ss01" horiz-adv-x="266" 
d="M253 912v-46h-240v46h240zM30 720h206v-24l-78 -18v-636l78 -18v-24h-206v24l78 18v636l-78 18v24z" />
    <glyph glyph-name="Iogonek" unicode="&#x12e;" horiz-adv-x="250" 
d="M184 -163l12 -38c-61 -56 -181 -42 -197 41c-12 62 37 120 101 160v720h50v-720c-52 -40 -116 -94 -101 -153c13 -52 87 -47 135 -10z" />
    <glyph glyph-name="Iogonek.ss01" horiz-adv-x="296" 
d="M251 696l-78 -18v-636l78 -18v-24h-41c-76 0 -147 -95 -129 -153c15 -49 83 -48 133 -10l12 -38c-59 -55 -177 -41 -195 46c-13 64 46 129 84 155h-70v24l78 18v636l-78 18v24h206v-24z" />
    <glyph glyph-name="J" unicode="J" horiz-adv-x="332" 
d="M232 720v-728c0 -140 -29 -275 -262 -204l13 42c200 -63 199 59 199 162v681l-78 18v29h128z" />
    <glyph glyph-name="K" unicode="K" horiz-adv-x="611" 
d="M320 354l251 -354h-60l-238 340h-123v-340h-50v720h50v-337h127l212 337h55l-224 -351l-8 -8z" />
    <glyph glyph-name="Kcommaaccent" unicode="&#x136;" horiz-adv-x="600" 
d="M315 361l256 -361h-60l-238 340h-123v-340h-50v720h50v-337h127l212 337h55zM283 -93l50 32c57 -80 5 -158 -41 -206l-16 21c40 57 38 104 7 153z" />
    <glyph glyph-name="L" unicode="L" horiz-adv-x="557" 
d="M150 43h367v-43h-417v720h50v-677z" />
    <glyph glyph-name="Lacute" unicode="&#x139;" horiz-adv-x="557" 
d="M398 961l-82 -139h-46l68 139h60zM150 43h367v-43h-417v720h50v-677z" />
    <glyph glyph-name="Lcaron" unicode="&#x13d;" horiz-adv-x="577" 
d="M392 734c67 -100 15 -187 -68 -225l-12 22c71 43 64 126 29 171zM150 43h387v-43h-437v720h50v-677z" />
    <glyph glyph-name="Lcommaaccent" unicode="&#x13b;" horiz-adv-x="557" 
d="M150 43h367v-43h-417v720h50v-677zM286 -93l50 32c57 -80 5 -158 -41 -206l-16 21c40 57 38 104 7 153z" />
    <glyph glyph-name="Ldot" unicode="&#x13f;" horiz-adv-x="557" 
d="M150 43h367v-43h-417v720h50v-677zM363 354l-57 -34l-34 58l58 34z" />
    <glyph glyph-name="Lslash" unicode="&#x141;" horiz-adv-x="557" 
d="M150 43h367v-43h-417v255l-90 -55v50l90 55v415h50v-385l157 95v-50l-157 -95v-242z" />
    <glyph glyph-name="M" unicode="M" horiz-adv-x="871" 
d="M35 720h117l284 -414l5 -9l5 9l283 414h42v-720h-50v630l-7 -19l-249 -361h-49l-249 361l-5 13v-624h-50v673l-77 18v29z" />
    <glyph glyph-name="N" unicode="N" horiz-adv-x="767" 
d="M617 720h50v-720h-45l-454 624l-5 11v-635h-50v673l-78 18v29h123l454 -624l5 -12v636z" />
    <glyph glyph-name="Nacute" unicode="&#x143;" horiz-adv-x="767" 
d="M387 822l68 139h60l-82 -139h-46zM617 720h50v-720h-45l-454 624l-5 11v-635h-50v673l-78 18v29h123l454 -624l5 -12v636z" />
    <glyph glyph-name="Ncaron" unicode="&#x147;" horiz-adv-x="767" 
d="M373 822l-94 139h61l53 -91l7 -16l6 15l54 92h61l-94 -139h-54zM617 720h50v-720h-45l-454 624l-5 11v-635h-50v673l-78 18v29h123l454 -624l5 -12v636z" />
    <glyph glyph-name="Ncommaaccent" unicode="&#x145;" horiz-adv-x="767" 
d="M617 720h50v-720h-45l-454 624l-5 11v-635h-50v673l-78 18v29h123l454 -624l5 -12v636zM361 -93l50 32c57 -80 5 -158 -41 -206l-16 21c40 57 38 104 7 153z" />
    <glyph glyph-name="Eng" unicode="&#x14a;" horiz-adv-x="767" 
d="M294 -205l12 43c229 -62 311 -14 311 169l-449 617l-5 11v-635h-50v673l-78 18v29h123l454 -624l5 -12v636h50v-731c0 -230 -167 -252 -373 -194z" />
    <glyph glyph-name="Ntilde" unicode="&#xd1;" horiz-adv-x="767" 
d="M276 852c-10 59 33 96 115 66c38 -14 91 -43 91 10h37c10 -59 -33 -96 -115 -66c-38 14 -91 43 -91 -10h-37zM617 720h50v-720h-45l-454 624l-5 11v-635h-50v673l-78 18v29h123l454 -624l5 -12v636z" />
    <glyph glyph-name="O" unicode="O" horiz-adv-x="826" 
d="M413 -14c-210 0 -353 154 -353 374s143 374 353 374s353 -154 353 -374s-143 -374 -353 -374zM413 32c179 0 301 130 301 328s-122 328 -301 328s-301 -130 -301 -328s122 -328 301 -328z" />
    <glyph glyph-name="Oacute" unicode="&#xd3;" horiz-adv-x="826" 
d="M398 822l68 139h60l-82 -139h-46zM413 -14c-210 0 -353 154 -353 374s143 374 353 374s353 -154 353 -374s-143 -374 -353 -374zM413 32c179 0 301 130 301 328s-122 328 -301 328s-301 -130 -301 -328s122 -328 301 -328z" />
    <glyph glyph-name="Ocircumflex" unicode="&#xd4;" horiz-adv-x="826" 
d="M402 913l-53 -91h-61l94 139h54l94 -139h-61l-54 92l-6 15zM413 734c210 0 353 -154 353 -374s-143 -374 -353 -374s-353 154 -353 374s143 374 353 374zM413 32c179 0 301 130 301 328s-122 328 -301 328s-301 -130 -301 -328s122 -328 301 -328z" />
    <glyph glyph-name="Odieresis" unicode="&#xd6;" horiz-adv-x="826" 
d="M378 872l-53 -32l-32 54l54 32zM537 872l-53 -32l-32 54l54 32zM413 -14c-210 0 -353 154 -353 374s143 374 353 374s353 -154 353 -374s-143 -374 -353 -374zM413 32c179 0 301 130 301 328s-122 328 -301 328s-301 -130 -301 -328s122 -328 301 -328z" />
    <glyph glyph-name="Ograve" unicode="&#xd2;" horiz-adv-x="826" 
d="M422 821h-46l-82 139h60zM413 -14c-210 0 -353 154 -353 374s143 374 353 374s353 -154 353 -374s-143 -374 -353 -374zM413 32c179 0 301 130 301 328s-122 328 -301 328s-301 -130 -301 -328s122 -328 301 -328z" />
    <glyph glyph-name="Ohungarumlaut" unicode="&#x150;" horiz-adv-x="826" 
d="M315 821l68 139h60l-82 -139h-46zM465 821l68 139h60l-82 -139h-46zM413 -14c-210 0 -353 154 -353 374s143 374 353 374s353 -154 353 -374s-143 -374 -353 -374zM413 32c179 0 301 130 301 328s-122 328 -301 328s-301 -130 -301 -328s122 -328 301 -328z" />
    <glyph glyph-name="Omacron" unicode="&#x14c;" horiz-adv-x="826" 
d="M533 912v-46h-240v46h240zM413 -14c-210 0 -353 154 -353 374s143 374 353 374s353 -154 353 -374s-143 -374 -353 -374zM413 32c179 0 301 130 301 328s-122 328 -301 328s-301 -130 -301 -328s122 -328 301 -328z" />
    <glyph glyph-name="Oslash" unicode="&#xd8;" horiz-adv-x="832" 
d="M669 630c65 -68 103 -163 103 -270c0 -210 -146 -374 -356 -374c-84 0 -158 26 -216 71l-47 -57l-37 31l48 58c-66 68 -104 163 -104 271c0 210 146 374 356 374c84 0 158 -26 216 -71l47 57l38 -31zM112 360c0 -93 31 -174 83 -232l407 498c-50 39 -114 62 -186 62
c-179 0 -304 -140 -304 -328zM416 32c179 0 304 140 304 328c0 93 -30 174 -83 232l-407 -498c50 -39 114 -62 186 -62z" />
    <glyph glyph-name="Otilde" unicode="&#xd5;" horiz-adv-x="826" 
d="M287 852c-10 59 33 96 115 66c38 -14 91 -43 91 10h37c10 -59 -33 -96 -115 -66c-38 14 -91 43 -91 -10h-37zM413 -14c-210 0 -353 154 -353 374s143 374 353 374s353 -154 353 -374s-143 -374 -353 -374zM413 32c179 0 301 130 301 328s-122 328 -301 328
s-301 -130 -301 -328s122 -328 301 -328z" />
    <glyph glyph-name="OE" unicode="&#x152;" horiz-adv-x="1199" 
d="M772 43h375v-43h-425v161c-55 -100 -157 -175 -306 -175c-210 0 -356 164 -356 374s146 374 356 374c149 0 251 -75 306 -175v161h415v-43h-365v-293h315v-43h-315v-298zM416 32c179 0 304 140 304 328s-125 328 -304 328s-304 -140 -304 -328s125 -328 304 -328z" />
    <glyph glyph-name="P" unicode="P" horiz-adv-x="598" 
d="M320 720c148 0 218 -89 218 -207s-70 -211 -218 -211h-157v-302h-50v673l-78 18v29h285zM319 345c123 0 171 78 169 168c2 90 -46 164 -169 164h-156v-332h156z" />
    <glyph glyph-name="Thorn" unicode="&#xde;" 
d="M325 569c148 0 218 -89 218 -207s-70 -211 -218 -211h-163v-151h-48l1 672l-80 19v29h128v-151h162zM324 194c123 0 171 78 169 168c2 90 -46 164 -169 164h-161l-1 -332h162z" />
    <glyph glyph-name="Q" unicode="Q" horiz-adv-x="812" 
d="M752 360c0 -195 -118 -351 -303 -372c71 -67 139 -110 235 -144l-15 -42c-120 40 -206 102 -288 185c-196 12 -321 172 -321 373c0 210 136 374 346 374s346 -164 346 -374zM112 360c0 -188 115 -328 294 -328s294 140 294 328s-115 328 -294 328s-294 -140 -294 -328z
" />
    <glyph glyph-name="R" unicode="R" horiz-adv-x="608" 
d="M568 0h-59l-170 324h-19h-157v-324h-50v672l-78 19v29h285c148 0 217 -83 218 -198c1 -95 -48 -169 -148 -191zM319 367c123 0 169 68 169 155s-46 155 -169 155h-156v-310h156z" />
    <glyph glyph-name="Racute" unicode="&#x154;" horiz-adv-x="608" 
d="M428 961l-82 -139h-46l68 139h60zM568 0h-59l-170 324h-19h-157v-324h-50v672l-78 19v29h285c148 0 217 -83 218 -198c1 -95 -48 -169 -148 -191zM319 367c123 0 169 68 169 155s-46 155 -169 155h-156v-310h156z" />
    <glyph glyph-name="Rcaron" unicode="&#x158;" horiz-adv-x="608" 
d="M286 822l-94 139h61l53 -91l7 -16l6 15l54 92h61l-94 -139h-54zM568 0h-59l-170 324h-19h-157v-324h-50v672l-78 19v29h285c148 0 217 -83 218 -198c1 -95 -48 -169 -148 -191zM319 367c123 0 169 68 169 155s-46 155 -169 155h-156v-310h156z" />
    <glyph glyph-name="Rcommaaccent" unicode="&#x156;" horiz-adv-x="608" 
d="M390 331l178 -331h-59l-170 324h-19h-157v-324h-50v672l-78 19v29h285c148 0 217 -83 218 -198c1 -95 -48 -169 -148 -191zM319 367c123 0 169 68 169 155s-46 155 -169 155h-156v-310h156zM294 -93l50 32c57 -80 5 -158 -41 -206l-16 21c40 57 38 104 7 153z" />
    <glyph glyph-name="S" unicode="S" horiz-adv-x="602" 
d="M513 689l-15 -42c-86 37 -156 44 -198 43c-90 -3 -181 -38 -181 -130c0 -84 105 -124 194 -161c132 -55 239 -102 239 -215c0 -100 -87 -198 -257 -198c-59 0 -141 11 -232 53l15 44c63 -29 145 -50 217 -50c132 1 206 69 206 146c0 84 -86 123 -188 166
c-121 51 -244 89 -244 214c0 112 98 170 229 175c52 2 127 -3 215 -45z" />
    <glyph glyph-name="Sacute" unicode="&#x15a;" horiz-adv-x="602" 
d="M282 822l68 139h60l-82 -139h-46zM513 689l-15 -42c-86 37 -156 44 -198 43c-90 -3 -181 -38 -181 -130c0 -84 105 -124 194 -161c132 -55 239 -102 239 -215c0 -100 -87 -198 -257 -198c-59 0 -141 11 -232 53l15 44c63 -29 145 -50 217 -50c132 1 206 69 206 146
c0 84 -86 123 -188 166c-121 51 -244 89 -244 214c0 112 98 170 229 175c52 2 127 -3 215 -45z" />
    <glyph glyph-name="Scaron" unicode="&#x160;" horiz-adv-x="602" 
d="M268 822l-94 139h61l53 -91l7 -16l6 15l54 92h61l-94 -139h-54zM313 399c132 -55 239 -102 239 -215c0 -100 -87 -198 -257 -198c-59 0 -141 11 -232 53l15 44c63 -29 145 -50 217 -50c132 1 206 69 206 146c0 84 -86 123 -188 166c-121 51 -244 89 -244 214
c0 112 98 170 229 175c52 2 127 -3 215 -45l-15 -42c-86 37 -156 44 -198 43c-90 -3 -181 -38 -181 -130c0 -84 105 -124 194 -161z" />
    <glyph glyph-name="Scedilla" unicode="&#x15e;" horiz-adv-x="602" 
d="M552 184c0 -93 -76 -185 -225 -197l-25 -56c43 8 111 -14 105 -81c-8 -86 -114 -110 -199 -48l12 37c74 -49 135 -35 140 6c6 46 -36 62 -102 52l-16 10l35 79c-57 2 -132 15 -214 53l15 44c63 -29 145 -50 217 -50c132 1 206 69 206 146c0 84 -86 123 -188 166
c-121 51 -244 89 -244 214c0 112 98 170 229 175c52 2 127 -3 215 -45l-15 -42c-86 37 -156 44 -198 43c-90 -3 -181 -38 -181 -130c0 -84 105 -124 194 -161c132 -55 239 -102 239 -215z" />
    <glyph glyph-name="Scommaaccent" unicode="&#x218;" horiz-adv-x="600" 
d="M510 689l-15 -42c-86 37 -156 44 -198 43c-90 -3 -181 -38 -181 -130c0 -84 105 -124 194 -161c132 -55 239 -102 239 -215c0 -100 -87 -198 -257 -198c-59 0 -141 11 -232 53l15 44c63 -29 145 -50 217 -50c132 1 206 69 206 146c0 84 -86 123 -188 166
c-121 51 -244 89 -244 214c0 112 98 170 229 175c52 2 127 -3 215 -45zM276 -246l16 -21c46 48 98 126 41 206l-50 -32c31 -49 33 -96 -7 -153z" />
    <glyph glyph-name="T" unicode="T" horiz-adv-x="615" 
d="M575 720v-43h-245v-677h-50v677h-240v43h535z" />
    <glyph glyph-name="Tbar" unicode="&#x166;" horiz-adv-x="615" 
d="M426 912v-46h-240v46h240zM575 720v-43h-245v-677h-50v677h-240v43h535z" />
    <glyph glyph-name="Tcaron" unicode="&#x164;" horiz-adv-x="615" 
d="M277 822l-94 139h61l53 -91l7 -16l6 15l54 92h61l-94 -139h-54zM575 720v-43h-245v-677h-50v677h-240v43h535z" />
    <glyph glyph-name="uni0162" unicode="&#x162;" horiz-adv-x="615" 
d="M330 677v-677l-34 -69c43 8 114 -14 108 -81c-8 -86 -114 -110 -199 -48l12 37c74 -49 135 -35 140 6c6 46 -36 62 -102 52l-16 10l41 93v677h-240v43h535v-43h-245z" />
    <glyph glyph-name="uni021A" unicode="&#x21a;" horiz-adv-x="615" 
d="M575 720v-43h-245v-677h-50v677h-240v43h535zM277 -93l55 32c57 -80 5 -158 -41 -206l-20 21c40 57 37 104 6 153z" />
    <glyph glyph-name="U" unicode="U" horiz-adv-x="739" 
d="M361 -14c-174 0 -261 115 -261 340v394h51v-394c0 -197 63 -294 212 -294c142 0 231 89 231 294v394h49v-394c0 -235 -115 -340 -282 -340z" />
    <glyph glyph-name="Uacute" unicode="&#xda;" horiz-adv-x="739" 
d="M357 822l68 139h60l-82 -139h-46zM361 -14c-174 0 -261 115 -261 340v394h51v-394c0 -197 63 -294 212 -294c142 0 231 89 231 294v394h49v-394c0 -235 -115 -340 -282 -340z" />
    <glyph glyph-name="Ucircumflex" unicode="&#xdb;" horiz-adv-x="739" 
d="M361 913l-53 -91h-61l94 139h54l94 -139h-61l-54 92l-6 15zM594 720h49v-394c0 -235 -115 -340 -282 -340c-174 0 -261 115 -261 340v394h51v-394c0 -197 63 -294 212 -294c142 0 231 89 231 294v394z" />
    <glyph glyph-name="Udieresis" unicode="&#xdc;" horiz-adv-x="739" 
d="M337 872l-53 -32l-32 54l54 32zM496 872l-53 -32l-32 54l54 32zM361 -14c-174 0 -261 115 -261 340v394h51v-394c0 -197 63 -294 212 -294c142 0 231 89 231 294v394h49v-394c0 -235 -115 -340 -282 -340z" />
    <glyph glyph-name="Ugrave" unicode="&#xd9;" horiz-adv-x="739" 
d="M381 821h-46l-82 139h60zM361 -14c-174 0 -261 115 -261 340v394h51v-394c0 -197 63 -294 212 -294c142 0 231 89 231 294v394h49v-394c0 -235 -115 -340 -282 -340z" />
    <glyph glyph-name="Uhungarumlaut" unicode="&#x170;" horiz-adv-x="739" 
d="M274 821l68 139h60l-82 -139h-46zM424 821l68 139h60l-82 -139h-46zM361 -14c-174 0 -261 115 -261 340v394h51v-394c0 -197 63 -294 212 -294c142 0 231 89 231 294v394h49v-394c0 -235 -115 -340 -282 -340z" />
    <glyph glyph-name="Umacron" unicode="&#x16a;" horiz-adv-x="739" 
d="M492 912v-46h-240v46h240zM361 -14c-174 0 -261 115 -261 340v394h51v-394c0 -197 63 -294 212 -294c142 0 231 89 231 294v394h49v-394c0 -235 -115 -340 -282 -340z" />
    <glyph glyph-name="Uogonek" unicode="&#x172;" horiz-adv-x="739" 
d="M563 -200c-61 -55 -177 -43 -195 46c-10 48 4 94 54 145c-20 -3 -40 -5 -61 -5c-174 0 -261 115 -261 340v394h51v-394c0 -197 63 -294 212 -294c142 0 231 89 231 294v394h49v-394c0 -161 -53 -248 -126 -299s-115 -127 -99 -179c16 -55 87 -45 133 -10z" />
    <glyph glyph-name="Uring" unicode="&#x16e;" horiz-adv-x="739" 
d="M372 983c51 0 92 -36 92 -90s-41 -90 -92 -90s-92 36 -92 90s41 90 92 90zM372 947c-26 0 -49 -18 -49 -54s23 -54 49 -54s49 18 49 54s-23 54 -49 54zM361 -14c-174 0 -261 115 -261 340v394h51v-394c0 -197 63 -294 212 -294c142 0 231 89 231 294v394h49v-394
c0 -235 -115 -340 -282 -340z" />
    <glyph glyph-name="V" unicode="V" horiz-adv-x="672" 
d="M580 720h52l-270 -720h-51l-271 720h55l240 -648l3 -18l3 18z" />
    <glyph glyph-name="W" unicode="W" horiz-adv-x="1049" 
d="M957 720h52l-250 -720h-51l-184 515l-177 -515h-51l-256 720h55l225 -644l3 -20l3 20l172 509l-48 135h55l227 -644l3 -20l3 20z" />
    <glyph glyph-name="Wacute" unicode="&#x1e82;" horiz-adv-x="1049" 
d="M603 961l-82 -139h-46l68 139h60zM957 720h52l-250 -720h-51l-184 515l-177 -515h-51l-256 720h55l225 -644l3 -20l3 20l172 509l-48 135h55l227 -644l3 -20l3 20z" />
    <glyph glyph-name="Wcircumflex" unicode="&#x174;" horiz-adv-x="1049" 
d="M479 913l-53 -91h-61l94 139h54l94 -139h-61l-54 92l-6 15zM957 720h52l-250 -720h-51l-184 515l-177 -515h-51l-256 720h55l225 -644l3 -20l3 20l172 509l-48 135h55l227 -644l3 -20l3 20z" />
    <glyph glyph-name="Wdieresis" unicode="&#x1e84;" horiz-adv-x="1049" 
d="M455 872l-53 -32l-32 54l54 32zM614 872l-53 -32l-32 54l54 32zM957 720h52l-250 -720h-51l-184 515l-177 -515h-51l-256 720h55l225 -644l3 -20l3 20l172 509l-48 135h55l227 -644l3 -20l3 20z" />
    <glyph glyph-name="Wgrave" unicode="&#x1e80;" horiz-adv-x="1049" 
d="M499 821h-46l-82 139h60zM957 720h52l-250 -720h-51l-184 515l-177 -515h-51l-256 720h55l225 -644l3 -20l3 20l172 509l-48 135h55l227 -644l3 -20l3 20z" />
    <glyph glyph-name="X" unicode="X" horiz-adv-x="676" 
d="M40 0l263 376l2 2l-2 2l-242 340h57l213 -298l3 -9l3 9l208 298h60l-240 -337l-2 -2l2 -2l271 -379h-60l-240 335l-3 10l-3 -10l-230 -335h-60z" />
    <glyph glyph-name="Y" unicode="Y" horiz-adv-x="628" 
d="M593 720l-242 -408l-1 -312h-48l1 304l-268 416h56l231 -358l4 -10l4 10l211 358h52z" />
    <glyph glyph-name="Yacute" unicode="&#xdd;" horiz-adv-x="628" 
d="M440 961l-82 -139h-46l68 139h60zM593 720l-242 -408l-1 -312h-48l1 304l-268 416h56l231 -358l4 -10l4 10l211 358h52z" />
    <glyph glyph-name="Ycircumflex" unicode="&#x176;" horiz-adv-x="628" 
d="M316 913l-53 -91h-61l94 139h54l94 -139h-61l-54 92l-6 15zM593 720l-242 -408l-1 -312h-48l1 304l-268 416h56l231 -358l4 -10l4 10l211 358h52z" />
    <glyph glyph-name="Ydieresis" unicode="&#x178;" horiz-adv-x="628" 
d="M292 872l-53 -32l-32 54l54 32zM451 872l-53 -32l-32 54l54 32zM593 720l-242 -408l-1 -312h-48l1 304l-268 416h56l231 -358l4 -10l4 10l211 358h52z" />
    <glyph glyph-name="Ygrave" unicode="&#x1ef2;" horiz-adv-x="628" 
d="M336 821h-46l-82 139h60zM593 720l-242 -408l-1 -312h-48l1 304l-268 416h56l231 -358l4 -10l4 10l211 358h52z" />
    <glyph glyph-name="Z" unicode="Z" horiz-adv-x="610" 
d="M111 43h449v-43h-510v22l437 649l15 6h-422v43h478v-22l-431 -648z" />
    <glyph glyph-name="Zacute" unicode="&#x179;" horiz-adv-x="610" 
d="M418 961l-82 -139h-46l68 139h60zM111 43h449v-43h-510v22l437 649l15 6h-422v43h478v-22l-431 -648z" />
    <glyph glyph-name="Zcaron" unicode="&#x17d;" horiz-adv-x="610" 
d="M276 822l-94 139h61l53 -91l7 -16l6 15l54 92h61l-94 -139h-54zM111 43h449v-43h-510v22l437 649l15 6h-422v43h478v-22l-431 -648z" />
    <glyph glyph-name="Zdotaccent" unicode="&#x17b;" horiz-adv-x="610" 
d="M347 886l-53 -32l-32 54l54 32zM111 43h449v-43h-510v22l437 649l15 6h-422v43h478v-22l-431 -648z" />
    <glyph glyph-name="a" unicode="a" horiz-adv-x="533" 
d="M175 -14c-158 11 -160 175 -114 241c52 75 161 77 328 68v84c0 117 -152 101 -270 63l-13 40c119 39 331 70 331 -103l-1 -337l65 -15v-27h-110l-3 87c-55 -50 -119 -108 -213 -101zM175 30c83 -10 163 56 213 100l1 124c-153 8 -250 8 -289 -51
c-29 -44 -34 -159 75 -173z" />
    <glyph glyph-name="a.ss01" 
d="M267 -14c-144 0 -220 122 -220 266c0 140 72 262 219 262c80 0 136 -36 194 -82l2 68h45v-458l64 -15v-27h-109l-3 86c-58 -55 -114 -100 -192 -100zM268 29c68 0 128 45 191 100v261c-58 41 -119 81 -192 81c-114 0 -170 -98 -170 -219c0 -124 59 -223 171 -223z" />
    <glyph glyph-name="aacute" unicode="&#xe1;" horiz-adv-x="533" 
d="M253 602l68 139h60l-82 -139h-46zM175 -14c-158 11 -160 175 -114 241c52 75 161 77 328 68v84c0 117 -152 101 -270 63l-13 40c119 39 331 70 331 -103l-1 -337l65 -15v-27h-110l-3 87c-55 -50 -119 -108 -213 -101zM175 30c83 -10 163 56 213 100l1 124
c-153 8 -250 8 -289 -51c-29 -44 -34 -159 75 -173z" />
    <glyph glyph-name="aacute.ss01" 
d="M279 602l68 139h60l-82 -139h-46zM267 -14c-144 0 -220 122 -220 266c0 140 72 262 219 262c80 0 136 -36 194 -82l2 68h45v-458l64 -15v-27h-109l-3 86c-58 -55 -114 -100 -192 -100zM268 29c68 0 128 45 191 100v261c-58 41 -119 81 -192 81c-114 0 -170 -98 -170 -219
c0 -124 59 -223 171 -223z" />
    <glyph glyph-name="abreve" unicode="&#x103;" horiz-adv-x="533" 
d="M143 740h48c-5 -65 21 -104 77 -104s82 39 77 104h48c8 -84 -38 -146 -125 -146s-133 62 -125 146zM175 -14c-158 11 -160 175 -114 241c52 75 161 77 328 68v84c0 117 -152 101 -270 63l-13 40c119 39 331 70 331 -103l-1 -337l65 -15v-27h-110l-3 87
c-55 -50 -119 -108 -213 -101zM175 30c83 -10 163 56 213 100l1 124c-153 8 -250 8 -289 -51c-29 -44 -34 -159 75 -173z" />
    <glyph glyph-name="abreve.ss01" 
d="M169 740h48c-5 -65 21 -104 77 -104s82 39 77 104h48c8 -84 -38 -146 -125 -146s-133 62 -125 146zM267 -14c-144 0 -220 122 -220 266c0 140 72 262 219 262c80 0 136 -36 194 -82l2 68h45v-458l64 -15v-27h-109l-3 86c-58 -55 -114 -100 -192 -100zM268 29
c68 0 128 45 191 100v261c-58 41 -119 81 -192 81c-114 0 -170 -98 -170 -219c0 -124 59 -223 171 -223z" />
    <glyph glyph-name="acircumflex" unicode="&#xe2;" horiz-adv-x="533" 
d="M257 693l-53 -91h-61l94 139h54l94 -139h-61l-54 92l-6 15zM436 42l65 -15v-27h-110l-3 87c-55 -50 -119 -108 -213 -101c-158 11 -160 175 -114 241c52 75 161 77 328 68v84c0 117 -152 101 -270 63l-13 40c119 39 331 70 331 -103zM388 130l1 124
c-153 8 -250 8 -289 -51c-29 -44 -34 -159 75 -173c83 -10 163 56 213 100z" />
    <glyph glyph-name="acircumflex.ss01" 
d="M283 693l-53 -91h-61l94 139h54l94 -139h-61l-54 92l-6 15zM507 42l64 -15v-27h-109l-3 86c-58 -55 -114 -100 -192 -100c-144 0 -220 122 -220 266c0 140 72 262 219 262c80 0 136 -36 194 -82l2 68h45v-458zM459 129v261c-58 41 -119 81 -192 81
c-114 0 -170 -98 -170 -219c0 -124 59 -223 171 -223c68 0 128 45 191 100z" />
    <glyph glyph-name="adieresis" unicode="&#xe4;" horiz-adv-x="533" 
d="M233 652l-53 -32l-32 54l54 32zM392 652l-53 -32l-32 54l54 32zM175 -14c-158 11 -160 175 -114 241c52 75 161 77 328 68v84c0 117 -152 101 -270 63l-13 40c119 39 331 70 331 -103l-1 -337l65 -15v-27h-110l-3 87c-55 -50 -119 -108 -213 -101zM175 30
c83 -10 163 56 213 100l1 124c-153 8 -250 8 -289 -51c-29 -44 -34 -159 75 -173z" />
    <glyph glyph-name="adieresis.ss01" 
d="M259 652l-53 -32l-32 54l54 32zM418 652l-53 -32l-32 54l54 32zM267 -14c-144 0 -220 122 -220 266c0 140 72 262 219 262c80 0 136 -36 194 -82l2 68h45v-458l64 -15v-27h-109l-3 86c-58 -55 -114 -100 -192 -100zM268 29c68 0 128 45 191 100v261
c-58 41 -119 81 -192 81c-114 0 -170 -98 -170 -219c0 -124 59 -223 171 -223z" />
    <glyph glyph-name="agrave" unicode="&#xe0;" horiz-adv-x="533" 
d="M277 601h-46l-82 139h60zM175 -14c-158 11 -160 175 -114 241c52 75 161 77 328 68v84c0 117 -152 101 -270 63l-13 40c119 39 331 70 331 -103l-1 -337l65 -15v-27h-110l-3 87c-55 -50 -119 -108 -213 -101zM175 30c83 -10 163 56 213 100l1 124c-153 8 -250 8 -289 -51
c-29 -44 -34 -159 75 -173z" />
    <glyph glyph-name="agrave.ss01" 
d="M303 601h-46l-82 139h60zM267 -14c-144 0 -220 122 -220 266c0 140 72 262 219 262c80 0 136 -36 194 -82l2 68h45v-458l64 -15v-27h-109l-3 86c-58 -55 -114 -100 -192 -100zM268 29c68 0 128 45 191 100v261c-58 41 -119 81 -192 81c-114 0 -170 -98 -170 -219
c0 -124 59 -223 171 -223z" />
    <glyph glyph-name="amacron" unicode="&#x101;" horiz-adv-x="533" 
d="M388 692v-46h-240v46h240zM175 -14c-158 11 -160 175 -114 241c52 75 161 77 328 68v84c0 117 -152 101 -270 63l-13 40c119 39 331 70 331 -103l-1 -337l65 -15v-27h-110l-3 87c-55 -50 -119 -108 -213 -101zM175 30c83 -10 163 56 213 100l1 124
c-153 8 -250 8 -289 -51c-29 -44 -34 -159 75 -173z" />
    <glyph glyph-name="amacron.ss01" 
d="M414 692v-46h-240v46h240zM267 -14c-144 0 -220 122 -220 266c0 140 72 262 219 262c80 0 136 -36 194 -82l2 68h45v-458l64 -15v-27h-109l-3 86c-58 -55 -114 -100 -192 -100zM268 29c68 0 128 45 191 100v261c-58 41 -119 81 -192 81c-114 0 -170 -98 -170 -219
c0 -124 59 -223 171 -223z" />
    <glyph glyph-name="aogonek" unicode="&#x105;" horiz-adv-x="536" 
d="M475 0c-66 -3 -157 -85 -129 -153c20 -48 78 -48 128 -10l12 -38c-66 -54 -168 -39 -190 46c-19 74 42 134 95 155l-3 87c-55 -50 -119 -108 -213 -101c-158 11 -160 175 -114 241c52 75 161 75 328 64v88c0 117 -152 101 -270 63l-13 40c119 39 331 70 331 -103l-1 -337
l65 -15v-27h-26zM388 130l1 120c-153 10 -250 12 -289 -47c-29 -44 -34 -159 75 -173c83 -10 163 56 213 100z" />
    <glyph glyph-name="aogonek.ss01" 
d="M546 0c-66 -3 -157 -85 -129 -153c20 -48 78 -48 128 -10l12 -38c-66 -54 -168 -39 -190 46c-19 74 42 134 95 155l-3 86c-58 -55 -114 -100 -192 -100c-144 0 -220 122 -220 266c0 140 72 262 219 262c80 0 136 -36 194 -82l2 68h45v-458l64 -15v-27h-25zM459 129v261
c-58 41 -119 81 -192 81c-114 0 -170 -98 -170 -219c0 -124 59 -223 171 -223c68 0 128 45 191 100z" />
    <glyph glyph-name="aring" unicode="&#xe5;" horiz-adv-x="533" 
d="M268 763c51 0 92 -36 92 -90s-41 -90 -92 -90s-92 36 -92 90s41 90 92 90zM268 727c-26 0 -49 -18 -49 -54s23 -54 49 -54s49 18 49 54s-23 54 -49 54zM175 -14c-158 11 -160 175 -114 241c52 75 161 77 328 68v84c0 117 -152 101 -270 63l-13 40c119 39 331 70 331 -103
l-1 -337l65 -15v-27h-110l-3 87c-55 -50 -119 -108 -213 -101zM175 30c83 -10 163 56 213 100l1 124c-153 8 -250 8 -289 -51c-29 -44 -34 -159 75 -173z" />
    <glyph glyph-name="aring.ss01" 
d="M294 763c51 0 92 -36 92 -90s-41 -90 -92 -90s-92 36 -92 90s41 90 92 90zM294 727c-26 0 -49 -18 -49 -54s23 -54 49 -54s49 18 49 54s-23 54 -49 54zM267 -14c-144 0 -220 122 -220 266c0 140 72 262 219 262c80 0 136 -36 194 -82l2 68h45v-458l64 -15v-27h-109l-3 86
c-58 -55 -114 -100 -192 -100zM268 29c68 0 128 45 191 100v261c-58 41 -119 81 -192 81c-114 0 -170 -98 -170 -219c0 -124 59 -223 171 -223z" />
    <glyph glyph-name="atilde" unicode="&#xe3;" horiz-adv-x="533" 
d="M142 632c-10 59 33 96 115 66c38 -14 91 -43 91 10h37c10 -59 -33 -96 -115 -66c-38 14 -91 43 -91 -10h-37zM175 -14c-158 11 -160 175 -114 241c52 75 161 77 328 68v84c0 117 -152 101 -270 63l-13 40c119 39 331 70 331 -103l-1 -337l65 -15v-27h-110l-3 87
c-55 -50 -119 -108 -213 -101zM175 30c83 -10 163 56 213 100l1 124c-153 8 -250 8 -289 -51c-29 -44 -34 -159 75 -173z" />
    <glyph glyph-name="atilde.ss01" 
d="M168 632c-10 59 33 96 115 66c38 -14 91 -43 91 10h37c10 -59 -33 -96 -115 -66c-38 14 -91 43 -91 -10h-37zM267 -14c-144 0 -220 122 -220 266c0 140 72 262 219 262c80 0 136 -36 194 -82l2 68h45v-458l64 -15v-27h-109l-3 86c-58 -55 -114 -100 -192 -100zM268 29
c68 0 128 45 191 100v261c-58 41 -119 81 -192 81c-114 0 -170 -98 -170 -219c0 -124 59 -223 171 -223z" />
    <glyph glyph-name="ae" unicode="&#xe6;" horiz-adv-x="866" 
d="M107 476c114 41 305 76 328 -62c40 61 104 100 183 100c197 0 212 -175 196 -262h-375c0 -133 80 -222 199 -222c55 0 95 15 151 47l14 -33c-50 -37 -106 -58 -174 -58c-96 0 -166 50 -205 120c-125 -103 -167 -126 -249 -120c-158 11 -160 175 -114 241
c52 74 181 70 328 67v90c0 117 -154 94 -274 51zM442 294h328c4 73 -21 175 -152 176c-94 1 -161 -72 -176 -176zM389 252c-133 3 -250 10 -289 -49c-29 -44 -34 -159 75 -173c83 -10 163 56 213 100z" />
    <glyph glyph-name="b" unicode="b" horiz-adv-x="597" 
d="M331 514c147 0 219 -122 219 -262c0 -144 -76 -266 -220 -266c-78 0 -134 45 -192 100l-3 -86h-45l1 738l-63 15v27h111l-1 -347c58 45 114 81 193 81zM329 29c112 0 171 99 171 223c0 121 -56 219 -170 219c-73 0 -134 -40 -192 -81v-262c63 -54 123 -99 191 -99z" />
    <glyph glyph-name="c" unicode="c" horiz-adv-x="499" 
d="M280 -14c-133 -1 -233 95 -233 265c0 168 99 263 226 263c53 0 111 -17 169 -51l-12 -35c-55 33 -109 47 -157 45c-101 -3 -176 -82 -176 -222c0 -142 78 -218 184 -222c49 -2 104 12 160 42l11 -35c-60 -33 -118 -49 -172 -50z" />
    <glyph glyph-name="cacute" unicode="&#x107;" horiz-adv-x="499" 
d="M251 602l68 139h60l-82 -139h-46zM280 -14c-133 -1 -233 95 -233 265c0 168 99 263 226 263c53 0 111 -17 169 -51l-12 -35c-55 33 -109 47 -157 45c-101 -3 -176 -82 -176 -222c0 -142 78 -218 184 -222c49 -2 104 12 160 42l11 -35c-60 -33 -118 -49 -172 -50z" />
    <glyph glyph-name="ccaron" unicode="&#x10d;" horiz-adv-x="499" 
d="M237 602l-94 139h61l53 -91l7 -16l6 15l54 92h61l-94 -139h-54zM441 71l11 -35c-60 -33 -118 -49 -172 -50c-133 -1 -233 95 -233 265c0 168 99 263 226 263c53 0 111 -17 169 -51l-12 -35c-55 33 -109 47 -157 45c-101 -3 -176 -82 -176 -222c0 -142 78 -218 184 -222
c49 -2 104 12 160 42z" />
    <glyph glyph-name="ccedilla" unicode="&#xe7;" horiz-adv-x="499" 
d="M286 -69c43 8 111 -14 105 -81c-8 -86 -114 -110 -199 -48l12 37c74 -49 135 -35 140 6c6 46 -36 62 -102 52l-16 10l35 80c-123 7 -214 102 -214 264c0 168 99 263 226 263c53 0 111 -17 169 -51l-12 -35c-55 33 -109 47 -157 45c-101 -3 -176 -82 -176 -222
c0 -142 78 -218 184 -222c49 -2 104 12 160 42l11 -35c-48 -27 -96 -42 -140 -48z" />
    <glyph glyph-name="cdotaccent" unicode="&#x10b;" horiz-adv-x="499" 
d="M308 666l-53 -32l-32 54l54 32zM280 -14c-133 -1 -233 95 -233 265c0 168 99 263 226 263c53 0 111 -17 169 -51l-12 -35c-55 33 -109 47 -157 45c-101 -3 -176 -82 -176 -222c0 -142 78 -218 184 -222c49 -2 104 12 160 42l11 -35c-60 -33 -118 -49 -172 -50z" />
    <glyph glyph-name="d" unicode="d" horiz-adv-x="598" 
d="M507 42l65 -15v-27h-110l-3 86c-58 -55 -114 -100 -192 -100c-144 0 -220 122 -220 266c0 140 72 262 219 262c79 0 135 -36 193 -81l-1 305l-63 15v27h112v-738zM97 252c0 -124 59 -223 171 -223c68 0 128 45 191 99v262c-58 41 -119 81 -192 81
c-114 0 -170 -98 -170 -219z" />
    <glyph glyph-name="eth" unicode="&#xf0;" horiz-adv-x="566" 
d="M504 355c61 -241 -64 -370 -229 -370c-213 0 -306 277 -148 410c101 85 249 68 323 -25c-27 95 -74 167 -134 223l-125 -63l-20 30l115 58c-34 27 -72 50 -111 70l27 33c40 -20 84 -47 125 -82l98 49l20 -30l-89 -45c63 -61 119 -144 148 -258zM273 29
c110 0 199 68 196 219c-23 150 -199 204 -308 115c-133 -109 -43 -334 112 -334z" />
    <glyph glyph-name="dcaron" unicode="&#x10f;" horiz-adv-x="771" 
d="M507 780v-738l65 -15v-27h-110l-3 86c-58 -55 -114 -100 -192 -100c-144 0 -220 122 -220 266c0 140 72 262 219 262c79 0 135 -36 193 -81l-1 305l-63 15v27h112zM695 734c67 -100 15 -187 -68 -225l-12 22c71 43 65 126 30 171zM97 252c0 -124 59 -223 171 -223
c68 0 128 45 191 99v262c-58 41 -119 81 -192 81c-114 0 -170 -98 -170 -219z" />
    <glyph glyph-name="dcroat" unicode="&#x111;" horiz-adv-x="598" 
d="M507 42l65 -15v-27h-110l-3 86c-58 -55 -114 -100 -192 -100c-144 0 -220 122 -220 266c0 140 72 262 219 262c79 0 135 -36 193 -81l-1 168h-189v40h189v97l-63 15v27h112v-139h51v-40h-51v-559zM97 252c0 -124 59 -223 171 -223c68 0 128 45 191 99v262
c-58 41 -119 81 -192 81c-114 0 -170 -98 -170 -219z" />
    <glyph glyph-name="e" unicode="e" horiz-adv-x="524" 
d="M287 -14c-173 0 -240 127 -240 263c0 148 82 265 229 265c197 0 212 -155 196 -262h-375c0 -144 69 -222 199 -222c55 0 103 15 159 47l11 -33c-50 -37 -111 -58 -179 -58zM100 294h328c5 81 -17 175 -152 176c-103 1 -163 -72 -176 -176z" />
    <glyph glyph-name="eacute" unicode="&#xe9;" horiz-adv-x="524" 
d="M258 602l68 139h60l-82 -139h-46zM287 -14c-173 0 -240 127 -240 263c0 148 82 265 229 265c197 0 212 -155 196 -262h-375c0 -144 69 -222 199 -222c55 0 103 15 159 47l11 -33c-50 -37 -111 -58 -179 -58zM100 294h328c5 81 -17 175 -152 176
c-103 1 -163 -72 -176 -176z" />
    <glyph glyph-name="ecaron" unicode="&#x11b;" horiz-adv-x="524" 
d="M244 602l-94 139h61l53 -91l7 -16l6 15l54 92h61l-94 -139h-54zM276 514c197 0 212 -155 196 -262h-375c0 -144 69 -222 199 -222c55 0 103 15 159 47l11 -33c-50 -37 -111 -58 -179 -58c-173 0 -240 127 -240 263c0 148 82 265 229 265zM428 294c5 81 -17 175 -152 176
c-103 1 -163 -72 -176 -176h328z" />
    <glyph glyph-name="ecircumflex" unicode="&#xea;" horiz-adv-x="524" 
d="M262 693l-53 -91h-61l94 139h54l94 -139h-61l-54 92l-6 15zM276 514c197 0 212 -155 196 -262h-375c0 -144 69 -222 199 -222c55 0 103 15 159 47l11 -33c-50 -37 -111 -58 -179 -58c-173 0 -240 127 -240 263c0 148 82 265 229 265zM428 294c5 81 -17 175 -152 176
c-103 1 -163 -72 -176 -176h328z" />
    <glyph glyph-name="edieresis" unicode="&#xeb;" horiz-adv-x="524" 
d="M238 652l-53 -32l-32 54l54 32zM397 652l-53 -32l-32 54l54 32zM287 -14c-173 0 -240 127 -240 263c0 148 82 265 229 265c197 0 212 -155 196 -262h-375c0 -144 69 -222 199 -222c55 0 103 15 159 47l11 -33c-50 -37 -111 -58 -179 -58zM100 294h328
c5 81 -17 175 -152 176c-103 1 -163 -72 -176 -176z" />
    <glyph glyph-name="edotaccent" unicode="&#x117;" horiz-adv-x="524" 
d="M315 666l-53 -32l-32 54l54 32zM287 -14c-173 0 -240 127 -240 263c0 148 82 265 229 265c197 0 212 -155 196 -262h-375c0 -144 69 -222 199 -222c55 0 103 15 159 47l11 -33c-50 -37 -111 -58 -179 -58zM100 294h328c5 81 -17 175 -152 176c-103 1 -163 -72 -176 -176z
" />
    <glyph glyph-name="egrave" unicode="&#xe8;" horiz-adv-x="524" 
d="M282 601h-46l-82 139h60zM287 -14c-173 0 -240 127 -240 263c0 148 82 265 229 265c197 0 212 -155 196 -262h-375c0 -144 69 -222 199 -222c55 0 103 15 159 47l11 -33c-50 -37 -111 -58 -179 -58zM100 294h328c5 81 -17 175 -152 176c-103 1 -163 -72 -176 -176z" />
    <glyph glyph-name="emacron" unicode="&#x113;" horiz-adv-x="524" 
d="M393 692v-46h-240v46h240zM287 -14c-173 0 -240 127 -240 263c0 148 82 265 229 265c197 0 212 -155 196 -262h-375c0 -144 69 -222 199 -222c55 0 103 15 159 47l11 -33c-50 -37 -111 -58 -179 -58zM100 294h328c5 81 -17 175 -152 176c-103 1 -163 -72 -176 -176z" />
    <glyph glyph-name="eogonek" unicode="&#x119;" horiz-adv-x="524" 
d="M443 -202c-70 -57 -170 -37 -192 39c-19 64 34 115 88 157c-179 -38 -292 80 -292 255c0 148 80 265 234 265c188 0 208 -175 191 -262h-375c0 -144 69 -222 197 -222c57 0 105 15 161 47l11 -33l-93 -65c-49 -37 -91 -89 -74 -135c17 -49 86 -44 132 -8zM100 294h328
c4 74 -24 176 -150 176c-106 0 -165 -72 -178 -176z" />
    <glyph glyph-name="f" unicode="f" horiz-adv-x="314" 
d="M325 740c-145 36 -171 -11 -171 -82v-158h128v-42h-128v-458h-48v458h-76v42h76v158c0 100 59 169 233 121z" />
    <glyph glyph-name="g" unicode="g" horiz-adv-x="606" 
d="M570 500v-27l-64 -15v-463c0 -231 -167 -263 -373 -195l14 38c170 -56 312 -47 312 156v73c-58 -45 -114 -81 -193 -81c-147 0 -219 122 -219 262c0 144 76 266 220 266c77 0 134 -44 191 -99l3 85h109zM267 29c73 0 134 40 192 81l-1 262c-62 54 -123 99 -190 99
c-112 0 -171 -99 -171 -223c0 -121 56 -219 170 -219z" />
    <glyph glyph-name="g.ss01" horiz-adv-x="545" 
d="M498 473c-26 2 -52 -7 -68 -26c34 -37 53 -87 53 -142c0 -116 -85 -209 -218 -209c-50 0 -93 13 -127 35c-18 -20 -23 -38 -23 -52c0 -51 50 -53 147 -55c152 -3 236 -20 236 -120c0 -149 -220 -151 -418 -105l14 41c184 -35 356 -36 356 61c0 69 -80 79 -176 78
c-91 -1 -203 2 -203 87c0 34 22 62 44 82c-43 39 -68 94 -68 157c0 116 85 209 218 209c51 0 95 -14 129 -37c26 30 66 38 104 38v-42zM265 138c108 0 170 75 170 167s-62 167 -170 167s-170 -75 -170 -167s62 -167 170 -167z" />
    <glyph glyph-name="gbreve" unicode="&#x11f;" horiz-adv-x="606" 
d="M299 594c-87 0 -133 62 -125 146h48c-5 -65 21 -104 77 -104s82 39 77 104h48c8 -84 -38 -146 -125 -146zM570 500v-27l-64 -15v-463c0 -231 -167 -263 -373 -195l14 38c170 -56 312 -47 312 156v73c-58 -45 -114 -81 -193 -81c-147 0 -219 122 -219 262
c0 144 76 266 220 266c77 0 134 -44 191 -99l3 85h109zM267 29c73 0 134 40 192 81l-1 262c-62 54 -123 99 -190 99c-112 0 -171 -99 -171 -223c0 -121 56 -219 170 -219z" />
    <glyph glyph-name="gbreve.ss01" horiz-adv-x="545" 
d="M268 594c-87 0 -133 62 -125 146h48c-5 -65 21 -104 77 -104s82 39 77 104h48c8 -84 -38 -146 -125 -146zM498 473c-26 2 -52 -7 -68 -26c34 -37 53 -87 53 -142c0 -116 -85 -209 -218 -209c-50 0 -93 13 -127 35c-18 -20 -23 -38 -23 -52c0 -51 50 -53 147 -55
c152 -3 236 -20 236 -120c0 -149 -220 -151 -418 -105l14 41c184 -35 356 -36 356 61c0 69 -80 79 -176 78c-91 -1 -203 2 -203 87c0 34 22 62 44 82c-43 39 -68 94 -68 157c0 116 85 209 218 209c51 0 95 -14 129 -37c26 30 66 38 104 38v-42zM265 138
c108 0 170 75 170 167s-62 167 -170 167s-170 -75 -170 -167s62 -167 170 -167z" />
    <glyph glyph-name="gcommaaccent" unicode="&#x123;" horiz-adv-x="606" 
d="M346 625l-50 -32c-57 80 -5 158 41 206l16 -21c-40 -57 -38 -104 -7 -153zM570 500v-27l-64 -15v-463c0 -231 -167 -263 -373 -195l14 38c170 -56 312 -47 312 156v73c-58 -45 -114 -81 -193 -81c-147 0 -219 122 -219 262c0 144 76 266 220 266c77 0 134 -44 191 -99
l3 85h109zM267 29c73 0 134 40 192 81l-1 262c-62 54 -123 99 -190 99c-112 0 -171 -99 -171 -223c0 -121 56 -219 170 -219z" />
    <glyph glyph-name="gcommaaccent.ss01" horiz-adv-x="545" 
d="M304 625l-50 -32c-57 80 -5 158 41 206l16 -21c-40 -57 -38 -104 -7 -153zM498 473c-26 2 -52 -7 -68 -26c34 -37 53 -87 53 -142c0 -116 -85 -209 -218 -209c-50 0 -93 13 -127 35c-18 -20 -23 -38 -23 -52c0 -41 50 -43 147 -45c142 -3 236 -10 236 -120
c0 -169 -220 -171 -418 -115l14 41c184 -45 356 -46 356 71c0 79 -80 79 -176 78c-91 -1 -203 2 -203 77c0 34 22 62 44 82c-43 39 -68 94 -68 157c0 116 85 209 218 209c51 0 95 -14 129 -37c26 30 66 38 104 38v-42zM265 138c108 0 170 75 170 167s-62 167 -170 167
s-170 -75 -170 -167s62 -167 170 -167z" />
    <glyph glyph-name="gdotaccent" unicode="&#x121;" horiz-adv-x="606" 
d="M341 666l-53 -32l-32 54l54 32zM570 500v-27l-64 -15v-463c0 -231 -167 -263 -373 -195l14 38c170 -56 312 -47 312 156v73c-58 -45 -114 -81 -193 -81c-147 0 -219 122 -219 262c0 144 76 266 220 266c77 0 134 -44 191 -99l3 85h109zM267 29c73 0 134 40 192 81l-1 262
c-62 54 -123 99 -190 99c-112 0 -171 -99 -171 -223c0 -121 56 -219 170 -219z" />
    <glyph glyph-name="gdotaccent.ss01" horiz-adv-x="545" 
d="M310 666l-53 -32l-32 54l54 32zM498 473c-26 2 -52 -7 -68 -26c34 -37 53 -87 53 -142c0 -116 -85 -209 -218 -209c-50 0 -93 13 -127 35c-18 -20 -23 -38 -23 -52c0 -51 50 -53 147 -55c152 -3 236 -20 236 -120c0 -149 -220 -151 -418 -105l14 41
c184 -35 356 -36 356 61c0 69 -80 79 -176 78c-91 -1 -203 2 -203 87c0 34 22 62 44 82c-43 39 -68 94 -68 157c0 116 85 209 218 209c51 0 95 -14 129 -37c26 30 66 38 104 38v-42zM265 138c108 0 170 75 170 167s-62 167 -170 167s-170 -75 -170 -167s62 -167 170 -167z
" />
    <glyph glyph-name="h" unicode="h" horiz-adv-x="606" 
d="M365 514c93 0 163 -57 163 -175v-339h-48v339c0 86 -51 130 -123 131c-63 1 -142 -31 -218 -97v-373h-48v738l-63 15v27h111v-362c74 64 157 96 226 96z" />
    <glyph glyph-name="hbar" unicode="&#x127;" horiz-adv-x="606" 
d="M365 514c93 0 163 -57 163 -175v-339h-48v339c0 86 -51 130 -123 131c-63 1 -142 -31 -218 -97v-373h-48v591h-71v40h72v107l-64 15v27h111v-149h188v-40h-188v-173c74 64 157 96 226 96z" />
    <glyph glyph-name="i" unicode="i" horiz-adv-x="233" 
d="M163 666l-53 -32l-32 54l54 32zM35 500h111v-500h-48v458l-63 15v27z" />
    <glyph glyph-name="dotlessi" unicode="&#x131;" horiz-adv-x="233" 
d="M146 500v-500h-48v458l-63 15v27h111z" />
    <glyph glyph-name="iacute" unicode="&#xed;" horiz-adv-x="233" 
d="M174 741h60l-82 -139h-46zM35 500h111v-500h-48v458l-63 15v27z" />
    <glyph glyph-name="icircumflex" unicode="&#xee;" horiz-adv-x="233" 
d="M144 741l94 -139h-61l-54 92l-6 15l-7 -16l-53 -91h-61l94 139h54zM35 500h111v-500h-48v458l-63 15v27z" />
    <glyph glyph-name="idieresis" unicode="&#xef;" horiz-adv-x="236" 
d="M43 720l31 -54l-53 -32l-32 54zM202 720l31 -54l-53 -32l-32 54zM35 500h111v-500h-48v458l-63 15v27z" />
    <glyph glyph-name="i.loclTRK" horiz-adv-x="233" 
d="M163 666l-53 -32l-32 54l54 32zM35 500h111v-500h-48v458l-63 15v27z" />
    <glyph glyph-name="igrave" unicode="&#xec;" horiz-adv-x="233" 
d="M130 601h-46l-82 139h60zM146 500v-500h-48v458l-63 15v27h111z" />
    <glyph glyph-name="ij" unicode="&#x133;" horiz-adv-x="467" 
d="M78 688l54 32l31 -54l-53 -32zM397 666l-53 -32l-32 54l54 32zM35 500h111v-500h-48v458l-63 15v27zM269 500h111v-580c0 -110 -28 -181 -172 -144l13 38c115 -25 111 35 111 106v538l-63 15v27z" />
    <glyph glyph-name="imacron" unicode="&#x12b;" horiz-adv-x="236" 
d="M-9 692h240v-44h-240v44zM35 500h111v-500h-48v458l-63 15v27z" />
    <glyph glyph-name="iogonek" unicode="&#x12f;" horiz-adv-x="233" 
d="M163 666l-53 -32l-32 54l54 32zM182 -163l12 -38c-61 -55 -177 -43 -195 46c-12 60 43 118 99 155v458l-63 15v27h111v-500c-50 -33 -113 -100 -97 -153c16 -55 87 -45 133 -10z" />
    <glyph glyph-name="j" unicode="j" horiz-adv-x="234" 
d="M164 666l-53 -32l-32 54l54 32zM36 500h111v-580c0 -110 -28 -181 -172 -144l13 38c115 -25 111 35 111 106v538l-63 15v27z" />
    <glyph glyph-name="k" unicode="k" horiz-adv-x="498" 
d="M264 272l207 -272h-59l-192 252h-82v-252h-48l1 738l-63 15v27h111v-53l-1 -433h83l165 206h52l-174 -220l-6 -4z" />
    <glyph glyph-name="kcommaaccent" unicode="&#x137;" horiz-adv-x="498" 
d="M264 272l207 -272h-59l-192 252h-82v-252h-48l1 738l-63 15v27h111v-53l-1 -433h83l165 206h52l-174 -220l-6 -4zM238 -93l50 32c57 -80 5 -158 -41 -206l-16 21c40 57 38 104 7 153z" />
    <glyph glyph-name="l" unicode="l" horiz-adv-x="222" 
d="M139 780v-780h-48v738l-63 15v27h111z" />
    <glyph glyph-name="lacute" unicode="&#x13a;" horiz-adv-x="222" 
d="M169 1021h60l-82 -139h-46zM28 780h111v-780h-48v738l-63 15v27z" />
    <glyph glyph-name="lcaron" unicode="&#x13e;" horiz-adv-x="404" 
d="M28 780h111v-53l-1 -727h-48l1 738l-63 15v27zM328 734c67 -100 15 -187 -68 -225l-12 22c71 43 64 126 29 171z" />
    <glyph glyph-name="lcommaaccent" unicode="&#x13c;" horiz-adv-x="231" 
d="M90 0l1 738l-63 15v27h111v-53l-1 -727h-48zM123 -61c57 -80 5 -158 -41 -206l-16 21c40 57 38 104 7 153z" />
    <glyph glyph-name="ldot" unicode="&#x140;" horiz-adv-x="425" 
d="M28 780h111v-53l-1 -727h-48l1 738l-63 15v27zM322 332l33 -58l-57 -34l-34 58z" />
    <glyph glyph-name="lslash" unicode="&#x142;" horiz-adv-x="244" 
d="M220 420v-50l-70 -44v-326h-48v295l-70 -45v50l70 45l1 393l-63 15v27h111v-53l-1 -351z" />
    <glyph glyph-name="m" unicode="m" horiz-adv-x="941" 
d="M700 514c93 0 163 -57 163 -175v-339h-48v339c0 86 -51 130 -123 131c-64 1 -123 -32 -190 -94c1 -12 2 -24 2 -37v-339h-48v339c0 86 -51 130 -123 131c-63 1 -121 -32 -188 -89v-381h-48v458l-64 15v27h109l2 -75c66 56 129 89 197 89c71 0 129 -33 152 -101
c69 65 135 101 207 101z" />
    <glyph glyph-name="n" unicode="n" horiz-adv-x="612" 
d="M371 514c93 0 163 -57 163 -175v-339h-48v339c0 86 -51 130 -123 131c-63 1 -142 -39 -218 -107v-363h-48v458l-64 15v27h109l3 -92c74 66 157 106 226 106z" />
    <glyph glyph-name="nacute" unicode="&#x144;" horiz-adv-x="612" 
d="M432 741l-82 -139h-46l68 139h60zM371 514c93 0 163 -57 163 -175v-339h-48v339c0 86 -51 130 -123 131c-63 1 -142 -39 -218 -107v-363h-48v458l-64 15v27h109l3 -92c74 66 157 106 226 106z" />
    <glyph glyph-name="ncaron" unicode="&#x148;" horiz-adv-x="612" 
d="M290 602l-94 139h61l53 -91l7 -16l6 15l54 92h61l-94 -139h-54zM371 514c93 0 163 -57 163 -175v-339h-48v339c0 86 -51 130 -123 131c-63 1 -142 -39 -218 -107v-363h-48v458l-64 15v27h109l3 -92c74 66 157 106 226 106z" />
    <glyph glyph-name="ncommaaccent" unicode="&#x146;" horiz-adv-x="614" 
d="M373 514c93 0 163 -57 163 -175v-339h-48v339c0 86 -51 130 -123 131c-63 1 -142 -39 -218 -107v-363h-48v458l-64 15v27h109l3 -92c74 66 157 106 226 106zM281 -93l50 32c57 -80 5 -158 -41 -206l-16 21c40 57 38 104 7 153z" />
    <glyph glyph-name="eng" unicode="&#x14b;" horiz-adv-x="614" 
d="M373 514c93 0 163 -57 163 -175v-339c0 -210 -127 -272 -313 -214l12 41c150 -46 253 -9 253 173v339c0 86 -51 130 -123 131c-63 1 -142 -39 -218 -107v-363h-48v458l-64 15v27h109l3 -92c74 66 157 106 226 106z" />
    <glyph glyph-name="ntilde" unicode="&#xf1;" horiz-adv-x="612" 
d="M230 632h-37c-10 59 33 96 115 66c38 -14 91 -43 91 10h37c10 -59 -33 -96 -115 -66c-38 14 -91 43 -91 -10zM371 514c93 0 163 -57 163 -175v-339h-48v339c0 86 -51 130 -123 131c-63 1 -142 -39 -218 -107v-363h-48v458l-64 15v27h109l3 -92c74 66 157 106 226 106z
" />
    <glyph glyph-name="o" unicode="o" horiz-adv-x="588" 
d="M294 -12c-147 0 -247 112 -247 264s100 262 247 262s247 -110 247 -262s-100 -264 -247 -264zM294 32c117 0 197 89 197 220s-80 218 -197 218s-197 -87 -197 -218s80 -220 197 -220z" />
    <glyph glyph-name="oacute" unicode="&#xf3;" horiz-adv-x="588" 
d="M279 602l68 139h60l-82 -139h-46zM294 -12c-147 0 -247 112 -247 264s100 262 247 262s247 -110 247 -262s-100 -264 -247 -264zM294 32c117 0 197 89 197 220s-80 218 -197 218s-197 -87 -197 -218s80 -220 197 -220z" />
    <glyph glyph-name="ocircumflex" unicode="&#xf4;" horiz-adv-x="588" 
d="M283 693l-53 -91h-61l94 139h54l94 -139h-61l-54 92l-6 15zM294 514c147 0 247 -110 247 -262s-100 -264 -247 -264s-247 112 -247 264s100 262 247 262zM294 32c117 0 197 89 197 220s-80 218 -197 218s-197 -87 -197 -218s80 -220 197 -220z" />
    <glyph glyph-name="odieresis" unicode="&#xf6;" horiz-adv-x="588" 
d="M259 652l-53 -32l-32 54l54 32zM418 652l-53 -32l-32 54l54 32zM294 -12c-147 0 -247 112 -247 264s100 262 247 262s247 -110 247 -262s-100 -264 -247 -264zM294 32c117 0 197 89 197 220s-80 218 -197 218s-197 -87 -197 -218s80 -220 197 -220z" />
    <glyph glyph-name="ograve" unicode="&#xf2;" horiz-adv-x="588" 
d="M303 601h-46l-82 139h60zM294 -12c-147 0 -247 112 -247 264s100 262 247 262s247 -110 247 -262s-100 -264 -247 -264zM294 32c117 0 197 89 197 220s-80 218 -197 218s-197 -87 -197 -218s80 -220 197 -220z" />
    <glyph glyph-name="ohungarumlaut" unicode="&#x151;" horiz-adv-x="588" 
d="M196 601l68 139h60l-82 -139h-46zM346 601l68 139h60l-82 -139h-46zM294 -12c-147 0 -247 112 -247 264s100 262 247 262s247 -110 247 -262s-100 -264 -247 -264zM294 32c117 0 197 89 197 220s-80 218 -197 218s-197 -87 -197 -218s80 -220 197 -220z" />
    <glyph glyph-name="omacron" unicode="&#x14d;" horiz-adv-x="588" 
d="M414 692v-46h-240v46h240zM294 -12c-147 0 -247 112 -247 264s100 262 247 262s247 -110 247 -262s-100 -264 -247 -264zM294 32c117 0 197 89 197 220s-80 218 -197 218s-197 -87 -197 -218s80 -220 197 -220z" />
    <glyph glyph-name="oslash" unicode="&#xf8;" horiz-adv-x="589" 
d="M542 473l-53 -54c33 -45 52 -103 52 -169c0 -152 -100 -264 -247 -264c-67 0 -125 24 -167 64l-49 -50l-31 28l52 53c-33 45 -52 103 -52 169c0 151 100 264 247 264c67 0 125 -24 167 -64l50 51zM97 250c0 -53 13 -98 36 -134l296 301c-34 34 -81 53 -135 53
c-117 0 -197 -89 -197 -220zM491 250c0 53 -13 98 -36 134l-296 -301c34 -34 81 -53 135 -53c117 0 197 89 197 220z" />
    <glyph glyph-name="otilde" unicode="&#xf5;" horiz-adv-x="588" 
d="M168 632c-10 59 33 96 115 66c38 -14 91 -43 91 10h37c10 -59 -33 -96 -115 -66c-38 14 -91 43 -91 -10h-37zM294 -12c-147 0 -247 112 -247 264s100 262 247 262s247 -110 247 -262s-100 -264 -247 -264zM294 32c117 0 197 89 197 220s-80 218 -197 218
s-197 -87 -197 -218s80 -220 197 -220z" />
    <glyph glyph-name="oe" unicode="&#x153;" horiz-adv-x="972" 
d="M47 250c0 147 102 264 249 264c102 0 182 -56 222 -139c33 83 104 139 211 139c188 0 208 -171 191 -257h-375c0 -149 67 -227 197 -227c57 0 97 15 153 47l14 -33c-50 -37 -105 -58 -175 -58c-116 0 -185 59 -217 138c-40 -82 -120 -138 -221 -138
c-147 0 -249 117 -249 264zM97 250c0 -126 82 -220 199 -220s199 94 199 220s-82 220 -199 220s-199 -94 -199 -220zM548 299h328c4 72 -24 171 -149 171c-106 0 -165 -71 -179 -171z" />
    <glyph glyph-name="p" unicode="p" horiz-adv-x="606" 
d="M339 514c144 0 220 -122 220 -266c0 -140 -74 -262 -219 -262c-79 0 -135 35 -192 81v-287h-48l-1 678l-64 15v27h109l4 -79v-6c57 55 114 99 191 99zM339 29c114 0 170 98 170 219c0 124 -59 223 -171 223c-67 0 -128 -45 -190 -99v-262c57 -41 119 -81 191 -81z" />
    <glyph glyph-name="thorn" unicode="&#xfe;" horiz-adv-x="598" 
d="M331 514c144 0 220 -122 220 -266c0 -140 -74 -262 -219 -262c-79 0 -135 35 -192 81v-287h-48l-1 898l-63 15v27h112v-305c57 55 114 99 191 99zM331 29c114 0 170 98 170 219c0 124 -59 223 -171 223c-67 0 -128 -45 -190 -99v-262c57 -41 119 -81 191 -81z" />
    <glyph glyph-name="q" unicode="q" horiz-adv-x="592" 
d="M462 500h45l-1 -720h-48v287c-57 -45 -113 -81 -192 -81c-145 0 -219 122 -219 262c0 144 76 266 220 266c78 0 134 -45 192 -100zM267 29c73 0 134 40 192 81v262c-63 54 -123 99 -191 99c-112 0 -171 -99 -171 -223c0 -121 56 -219 170 -219z" />
    <glyph glyph-name="r" unicode="r" horiz-adv-x="373" 
d="M147 410c60 61 111 117 196 101l-6 -47c-76 15 -129 -44 -190 -104v-360h-48v458l-64 15v27h109l3 -82v-8z" />
    <glyph glyph-name="racute" unicode="&#x155;" horiz-adv-x="373" 
d="M300 741l-82 -139h-46l68 139h60zM147 410c60 61 111 117 196 101l-6 -47c-76 15 -129 -44 -190 -104v-360h-48v458l-64 15v27h109l3 -82v-8z" />
    <glyph glyph-name="rcaron" unicode="&#x159;" horiz-adv-x="373" 
d="M158 602l-94 139h61l53 -91l7 -16l6 15l54 92h61l-94 -139h-54zM147 410c60 61 111 117 196 101l-6 -47c-76 15 -129 -44 -190 -104v-360h-48v458l-64 15v27h109l3 -82v-8z" />
    <glyph glyph-name="rcommaaccent" unicode="&#x157;" horiz-adv-x="373" 
d="M147 410c60 61 111 117 196 101l-6 -47c-76 15 -129 -44 -190 -104v-360h-48v458l-64 15v27h109l3 -82v-8zM191 -93l50 32c57 -80 5 -158 -41 -206l-16 21c40 57 38 104 7 153z" />
    <glyph glyph-name="s" unicode="s" horiz-adv-x="423" 
d="M393 129c0 -167 -216 -163 -360 -106l13 38c133 -46 299 -57 299 63c0 50 -47 83 -126 111c-99 35 -178 65 -178 149c0 140 208 156 333 97l-13 -39c-103 47 -272 42 -272 -53c0 -59 67 -83 130 -106c95 -35 174 -66 174 -154z" />
    <glyph glyph-name="sacute" unicode="&#x15b;" horiz-adv-x="423" 
d="M198 602l68 139h60l-82 -139h-46zM393 129c0 -167 -216 -163 -360 -106l13 38c133 -46 299 -57 299 63c0 50 -47 83 -126 111c-99 35 -178 65 -178 149c0 140 208 156 333 97l-13 -39c-103 47 -272 42 -272 -53c0 -59 67 -83 130 -106c95 -35 174 -66 174 -154z" />
    <glyph glyph-name="scaron" unicode="&#x161;" horiz-adv-x="423" 
d="M184 602l-94 139h61l53 -91l7 -16l6 15l54 92h61l-94 -139h-54zM219 283c95 -35 174 -66 174 -154c0 -167 -216 -163 -360 -106l13 38c133 -46 299 -57 299 63c0 50 -47 83 -126 111c-99 35 -178 65 -178 149c0 140 208 156 333 97l-13 -39c-103 47 -272 42 -272 -53
c0 -59 67 -83 130 -106z" />
    <glyph glyph-name="scedilla" unicode="&#x15f;" horiz-adv-x="423" 
d="M393 129c0 -96 -71 -135 -159 -141l-26 -57c43 8 111 -14 105 -81c-8 -86 -114 -110 -199 -48l12 37c74 -49 135 -35 140 6c6 46 -36 62 -102 52l-16 10l36 81c-51 4 -105 17 -151 35l13 38c133 -46 299 -57 299 63c0 50 -47 83 -126 111c-99 35 -178 65 -178 149
c0 140 208 156 333 97l-13 -39c-103 47 -272 42 -272 -53c0 -59 67 -83 130 -106c95 -35 174 -66 174 -154z" />
    <glyph glyph-name="scommaaccent" unicode="&#x219;" horiz-adv-x="423" 
d="M33 23l13 38c133 -46 299 -57 299 63c0 50 -47 83 -126 111c-99 35 -178 65 -178 149c0 140 208 156 333 97l-13 -39c-103 47 -272 42 -272 -53c0 -59 67 -83 130 -106c95 -35 174 -66 174 -154c0 -167 -216 -163 -360 -106zM205 -267l-16 21c40 57 38 104 7 153l50 32
c57 -80 5 -158 -41 -206z" />
    <glyph glyph-name="germandbls" unicode="&#xdf;" horiz-adv-x="573" 
d="M377 405c-28 -107 156 -139 156 -284c0 -83 -61 -173 -235 -120l12 41c140 -43 174 22 174 76c0 129 -193 157 -154 300c16 61 68 126 83 173c23 72 -42 100 -106 100c-122 0 -148 -104 -148 -216v-475h-48v458h-76v31l77 15c4 117 42 230 197 230
c127 0 174 -77 152 -147c-15 -46 -72 -136 -84 -182z" />
    <glyph glyph-name="t" unicode="t" horiz-adv-x="311" 
d="M279 39l12 -38c-131 -46 -193 25 -193 125v332h-78v28l78 20v113h48v-119h104v-42h-104v-332c0 -71 31 -121 133 -87z" />
    <glyph glyph-name="tbar" unicode="&#x167;" horiz-adv-x="308" 
d="M276 40l12 -38c-131 -46 -193 25 -193 125v127h-75v40h75v164h-75v27l75 21v113h48v-119h99v-42h-99v-164h99v-40h-99v-127c0 -71 31 -121 133 -87z" />
    <glyph glyph-name="tcaron" unicode="&#x165;" horiz-adv-x="447" 
d="M366 734c67 -100 15 -187 -68 -225l-12 22c71 43 64 126 29 171zM143 127c0 -71 31 -121 133 -87l12 -38c-131 -46 -193 25 -193 125v331h-75v27l75 21v113h48v-119h99v-42h-99v-331z" />
    <glyph glyph-name="uni0163" unicode="&#x163;" horiz-adv-x="311" 
d="M187 -69c43 8 111 -14 105 -81c-8 -86 -114 -110 -199 -48l12 37c74 -49 135 -35 140 6c6 46 -36 62 -102 52l-16 10l39 89c-46 20 -68 70 -68 130v332h-78v28l78 20v113h48v-119h104v-42h-104v-332c0 -71 31 -121 133 -87l12 -38c-30 -10 -56 -15 -79 -14z" />
    <glyph glyph-name="uni021B" unicode="&#x21b;" horiz-adv-x="308" 
d="M288 2c-131 -46 -193 25 -193 125v331h-75v27l75 21v113h48v-119h99v-42h-99v-331c0 -71 31 -121 133 -87zM152 -93l50 32c57 -80 5 -158 -41 -206l-16 21c40 57 38 104 7 153z" />
    <glyph glyph-name="u" unicode="u" horiz-adv-x="580" 
d="M484 42l64 -15v-27h-109l-3 82c-69 -64 -139 -96 -207 -96c-88 1 -152 58 -152 175v339h48v-339c0 -85 44 -129 113 -130c60 -2 126 30 198 96v373h48v-458z" />
    <glyph glyph-name="uacute" unicode="&#xfa;" horiz-adv-x="580" 
d="M398 741l-82 -139h-46l68 139h60zM484 42l64 -15v-27h-109l-3 82c-69 -64 -139 -96 -207 -96c-88 1 -152 58 -152 175v339h48v-339c0 -85 44 -129 113 -130c60 -2 126 30 198 96v373h48v-458z" />
    <glyph glyph-name="ucircumflex" unicode="&#xfb;" horiz-adv-x="580" 
d="M274 693l-53 -91h-61l94 139h54l94 -139h-61l-54 92l-6 15zM484 42l64 -15v-27h-109l-3 82c-69 -64 -139 -96 -207 -96c-88 1 -152 58 -152 175v339h48v-339c0 -85 44 -129 113 -130c60 -2 126 30 198 96v373h48v-458z" />
    <glyph glyph-name="udieresis" unicode="&#xfc;" horiz-adv-x="580" 
d="M250 652l-53 -32l-32 54l54 32zM409 652l-53 -32l-32 54l54 32zM484 42l64 -15v-27h-109l-3 82c-69 -64 -139 -96 -207 -96c-88 1 -152 58 -152 175v339h48v-339c0 -85 44 -129 113 -130c60 -2 126 30 198 96v373h48v-458z" />
    <glyph glyph-name="ugrave" unicode="&#xf9;" horiz-adv-x="580" 
d="M294 601h-46l-82 139h60zM484 42l64 -15v-27h-109l-3 82c-69 -64 -139 -96 -207 -96c-88 1 -152 58 -152 175v339h48v-339c0 -85 44 -129 113 -130c60 -2 126 30 198 96v373h48v-458z" />
    <glyph glyph-name="uhungarumlaut" unicode="&#x171;" horiz-adv-x="580" 
d="M315 740l-82 -139h-46l68 139h60zM465 740l-82 -139h-46l68 139h60zM484 42l64 -15v-27h-109l-3 82c-69 -64 -139 -96 -207 -96c-88 1 -152 58 -152 175v339h48v-339c0 -85 44 -129 113 -130c60 -2 126 30 198 96v373h48v-458z" />
    <glyph glyph-name="umacron" unicode="&#x16b;" horiz-adv-x="580" 
d="M405 692v-46h-240v46h240zM484 42l64 -15v-27h-109l-3 82c-69 -64 -139 -96 -207 -96c-88 1 -152 58 -152 175v339h48v-339c0 -85 44 -129 113 -130c60 -2 126 30 198 96v373h48v-458z" />
    <glyph glyph-name="uogonek" unicode="&#x173;" horiz-adv-x="580" 
d="M523 0c-66 -3 -157 -85 -129 -153c20 -48 78 -48 128 -10l12 -38c-66 -54 -168 -39 -190 46c-19 74 42 134 95 155l-3 82c-69 -64 -139 -96 -207 -96c-88 1 -152 58 -152 175v339h48v-339c0 -85 44 -129 113 -130c60 -2 126 30 198 96v373h48v-458l64 -15v-27h-25z" />
    <glyph glyph-name="uring" unicode="&#x16f;" horiz-adv-x="580" 
d="M285 583c-51 0 -92 36 -92 90s41 90 92 90s92 -36 92 -90s-41 -90 -92 -90zM285 727c-26 0 -49 -18 -49 -54s23 -54 49 -54s49 18 49 54s-23 54 -49 54zM484 42l64 -15v-27h-109l-3 82c-69 -64 -139 -96 -207 -96c-88 1 -152 58 -152 175v339h48v-339
c0 -85 44 -129 113 -130c60 -2 126 30 198 96v373h48v-458z" />
    <glyph glyph-name="v" unicode="v" horiz-adv-x="493" 
d="M418 500h50l-195 -500h-51l-197 500h53l166 -436l4 -17l4 17z" />
    <glyph glyph-name="w" unicode="w" horiz-adv-x="759" 
d="M684 500h50l-176 -500h-51l-123 346l-126 -346h-53l-180 500h53l149 -436l4 -17l4 17l126 347l-32 89h53l147 -436l4 -17l4 17z" />
    <glyph glyph-name="wacute" unicode="&#x1e83;" horiz-adv-x="759" 
d="M470 741l-82 -139h-46l68 139h60zM684 500h50l-176 -500h-51l-123 346l-126 -346h-53l-180 500h53l149 -436l4 -17l4 17l126 347l-32 89h53l147 -436l4 -17l4 17z" />
    <glyph glyph-name="wcircumflex" unicode="&#x175;" horiz-adv-x="759" 
d="M346 693l-53 -91h-61l94 139h54l94 -139h-61l-54 92l-6 15zM684 500h50l-176 -500h-51l-123 346l-126 -346h-53l-180 500h53l149 -436l4 -17l4 17l126 347l-32 89h53l147 -436l4 -17l4 17z" />
    <glyph glyph-name="wdieresis" unicode="&#x1e85;" horiz-adv-x="759" 
d="M322 652l-53 -32l-32 54l54 32zM481 652l-53 -32l-32 54l54 32zM684 500h50l-176 -500h-51l-123 346l-126 -346h-53l-180 500h53l149 -436l4 -17l4 17l126 347l-32 89h53l147 -436l4 -17l4 17z" />
    <glyph glyph-name="wgrave" unicode="&#x1e81;" horiz-adv-x="759" 
d="M366 601h-46l-82 139h60zM684 500h50l-176 -500h-51l-123 346l-126 -346h-53l-180 500h53l149 -436l4 -17l4 17l126 347l-32 89h53l147 -436l4 -17l4 17z" />
    <glyph glyph-name="x" unicode="x" horiz-adv-x="496" 
d="M25 0l185 251l6 6l-6 6l-177 237h54l154 -205l5 -10l5 10l146 205h54l-170 -240l-6 -6l6 -6l190 -248h-56l-166 217l-5 10l-5 -10l-158 -217h-56z" />
    <glyph glyph-name="y" unicode="y" horiz-adv-x="531" 
d="M457 500h49l-298 -720h-52l107 254h-31l-207 466h49l198 -442z" />
    <glyph glyph-name="yacute" unicode="&#xfd;" horiz-adv-x="531" 
d="M390 741l-82 -139h-46l68 139h60zM457 500h49l-298 -720h-52l107 254h-31l-207 466h49l198 -442z" />
    <glyph glyph-name="ycircumflex" unicode="&#x177;" horiz-adv-x="531" 
d="M266 693l-53 -91h-61l94 139h54l94 -139h-61l-54 92l-6 15zM457 500h49l-298 -720h-52l107 254h-31l-207 466h49l198 -442z" />
    <glyph glyph-name="ydieresis" unicode="&#xff;" horiz-adv-x="531" 
d="M242 652l-53 -32l-32 54l54 32zM401 652l-53 -32l-32 54l54 32zM457 500h49l-298 -720h-52l107 254h-31l-207 466h49l198 -442z" />
    <glyph glyph-name="ygrave" unicode="&#x1ef3;" horiz-adv-x="531" 
d="M286 601h-46l-82 139h60zM457 500h49l-298 -720h-52l107 254h-31l-207 466h49l198 -442z" />
    <glyph glyph-name="z" unicode="z" horiz-adv-x="445" 
d="M89 42h319v-42h-380v22l307 429l15 7h-292v42h348v-22l-301 -428z" />
    <glyph glyph-name="zacute" unicode="&#x17a;" horiz-adv-x="445" 
d="M340 741l-82 -139h-46l68 139h60zM89 42h319v-42h-380v22l307 429l15 7h-292v42h348v-22l-301 -428z" />
    <glyph glyph-name="zcaron" unicode="&#x17e;" horiz-adv-x="445" 
d="M198 602l-94 139h61l53 -91l7 -16l6 15l54 92h61l-94 -139h-54zM89 42h319v-42h-380v22l307 429l15 7h-292v42h348v-22l-301 -428z" />
    <glyph glyph-name="zdotaccent" unicode="&#x17c;" horiz-adv-x="445" 
d="M269 666l-53 -32l-32 54l54 32zM89 42h319v-42h-380v22l307 429l15 7h-292v42h348v-22l-301 -428z" />
    <glyph glyph-name="c_b" horiz-adv-x="1086" 
d="M820 514c147 0 219 -122 219 -262c0 -144 -76 -266 -220 -266c-78 0 -134 45 -192 100l-3 -86h-45l1 738h-92c-174 0 -160 -202 -56 -272l9 -6l-14 -34c-57 33 -105 49 -157 47c-103 -4 -173 -78 -173 -222c0 -146 71 -219 180 -222c54 -2 101 15 160 49l14 -34
c-60 -39 -113 -57 -172 -57c-132 0 -232 92 -232 265c0 172 99 261 223 263c27 0 53 -3 78 -11c-75 109 -35 276 141 276h139v-237l-1 -110c58 45 114 81 193 81zM818 29c112 0 171 99 171 223c0 121 -56 219 -170 219c-73 0 -134 -40 -192 -81v-262c63 -54 123 -99 191 -99
z" />
    <glyph glyph-name="c_h" horiz-adv-x="1094" 
d="M853 514c93 0 163 -57 163 -175v-339h-48v339c0 86 -51 130 -123 131c-63 1 -141 -31 -217 -96v-374h-48v738h-92c-174 0 -160 -202 -56 -272l9 -6l-14 -34c-57 33 -105 49 -157 47c-103 -4 -173 -78 -173 -222c0 -146 71 -219 180 -222c54 -2 101 15 160 49l14 -34
c-60 -39 -113 -57 -172 -57c-132 0 -232 92 -232 265c0 172 99 261 223 263c27 0 53 -3 78 -11c-75 109 -35 276 141 276h139v-361c74 63 156 95 225 95z" />
    <glyph glyph-name="c_k" horiz-adv-x="989" 
d="M755 272l207 -272h-59l-192 252h-82v-252h-48l1 738h-94c-174 0 -160 -202 -56 -272l9 -6l-14 -34c-57 33 -105 49 -157 47c-103 -4 -173 -78 -173 -222c0 -146 71 -219 180 -222c54 -2 101 15 160 49l14 -34c-60 -39 -113 -57 -172 -57c-132 0 -232 92 -232 265
c0 172 99 261 223 263c27 0 53 -3 78 -11c-75 109 -35 276 141 276h141l-1 -486h83l165 206h52l-174 -220l-6 -4z" />
    <glyph glyph-name="c_t" horiz-adv-x="794" 
d="M772 39l12 -38c-131 -46 -193 25 -193 125v332h-75v27l75 21v172h-102c-16 0 -53 -2 -78 -23c-60 -50 -51 -142 20 -190l8 -5l-14 -34c-57 33 -105 49 -157 47c-103 -4 -173 -78 -173 -222c0 -146 71 -219 180 -222c54 -2 101 15 160 49l14 -34
c-60 -39 -113 -57 -172 -57c-132 0 -232 92 -232 265c0 172 99 261 223 263c28 0 55 -3 82 -12c-41 67 -20 150 42 192c32 21 75 25 98 25h149v-220h99v-42h-99v-332c0 -71 31 -121 133 -87z" />
    <glyph glyph-name="s_b" horiz-adv-x="1020" 
d="M754 514c147 0 219 -122 219 -262c0 -144 -76 -266 -220 -266c-78 0 -134 45 -192 100l-3 -86h-45l1 738h-92c-179 0 -161 -193 -49 -258l-12 -37c-103 44 -272 44 -272 -53c0 -59 67 -84 130 -107c95 -35 174 -65 174 -153c0 -163 -218 -168 -360 -105l13 38
c133 -46 299 -57 299 62c0 50 -47 82 -126 110c-99 35 -178 66 -178 150c0 115 136 145 254 120c-94 103 -58 275 128 275h139v-237l-1 -110c58 45 114 81 193 81zM752 29c112 0 171 99 171 223c0 121 -56 219 -170 219c-73 0 -134 -40 -192 -81v-262
c63 -54 123 -99 191 -99z" />
    <glyph glyph-name="s_h" horiz-adv-x="1029" 
d="M788 514c93 0 163 -57 163 -175v-339h-48v339c0 86 -51 130 -123 131c-63 1 -142 -31 -218 -97v-373h-48v738h-92c-179 0 -161 -193 -49 -258l-12 -37c-103 44 -272 44 -272 -53c0 -59 67 -84 130 -107c95 -35 174 -65 174 -153c0 -163 -218 -168 -360 -105l13 38
c133 -46 299 -57 299 62c0 50 -47 82 -126 110c-99 35 -178 66 -178 150c0 115 136 145 254 120c-94 103 -58 275 128 275h139v-362c74 64 157 96 226 96z" />
    <glyph glyph-name="s_k" horiz-adv-x="922" 
d="M688 272l207 -272h-59l-192 252h-82v-252h-48v738h-92c-179 0 -161 -193 -49 -258l-12 -37c-103 44 -272 44 -272 -53c0 -59 67 -84 130 -107c95 -35 174 -65 174 -153c0 -163 -218 -168 -360 -105l13 38c133 -46 299 -57 299 62c0 50 -47 82 -126 110
c-99 35 -178 66 -178 150c0 115 136 145 254 120c-94 103 -58 275 128 275h139v-486h83l165 206h52l-174 -220l-6 -4z" />
    <glyph glyph-name="s_t" horiz-adv-x="741" 
d="M709 39l12 -38c-131 -46 -193 25 -193 125v332h-75v27l75 21v172h-92c-38 0 -64 -10 -84 -28c-47 -43 -45 -124 21 -170l-12 -37c-103 44 -272 44 -272 -53c0 -59 67 -84 130 -107c95 -35 174 -65 174 -153c0 -163 -218 -168 -360 -105l13 38c133 -46 299 -57 299 62
c0 50 -47 82 -126 110c-99 35 -178 66 -178 150c0 113 137 148 261 120c-48 66 -21 159 54 198c23 12 51 17 81 17h139v-220h99v-42h-99v-332c0 -71 31 -121 133 -87z" />
    <glyph glyph-name="ordfeminine" unicode="&#xaa;" horiz-adv-x="479" 
d="M387 328l47 -12v-26h-88l-3 73c-48 -42 -102 -91 -181 -86c-131 9 -143 151 -99 211c47 64 139 58 280 48v81c0 101 -129 81 -232 43l-8 39c104 38 285 70 284 -78v-293zM343 495c-130 9 -208 15 -242 -33c-26 -36 -32 -131 61 -142c70 -9 137 47 181 86v89z" />
    <glyph glyph-name="ordmasculine" unicode="&#xba;" horiz-adv-x="496" 
d="M248 280c-126 0 -213 96 -213 227s87 227 213 227s213 -96 213 -227s-87 -227 -213 -227zM248 325c99 0 164 71 164 182s-65 182 -164 182s-164 -69 -164 -182c0 -111 65 -182 164 -182z" />
    <glyph glyph-name="Delta" unicode="&#x394;" horiz-adv-x="670" 
d="M67 0l-32 50l273 670h54l273 -670l-32 -50h-536zM82 44l10 4h486l10 -4l-7 9l-242 604l-4 19l-4 -19l-242 -604z" />
    <glyph glyph-name="Omega" unicode="&#x3a9;" horiz-adv-x="744" 
d="M684 427c0 -112 -64 -225 -173 -288l-1 -97h130v-42h-177v165c108 53 171 158 171 262c2 153 -107 263 -262 263s-264 -110 -262 -263c0 -104 63 -209 172 -262v-165h-177v42h129l-1 97c-109 64 -173 176 -173 288c-2 174 127 307 312 307s314 -133 312 -307z" />
    <glyph glyph-name="mu" unicode="&#x3bc;" horiz-adv-x="580" 
d="M484 42l64 -15v-27h-109l-3 82c-69 -64 -139 -96 -207 -96c-46 1 -86 17 -113 49l9 -255h-48v720h48v-339c0 -85 44 -129 113 -130c60 -2 126 30 198 96v373h48v-458z" />
    <glyph glyph-name="pi" unicode="&#x3c0;" horiz-adv-x="628" 
d="M603 458h-120v-416l62 -15v-27h-110v458h-242v-458h-48v458h-120v42h578v-42z" />
    <glyph glyph-name="zero" unicode="0" horiz-adv-x="692" 
d="M346 -14c-200 0 -286 164 -286 374s86 374 286 374s286 -164 286 -374s-86 -374 -286 -374zM346 30c164 0 236 136 236 330s-72 330 -236 330s-236 -136 -236 -330s72 -330 236 -330z" />
    <glyph glyph-name="one" unicode="1" horiz-adv-x="267" 
d="M26 704l133 20v-724h-48v672h-85v32z" />
    <glyph glyph-name="two" unicode="2" horiz-adv-x="547" 
d="M106 43h389v-43h-453v31l313 355c100 113 100 202 49 253c-56 56 -186 68 -322 4l-14 42c138 64 291 70 375 -17c65 -68 74 -172 -50 -311l-273 -307z" />
    <glyph glyph-name="three" unicode="3" horiz-adv-x="566" 
d="M50 40l15 43c169 -91 397 -56 397 116c0 107 -90 154 -200 154h-37v42h29c124 0 216 92 184 201c-33 99 -191 122 -350 48l-15 43c200 95 389 43 419 -87c24 -88 -34 -182 -121 -222c76 -16 141 -77 141 -179c0 -212 -266 -266 -462 -159z" />
    <glyph glyph-name="four" unicode="4" horiz-adv-x="532" 
d="M414 380h48v-380h-48v148h-364v42l229 530h51l-226 -525l-9 -5h319v190z" />
    <glyph glyph-name="five" unicode="5" horiz-adv-x="567" 
d="M517 247c5 -159 -115 -259 -256 -258c-68 0 -142 18 -201 54l15 43c55 -33 124 -50 186 -50c114 0 207 78 206 204c-2 191 -218 264 -365 98l-32 2l29 380h373v-42h-334l-21 -278c144 150 393 66 400 -153z" />
    <glyph glyph-name="six" unicode="6" horiz-adv-x="583" 
d="M428 431c72 -44 106 -124 105 -204c-3 -120 -84 -241 -238 -241c-280 0 -279 413 -155 611c102 163 261 144 348 100l-14 -41c-80 41 -208 52 -292 -82c-40 -64 -65 -145 -72 -226c74 126 219 143 318 83zM483 223c3 110 -67 198 -174 198c-79 2 -163 -46 -201 -152
l3 -33c14 -115 73 -206 184 -206c124 0 185 97 188 193z" />
    <glyph glyph-name="seven" unicode="7" horiz-adv-x="553" 
d="M70 720h433v-42l-293 -678h-52l291 674l9 4h-388v42z" />
    <glyph glyph-name="eight" unicode="8" horiz-adv-x="601" 
d="M383 391c82 -23 168 -86 168 -209c0 -104 -73 -196 -245 -196c-173 0 -256 92 -256 200c0 119 86 181 169 204c-67 21 -137 74 -137 172c0 93 72 172 221 172c148 0 212 -79 212 -168c0 -100 -67 -154 -132 -175zM131 558c0 -106 99 -136 169 -146c70 10 166 40 166 149
c0 69 -51 129 -164 129c-114 0 -171 -60 -171 -132zM305 30c138 0 200 73 200 156c0 134 -118 171 -203 182c-85 -11 -206 -48 -206 -177c0 -88 69 -161 209 -161z" />
    <glyph glyph-name="nine" unicode="9" horiz-adv-x="586" 
d="M288 728c290 0 279 -413 155 -611c-102 -163 -261 -144 -348 -100l14 41c80 -41 209 -51 292 82c42 67 68 151 76 232c-73 -131 -221 -150 -322 -89c-72 44 -106 124 -105 204c3 120 84 241 238 241zM274 293c82 -2 169 49 204 162c0 11 -1 22 -3 33
c-17 110 -76 196 -187 196c-124 0 -185 -97 -188 -193c-3 -110 67 -198 174 -198z" />
    <glyph glyph-name="zero.osf" horiz-adv-x="626" 
d="M313 -14c-180 0 -266 124 -266 264s86 264 266 264s266 -124 266 -264s-86 -264 -266 -264zM313 30c144 0 216 96 216 220s-72 220 -216 220s-216 -96 -216 -220s72 -220 216 -220z" />
    <glyph glyph-name="one.osf" horiz-adv-x="247" 
d="M29 480l123 20v-49l-1 -451h-48l1 451h-75v29z" />
    <glyph glyph-name="two.osf" horiz-adv-x="471" 
d="M118 43h305v-43h-383v31l135 111c94 77 228 164 190 261c-33 85 -168 84 -299 27l-14 40c145 70 321 59 360 -53c44 -124 -113 -230 -206 -308l-70 -59z" />
    <glyph glyph-name="three.osf" horiz-adv-x="532" 
d="M35 -214l15 43c266 -56 364 44 377 151c12 100 -57 153 -180 153h-37v42h29c123 0 221 96 183 203c-35 98 -194 119 -349 46l-14 43c188 90 370 46 413 -70c35 -92 -22 -195 -116 -239c80 -21 129 -82 121 -177c-12 -137 -137 -260 -442 -195z" />
    <glyph glyph-name="four.osf" horiz-adv-x="545" 
d="M505 -4v-42h-102v-174h-48v174h-303v42l219 504h51l-215 -500l-10 -4h259v194h48v-194h101z" />
    <glyph glyph-name="five.osf" horiz-adv-x="565" 
d="M292 251c147 0 222 -112 218 -229c-5 -126 -103 -257 -303 -257c-39 0 -88 5 -142 17l15 42c52 -12 91 -15 127 -15c166 0 248 108 254 211c5 95 -54 187 -169 187c-66 0 -122 -29 -198 -90v-1h-1l-33 2l29 382h373v-42h-334l-22 -282c59 51 114 75 186 75z" />
    <glyph glyph-name="six.osf" horiz-adv-x="588" 
d="M533 245c2 -127 -81 -259 -238 -259c-280 0 -279 413 -155 611c102 163 261 144 348 100l-14 -41c-80 41 -208 52 -292 -82c-36 -58 -61 -136 -69 -214c92 133 246 140 337 66c54 -44 81 -111 83 -181zM295 30c121 0 191 111 190 216c-2 107 -75 181 -170 182
c-95 0 -163 -56 -205 -139c0 -13 1 -26 2 -39c11 -121 67 -220 183 -220z" />
    <glyph glyph-name="seven.osf" horiz-adv-x="538" 
d="M60 500h433v-42l-293 -678h-52l291 674l9 4h-388v42z" />
    <glyph glyph-name="eight.osf" horiz-adv-x="602" 
d="M383 391c82 -23 168 -86 168 -209c0 -104 -73 -196 -245 -196c-173 0 -256 92 -256 200c0 119 86 181 169 204c-67 21 -137 74 -137 172c0 93 72 172 221 172c148 0 212 -79 212 -168c0 -100 -67 -154 -132 -175zM131 558c0 -106 99 -136 169 -146c70 10 166 40 166 149
c0 69 -51 129 -164 129c-114 0 -171 -60 -171 -132zM305 30c138 0 200 73 200 156c0 134 -118 171 -203 182c-85 -11 -206 -48 -206 -177c0 -88 69 -161 209 -161z" />
    <glyph glyph-name="nine.osf" horiz-adv-x="593" 
d="M298 514c280 0 279 -413 155 -611c-102 -163 -261 -144 -348 -100l14 41c80 -41 208 -52 292 82c36 58 61 136 69 214c-92 -133 -246 -140 -337 -66c-54 44 -81 111 -83 181c-2 127 81 259 238 259zM278 72c95 0 163 56 205 139c0 13 -1 26 -2 39
c-11 121 -67 220 -183 220c-121 0 -191 -111 -190 -216c2 -107 75 -181 170 -182z" />
    <glyph glyph-name="fraction" unicode="&#x2044;" horiz-adv-x="488" 
d="M416 720h52l-397 -720h-51z" />
    <glyph glyph-name="onehalf" unicode="&#xbd;" horiz-adv-x="897" 
d="M38 677v28l93 15v-434h-44v391h-49zM552 720h52l-397 -720h-51zM638 44l-13 -7h224v-37h-275v30l191 212c41 46 59 98 28 132c-37 40 -111 43 -194 4l-12 36c83 39 183 45 234 -8c54 -57 26 -129 -20 -181z" />
    <glyph glyph-name="onequarter" unicode="&#xbc;" horiz-adv-x="812" 
d="M38 677v28l93 15v-434h-44v391h-49zM552 720h52l-397 -720h-51zM724 231h43v-231h-43v85h-215v38l141 311h45l-139 -308l-6 -3h174v108z" />
    <glyph glyph-name="threequarters" unicode="&#xbe;" horiz-adv-x="953" 
d="M252 514c42 -10 75 -47 75 -106c0 -135 -171 -170 -287 -89l17 36c94 -64 225 -49 225 54c0 60 -44 82 -108 82h-22v39h18c66 0 100 41 102 83c3 70 -83 109 -203 46l-12 37c113 58 218 39 249 -28c26 -52 2 -130 -54 -154zM693 720h52l-397 -720h-51zM865 231h43v-231
h-43v85h-215v38l141 311h45l-139 -308l-6 -3h174v108z" />
    <glyph glyph-name="oneeighth" unicode="&#x215b;" horiz-adv-x="889" 
d="M38 677v28l93 15v-434h-44v391h-49zM552 720h52l-397 -720h-51zM757 236c50 -14 102 -52 102 -127c0 -63 -45 -119 -149 -119c-105 0 -156 56 -156 121c0 73 52 110 103 124c-41 13 -83 45 -83 105c0 56 43 104 134 104c90 0 129 -48 129 -102c0 -61 -41 -93 -80 -106z
M615 335c0 -57 54 -74 90 -81c37 7 88 24 88 82c0 37 -26 69 -87 69s-91 -32 -91 -70zM708 29c73 0 106 39 106 83c0 73 -63 92 -108 101c-44 -9 -109 -28 -109 -98c0 -47 35 -86 111 -86z" />
    <glyph glyph-name="threeeighths" unicode="&#x215c;" horiz-adv-x="1030" 
d="M40 319l17 36c94 -64 225 -49 225 54c0 60 -44 82 -108 82h-22v39h18c66 0 100 41 102 83c3 70 -83 109 -203 46l-12 37c113 58 218 39 249 -28c26 -52 2 -130 -54 -154c42 -10 75 -47 75 -106c0 -135 -171 -170 -287 -89zM693 720h52l-397 -720h-51zM898 236
c50 -14 102 -52 102 -127c0 -63 -45 -119 -149 -119c-105 0 -156 56 -156 121c0 73 52 110 103 124c-41 13 -83 45 -83 105c0 56 43 104 134 104c90 0 129 -48 129 -102c0 -61 -41 -93 -80 -106zM756 335c0 -57 54 -74 90 -81c37 7 88 24 88 82c0 37 -26 69 -87 69
s-91 -32 -91 -70zM849 29c73 0 106 39 106 83c0 73 -63 92 -108 101c-44 -9 -109 -28 -109 -98c0 -47 35 -86 111 -86z" />
    <glyph glyph-name="fiveeighths" unicode="&#x215d;" horiz-adv-x="1031" 
d="M89 530c97 84 247 37 247 -100c0 -103 -80 -154 -172 -149c-39 2 -81 14 -119 36l14 35c35 -20 72 -31 106 -33c70 -2 127 34 127 111c0 109 -127 141 -209 56l-34 1l17 233h234v-38h-199zM694 720h52l-397 -720h-51zM899 236c50 -14 102 -52 102 -127
c0 -63 -45 -119 -149 -119c-105 0 -156 56 -156 121c0 73 52 110 103 124c-41 13 -83 45 -83 105c0 56 43 104 134 104c90 0 129 -48 129 -102c0 -61 -41 -93 -80 -106zM757 335c0 -57 54 -74 90 -81c37 7 88 24 88 82c0 37 -26 69 -87 69s-91 -32 -91 -70zM850 29
c73 0 106 39 106 83c0 73 -63 92 -108 101c-44 -9 -109 -28 -109 -98c0 -47 35 -86 111 -86z" />
    <glyph glyph-name="seveneighths" unicode="&#x215e;" horiz-adv-x="930" 
d="M300 720v-38l-178 -396h-46l177 391l13 5h-229v38h263zM593 720h52l-397 -720h-51zM798 236c50 -14 102 -52 102 -127c0 -63 -45 -119 -149 -119c-105 0 -156 56 -156 121c0 73 52 110 103 124c-41 13 -83 45 -83 105c0 56 43 104 134 104c90 0 129 -48 129 -102
c0 -61 -41 -93 -80 -106zM656 335c0 -57 54 -74 90 -81c37 7 88 24 88 82c0 37 -26 69 -87 69s-91 -32 -91 -70zM749 29c73 0 106 39 106 83c0 73 -63 92 -108 101c-44 -9 -109 -28 -109 -98c0 -47 35 -86 111 -86z" />
    <glyph glyph-name="zero.dnom" horiz-adv-x="442" 
d="M221 -10c-122 0 -174 99 -174 227s52 227 174 227s174 -99 174 -227s-52 -227 -174 -227zM221 29c88 0 129 75 129 188s-41 188 -129 188s-129 -75 -129 -188s41 -188 129 -188z" />
    <glyph glyph-name="one.dnom" horiz-adv-x="226" 
d="M38 419l93 15v-434h-44v391h-49v28z" />
    <glyph glyph-name="two.dnom" horiz-adv-x="363" 
d="M104 44l-13 -7h224v-37h-275v30l191 212c41 46 59 98 28 132c-37 40 -111 43 -194 4l-12 36c83 39 183 45 234 -8c54 -57 26 -129 -20 -181z" />
    <glyph glyph-name="three.dnom" horiz-adv-x="367" 
d="M40 23l17 36c94 -54 225 -39 225 64c0 60 -44 82 -108 82h-22v39h18c66 0 100 41 102 83c3 70 -79 105 -203 56l-12 37c147 59 272 14 258 -101c-5 -39 -25 -75 -63 -91c42 -10 75 -47 75 -106c0 -135 -171 -170 -287 -99z" />
    <glyph glyph-name="four.dnom" horiz-adv-x="338" 
d="M250 231h43v-231h-43v85h-215v38l141 311h45l-139 -308l-6 -3h174v108z" />
    <glyph glyph-name="five.dnom" horiz-adv-x="383" 
d="M89 244c97 84 247 37 247 -100c0 -103 -80 -154 -172 -149c-39 2 -81 14 -119 36l14 35c35 -20 72 -31 106 -33c70 -2 127 34 127 111c0 109 -127 141 -209 56l-34 1l17 233h234v-38h-199z" />
    <glyph glyph-name="six.dnom" horiz-adv-x="374" 
d="M261 278c48 -23 79 -73 79 -133c-1 -78 -57 -156 -155 -156c-179 0 -177 235 -99 370c58 101 162 98 221 61l-15 -37c-49 32 -124 31 -166 -38c-20 -32 -35 -72 -43 -112c44 57 112 75 178 45zM186 29c73 0 110 58 110 115c0 63 -44 111 -107 109
c-40 -1 -83 -24 -112 -79c-1 -7 0 -15 0 -22c5 -69 37 -123 109 -123z" />
    <glyph glyph-name="seven.dnom" horiz-adv-x="337" 
d="M37 434h263v-38l-178 -396h-46l177 391l13 5h-229v38z" />
    <glyph glyph-name="eight.dnom" horiz-adv-x="365" 
d="M233 236c50 -14 102 -52 102 -127c0 -63 -45 -119 -149 -119c-105 0 -156 56 -156 121c0 73 52 110 103 124c-41 13 -83 45 -83 105c0 56 43 104 134 104c90 0 129 -48 129 -102c0 -61 -41 -93 -80 -106zM91 335c0 -57 54 -74 90 -81c37 7 88 24 88 82
c0 37 -26 69 -87 69s-91 -32 -91 -70zM184 29c73 0 106 39 106 83c0 73 -63 92 -108 101c-44 -9 -109 -28 -109 -98c0 -47 35 -86 111 -86z" />
    <glyph glyph-name="nine.dnom" horiz-adv-x="374" 
d="M190 444c179 0 177 -235 99 -370c-58 -101 -162 -98 -221 -61l15 37c49 -32 124 -31 166 38c20 32 35 72 43 112c-44 -57 -112 -75 -178 -45c-48 23 -79 73 -79 133c1 78 57 156 155 156zM186 180c40 1 83 24 112 79c1 7 0 15 0 22c-5 69 -37 123 -109 123
c-73 0 -110 -58 -110 -115c0 -63 44 -111 107 -109z" />
    <glyph glyph-name="zero.numr" horiz-adv-x="442" 
d="M221 276c-122 0 -174 100 -174 227s52 227 174 227s174 -100 174 -227s-52 -227 -174 -227zM221 315c88 0 129 75 129 188s-41 188 -129 188s-129 -75 -129 -188s41 -188 129 -188z" />
    <glyph glyph-name="one.numr" horiz-adv-x="226" 
d="M38 705l93 15v-434h-44v391h-49v28z" />
    <glyph glyph-name="two.numr" horiz-adv-x="363" 
d="M104 330l-13 -7h224v-37h-275v30l191 212c41 46 58 98 27 132c-37 40 -110 43 -193 4l-12 36c83 39 183 45 234 -8c54 -57 26 -129 -20 -181z" />
    <glyph glyph-name="three.numr" horiz-adv-x="367" 
d="M40 319l17 36c94 -64 225 -49 225 54c0 60 -44 82 -108 82h-22v39h18c66 0 100 41 102 83c3 70 -83 109 -203 46l-12 37c113 58 218 39 249 -28c26 -52 2 -130 -54 -154c42 -10 75 -47 75 -106c0 -135 -171 -170 -287 -89z" />
    <glyph glyph-name="four.numr" horiz-adv-x="338" 
d="M250 517h43v-231h-43v85h-215v38l141 311h45l-139 -308l-6 -3h174v108z" />
    <glyph glyph-name="five.numr" horiz-adv-x="383" 
d="M89 530c97 84 247 37 247 -100c0 -103 -80 -154 -172 -149c-39 2 -81 14 -119 36l14 35c35 -20 72 -31 106 -33c70 -2 127 34 127 111c0 109 -127 141 -209 56l-34 1l17 233h234v-38h-199z" />
    <glyph glyph-name="six.numr" horiz-adv-x="374" 
d="M261 565c48 -23 79 -73 79 -133c-1 -78 -57 -156 -155 -156c-179 0 -177 235 -99 370c58 101 162 98 221 61l-15 -37c-49 32 -124 31 -166 -38c-20 -32 -35 -72 -43 -112c44 57 112 75 178 45zM186 316c73 0 110 58 110 115c0 63 -44 111 -107 109
c-40 -1 -83 -24 -112 -79c-1 -7 0 -15 0 -22c5 -69 37 -123 109 -123z" />
    <glyph glyph-name="seven.numr" horiz-adv-x="337" 
d="M37 720h263v-38l-178 -396h-46l177 391l13 5h-229v38z" />
    <glyph glyph-name="eight.numr" horiz-adv-x="365" 
d="M233 522c50 -14 102 -52 102 -127c0 -63 -45 -119 -149 -119c-105 0 -156 56 -156 121c0 73 52 110 103 124c-41 13 -83 45 -83 105c0 56 43 104 134 104c90 0 129 -48 129 -102c0 -61 -41 -93 -80 -106zM91 621c0 -57 54 -74 90 -81c37 7 88 24 88 82
c0 37 -26 69 -87 69s-91 -32 -91 -70zM184 315c73 0 106 39 106 83c0 73 -63 92 -108 101c-44 -9 -109 -28 -109 -98c0 -47 35 -86 111 -86z" />
    <glyph glyph-name="nine.numr" horiz-adv-x="374" 
d="M190 731c179 0 177 -235 99 -370c-58 -101 -162 -98 -221 -61l15 37c49 -32 124 -31 166 38c20 32 35 72 43 112c-44 -57 -112 -75 -178 -45c-48 23 -79 73 -79 133c1 78 57 156 155 156zM186 467c40 1 83 24 112 79c1 7 0 15 0 22c-5 69 -37 123 -109 123
c-73 0 -110 -58 -110 -115c0 -63 44 -111 107 -109z" />
    <glyph glyph-name="uni00B9" unicode="&#xb9;" horiz-adv-x="226" 
d="M38 705l93 15v-434h-44v391h-49v28z" />
    <glyph glyph-name="uni00B2" unicode="&#xb2;" horiz-adv-x="363" 
d="M104 330l-13 -7h224v-37h-275v30l191 212c41 46 58 98 27 132c-37 40 -110 43 -193 4l-12 36c83 39 183 45 234 -8c54 -57 26 -129 -20 -181z" />
    <glyph glyph-name="uni00B3" unicode="&#xb3;" horiz-adv-x="367" 
d="M40 319l17 36c94 -64 225 -49 225 54c0 60 -44 82 -108 82h-22v39h18c66 0 100 41 102 83c3 70 -83 109 -203 46l-12 37c113 58 218 39 249 -28c26 -52 2 -130 -54 -154c42 -10 75 -47 75 -106c0 -135 -171 -170 -287 -89z" />
    <glyph glyph-name="asterisk" unicode="*" horiz-adv-x="307" 
d="M257 657l-74 -39l74 -40l-19 -29l-69 42l5 -83h-40l5 84l-70 -43l-19 29l74 40l-74 39l19 29l70 -43l-5 83h40l-5 -82l69 42z" />
    <glyph glyph-name="backslash" unicode="\" horiz-adv-x="362" 
d="M66 720l276 -720h-45l-277 720h46z" />
    <glyph glyph-name="periodcentered" unicode="&#xb7;" horiz-adv-x="231" 
d="M161 274l-57 -34l-34 58l58 34z" />
    <glyph glyph-name="bullet" unicode="&#x2022;" horiz-adv-x="343" 
d="M273 259l-127 -75l-76 129l130 75z" />
    <glyph glyph-name="colon" unicode=":" horiz-adv-x="231" 
d="M161 442l-57 -34l-34 58l58 34zM161 34l-57 -34l-34 58l58 34z" />
    <glyph glyph-name="comma" unicode="," horiz-adv-x="233" 
d="M70 -128l20 -20c56 58 108 146 41 236l-50 -32c41 -59 39 -117 -11 -184z" />
    <glyph glyph-name="ellipsis" unicode="&#x2026;" horiz-adv-x="711" 
d="M161 34l-57 -34l-34 58l58 34zM401 34l-57 -34l-34 58l58 34zM641 34l-57 -34l-34 58l58 34z" />
    <glyph glyph-name="exclam" unicode="!" horiz-adv-x="241" 
d="M101 200l-6 520h52l-6 -520h-40zM166 35l-57 -34l-34 58l58 34z" />
    <glyph glyph-name="exclamdown" unicode="&#xa1;" horiz-adv-x="241" 
d="M166 465l-33 -58l-58 34l34 58zM101 300h40l6 -520h-52z" />
    <glyph glyph-name="numbersign" unicode="#" horiz-adv-x="804" 
d="M749 458h-160l-52 -186h148v-42h-160l-65 -230h-49l65 230h-221l-65 -230h-49l65 230h-156v42h168l52 186h-153v42h165l62 220h49l-62 -220h221l62 220h49l-62 -220h148v-42zM488 272l52 186h-221l-52 -186h221z" />
    <glyph glyph-name="period" unicode="." horiz-adv-x="231" 
d="M161 29l-57 -34l-34 58l58 34z" />
    <glyph glyph-name="question" unicode="?" horiz-adv-x="491" 
d="M202 200c0 86 42 142 96 194c48 46 106 103 91 187c-22 123 -180 136 -311 71l-13 38c151 75 343 58 373 -99c18 -96 -40 -159 -100 -219c-56 -56 -93 -94 -93 -172h-43zM212 0l-34 58l58 34l33 -58z" />
    <glyph glyph-name="questiondown" unicode="&#xbf;" horiz-adv-x="481" 
d="M255 409l-33 58l57 34l34 -58zM426 -189c-151 -75 -343 -58 -373 99c-18 96 40 159 100 219c56 56 93 94 93 172h43c0 -86 -42 -142 -96 -194c-48 -46 -106 -103 -91 -187c22 -123 180 -136 311 -71z" />
    <glyph glyph-name="quotedbl" unicode="&#x22;" horiz-adv-x="329" 
d="M64 504l-4 216h54l-4 -216h-46zM219 504l-4 216h54l-4 -216h-46z" />
    <glyph glyph-name="quotesingle" unicode="'" horiz-adv-x="174" 
d="M64 504l-4 216h54l-4 -216h-46z" />
    <glyph glyph-name="semicolon" unicode=";" horiz-adv-x="234" 
d="M107 409l-34 58l58 34l33 -58zM90 -148l-20 20c50 67 52 125 11 184l50 32c67 -90 15 -178 -41 -236z" />
    <glyph glyph-name="slash" unicode="/" horiz-adv-x="363" 
d="M296 720h46l-277 -720h-45z" />
    <glyph glyph-name="underscore" unicode="_" horiz-adv-x="630" 
d="M550 -14v-42h-470v42h470z" />
    <glyph glyph-name="braceleft" unicode="{" horiz-adv-x="312" 
d="M259 -169c-59 20 -130 49 -130 199v120c2 50 -1 165 -79 165v51c78 0 80 114 79 164v120c0 150 71 179 130 199l13 -42c-53 -18 -93 -42 -93 -157v-120c1 -70 2 -145 -67 -190c69 -53 69 -120 67 -190v-120c0 -115 40 -139 93 -157z" />
    <glyph glyph-name="braceright" unicode="}" horiz-adv-x="312" 
d="M53 -169l-13 42c53 18 93 38 93 157v120c-2 70 -2 137 67 190c-69 45 -68 120 -67 190v120c0 115 -40 139 -93 157l13 42c59 -20 130 -49 130 -199v-120c-1 -50 1 -164 79 -164v-51c-78 0 -81 -115 -79 -165v-120c0 -150 -71 -179 -130 -199z" />
    <glyph glyph-name="bracketleft" unicode="[" horiz-adv-x="329" 
d="M287 798h-148l-1 -916h149v-42h-197l1 1000h196v-42z" />
    <glyph glyph-name="bracketright" unicode="]" horiz-adv-x="329" 
d="M239 840v-1000h-197v42h149l-1 916h-148v42h197z" />
    <glyph glyph-name="parenleft" unicode="(" horiz-adv-x="305" 
d="M244 830h46c-211 -347 -213 -649 0 -1000h-46c-218 341 -220 656 0 1000z" />
    <glyph glyph-name="parenright" unicode=")" horiz-adv-x="305" 
d="M15 830h46c220 -344 218 -659 0 -1000h-46c213 351 211 653 0 1000z" />
    <glyph glyph-name="emdash" unicode="&#x2014;" horiz-adv-x="897" 
d="M817 271v-42h-737v42h737z" />
    <glyph glyph-name="endash" unicode="&#x2013;" horiz-adv-x="557" 
d="M477 271v-42h-397v42h397z" />
    <glyph glyph-name="hyphen" unicode="-" horiz-adv-x="407" 
d="M327 271v-42h-247v42h247z" />
    <glyph glyph-name="uni00AD" unicode="&#xad;" horiz-adv-x="407" 
d="M327 271v-42h-247v42h247z" />
    <glyph glyph-name="guillemotleft" unicode="&#xab;" horiz-adv-x="462" 
d="M55 249v52l157 117v-53l-122 -90l122 -90v-53zM402 418v-53l-122 -90l122 -90v-53l-157 117v52z" />
    <glyph glyph-name="guillemotright" unicode="&#xbb;" horiz-adv-x="462" 
d="M60 365v53l157 -117v-52l-157 -117v53l122 90zM250 418l157 -117v-52l-157 -117v53l122 90l-122 90v53z" />
    <glyph glyph-name="guilsinglleft" unicode="&#x2039;" horiz-adv-x="272" 
d="M212 418v-53l-122 -90l122 -90v-53l-157 117v52z" />
    <glyph glyph-name="guilsinglright" unicode="&#x203a;" horiz-adv-x="262" 
d="M55 418l157 -117v-52l-157 -117v53l122 90l-122 90v53z" />
    <glyph glyph-name="quotedblbase" unicode="&#x201e;" horiz-adv-x="381" 
d="M72 -143l-12 22c71 43 65 136 30 181l50 32c67 -100 15 -197 -68 -235zM212 -143l-12 22c71 43 65 136 30 181l50 32c67 -100 15 -197 -68 -235z" />
    <glyph glyph-name="quotedblleft" unicode="&#x201c;" horiz-adv-x="341" 
d="M76 499c-67 100 -15 197 68 235l12 -22c-71 -43 -65 -136 -30 -181zM216 499c-67 100 -15 197 68 235l12 -22c-71 -43 -65 -136 -30 -181z" />
    <glyph glyph-name="quotedblright" unicode="&#x201d;" horiz-adv-x="341" 
d="M57 499l-12 22c71 43 65 136 30 181l50 32c67 -100 15 -197 -68 -235zM197 499l-12 22c71 43 65 136 30 181l50 32c67 -100 15 -197 -68 -235z" />
    <glyph glyph-name="quoteleft" unicode="&#x2018;" horiz-adv-x="201" 
d="M76 499c-67 100 -15 197 68 235l12 -22c-71 -43 -65 -136 -30 -181z" />
    <glyph glyph-name="quoteright" unicode="&#x2019;" horiz-adv-x="201" 
d="M57 499l-12 22c71 43 65 136 30 181l50 32c67 -100 15 -197 -68 -235z" />
    <glyph glyph-name="quotesinglbase" unicode="&#x201a;" horiz-adv-x="241" 
d="M72 -143l-12 22c71 43 65 136 30 181l50 32c67 -100 15 -197 -68 -235z" />
    <glyph glyph-name="uni2034" unicode="&#x2034;" horiz-adv-x="565" 
d="M60 499l71 221h59l-87 -221h-43zM220 499l71 221h59l-84 -221h-46zM380 499l71 221h59l-87 -221h-43z" />
    <glyph glyph-name="cent" unicode="&#xa2;" horiz-adv-x="498" 
d="M451 44c-53 -35 -101 -53 -153 -56v-102h-48v103c-117 12 -203 103 -203 263c0 163 89 251 203 262l1 100h48l-1 -100c48 -4 95 -22 144 -54l-12 -34c-57 33 -108 49 -160 47c-103 -4 -173 -78 -173 -222c0 -146 71 -219 180 -222c54 -2 104 15 163 49z" />
    <glyph glyph-name="currency" unicode="&#xa4;" horiz-adv-x="660" 
d="M576 340c0 -60 -22 -116 -57 -158l66 -66l-30 -30l-66 66c-43 -36 -98 -58 -158 -58c-61 0 -116 22 -159 58l-67 -66l-30 30l67 66c-36 43 -57 98 -57 158s22 115 58 158l-68 67l30 30l68 -67c43 35 98 57 158 57c59 0 114 -21 157 -57l67 67l30 -30l-67 -67
c36 -42 58 -98 58 -158zM331 139c107 0 194 87 194 201c0 113 -87 200 -194 200c-108 0 -195 -87 -195 -200c0 -114 87 -201 195 -201z" />
    <glyph glyph-name="dollar" unicode="$" horiz-adv-x="596" 
d="M549 184c0 -94 -76 -185 -225 -197v-106h-48v105c-57 2 -133 15 -216 53l15 44c63 -29 145 -50 217 -50c132 1 206 69 206 146c0 84 -86 123 -188 166c-121 51 -244 89 -244 214c0 107 89 164 210 174l1 106h48l-1 -105c50 -1 113 -10 186 -45l-15 -42
c-86 37 -156 44 -198 43c-90 -3 -181 -38 -181 -130c0 -84 105 -124 194 -161c132 -55 239 -102 239 -215z" />
    <glyph glyph-name="Euro" unicode="&#x20ac;" horiz-adv-x="713" 
d="M647 99l13 -38c-77 -51 -148 -75 -222 -75c-152 0 -264 101 -300 261h-118l10 42h101c-3 23 -5 48 -5 73c0 34 3 66 8 96h-114l10 42h114c40 145 145 234 280 234c67 0 146 -22 223 -72l-12 -39c-77 47 -156 65 -210 65c-106 0 -191 -70 -228 -188h230l-10 -42h-230
c-6 -30 -9 -62 -9 -96c0 -25 2 -50 5 -73h234l-10 -42h-216c33 -133 123 -215 246 -215c58 0 132 19 210 67z" />
    <glyph glyph-name="florin" unicode="&#x192;" horiz-adv-x="501" 
d="M468 675c-115 46 -143 -11 -153 -82l-21 -143h106v-42h-112l-65 -450c-15 -100 -69 -179 -213 -121l12 39c115 -46 143 11 153 82l65 450h-67v42h73l21 143c14 100 69 179 213 121z" />
    <glyph glyph-name="sterling" unicode="&#xa3;" horiz-adv-x="562" 
d="M69 0l-14 40c84 65 120 147 100 249h-94v42h82c-4 13 -10 25 -16 38c-45 91 -109 203 -30 297c86 103 245 73 375 14l-13 -40c-141 65 -264 71 -324 -2c-57 -69 -7 -161 37 -250c9 -19 16 -38 22 -57h175v-42h-167c12 -79 -15 -163 -66 -226c132 32 195 -87 362 -1
l14 -40c-210 -107 -267 60 -443 -22z" />
    <glyph glyph-name="yen" unicode="&#xa5;" horiz-adv-x="648" 
d="M603 720l-195 -329h101v-42h-126l-22 -37v-51h133v-42h-133l-1 -219h-48l1 219h-137v42h137v43l-29 45h-123v42h96l-212 329h56l231 -358l4 -10l4 10l211 358h52z" />
    <glyph glyph-name="approxequal" unicode="&#x2248;" horiz-adv-x="474" 
d="M243 401c-81 37 -144 55 -183 -23l17 -20c39 60 94 26 154 -1c81 -37 144 -55 183 23l-17 20c-39 -60 -94 -26 -154 1zM243 281c-81 37 -144 55 -183 -23l17 -20c39 60 94 26 154 -1c81 -37 144 -55 183 23l-17 20c-39 -60 -94 -26 -154 1z" />
    <glyph glyph-name="asciitilde" unicode="~" horiz-adv-x="474" 
d="M243 331c-81 37 -144 55 -183 -23l17 -20c39 60 94 26 154 -1c81 -37 144 -55 183 23l-17 20c-39 -60 -94 -26 -154 1z" />
    <glyph glyph-name="divide" unicode="&#xf7;" horiz-adv-x="471" 
d="M203 481h69v-69h-69v69zM411 342v-42h-351v42h351zM203 230h69v-69h-69v69z" />
    <glyph glyph-name="emptyset" unicode="&#x2205;" horiz-adv-x="713" 
d="M579 478c46 -52 74 -120 74 -195c0 -164 -133 -297 -296 -297c-78 0 -148 30 -201 79l-62 -61l-24 23l63 61c-46 53 -73 121 -73 195c0 163 133 296 297 296c76 0 146 -29 198 -77l64 63l24 -24zM102 283c0 -64 22 -122 59 -167l366 359c-45 42 -105 68 -170 68
c-139 0 -255 -116 -255 -260zM357 22c138 0 254 116 254 261c0 64 -23 122 -60 168l-367 -359c46 -44 107 -70 173 -70z" />
    <glyph glyph-name="equal" unicode="=" horiz-adv-x="507" 
d="M447 401v-42h-387v42h387zM447 281v-42h-387v42h387z" />
    <glyph glyph-name="greater" unicode="&#x3e;" horiz-adv-x="577" 
d="M90 533l417 -177v-47l-417 -177v50l351 146l20 5l-20 4l-351 146v50z" />
    <glyph glyph-name="greaterequal" unicode="&#x2265;" horiz-adv-x="592" 
d="M90 563l417 -177v-47l-417 -177v50l351 146l20 5l-20 4l-351 146v50zM90 70v42h417v-42h-417z" />
    <glyph glyph-name="infinity" unicode="&#x221e;" horiz-adv-x="859" 
d="M632 499c103 1 167 -75 167 -167s-64 -167 -167 -166c-86 1 -150 72 -202 133c-53 -61 -117 -132 -203 -133c-103 -1 -167 74 -167 166c0 93 64 168 167 167c86 -1 150 -72 203 -132c52 60 116 131 202 132zM227 210c65 1 125 63 173 123c-48 60 -108 121 -173 122
c-72 1 -117 -51 -117 -123c0 -71 45 -123 117 -122zM632 210c72 -1 117 51 117 122c0 72 -45 124 -117 123c-65 -1 -125 -62 -173 -122c48 -60 108 -122 173 -123z" />
    <glyph glyph-name="integral" unicode="&#x222b;" horiz-adv-x="338" 
d="M94 -14c-23 0 -48 6 -74 19l12 39c65 -36 113 -9 113 62v552c0 71 40 117 97 119c23 2 49 -4 76 -18l-12 -39c-65 36 -113 9 -113 -62v-552c0 -72 -41 -118 -99 -120z" />
    <glyph glyph-name="less" unicode="&#x3c;" horiz-adv-x="577" 
d="M487 483l-351 -146l-20 -4l20 -5l351 -146v-50l-417 177v47l417 177v-50z" />
    <glyph glyph-name="lessequal" unicode="&#x2264;" horiz-adv-x="592" 
d="M502 513l-351 -146l-20 -4l20 -5l351 -146v-50l-417 177v47l417 177v-50zM85 70v42h417v-42h-417z" />
    <glyph glyph-name="logicalnot" unicode="&#xac;" horiz-adv-x="572" 
d="M75 391h417v-42l-1 -139h-48l1 139h-369v42z" />
    <glyph glyph-name="minus" unicode="&#x2212;" horiz-adv-x="511" 
d="M431 332v-42h-351v42h351z" />
    <glyph glyph-name="multiply" unicode="&#xd7;" horiz-adv-x="472" 
d="M412 468l-146 -146l146 -146l-30 -30l-146 146l-146 -146l-30 30l146 146l-146 146l30 30l146 -146l146 146z" />
    <glyph glyph-name="notequal" unicode="&#x2260;" horiz-adv-x="507" 
d="M447 364h-146l-46 -86h192v-42h-215l-74 -136h-48l74 136h-124v42h146l47 86h-193v42h216l72 134h49l-73 -134h123v-42z" />
    <glyph glyph-name="partialdiff" unicode="&#x2202;" horiz-adv-x="619" 
d="M200 723c228 64 366 -128 359 -368c-5 -191 -101 -384 -310 -366c-187 16 -227 201 -170 337c49 115 158 172 268 139c67 -19 127 -70 160 -157c10 80 1 163 -24 231c-55 149 -182 165 -269 141zM258 32c89 -7 154 38 195 107c18 30 32 65 41 101
c-21 89 -69 143 -123 170c-100 49 -207 4 -249 -103c-44 -112 -9 -263 136 -275z" />
    <glyph glyph-name="percent" unicode="%" horiz-adv-x="965" 
d="M224 360c-107 0 -174 80 -174 187s67 187 174 187s174 -80 174 -187s-67 -187 -174 -187zM254 0l406 720h52l-407 -720h-51zM224 398c73 0 130 56 130 149s-57 149 -130 149s-130 -56 -130 -149s57 -149 130 -149zM741 -14c-107 0 -174 80 -174 187s67 187 174 187
s174 -80 174 -187s-67 -187 -174 -187zM741 24c73 0 130 56 130 149s-57 149 -130 149s-130 -56 -130 -149s57 -149 130 -149z" />
    <glyph glyph-name="perthousand" unicode="&#x2030;" horiz-adv-x="1403" 
d="M224 360c-107 0 -174 80 -174 187s67 187 174 187s174 -80 174 -187s-67 -187 -174 -187zM254 0l406 720h52l-407 -720h-51zM224 398c73 0 130 56 130 149s-57 149 -130 149s-130 -56 -130 -149s57 -149 130 -149zM741 -14c-107 0 -174 80 -174 187s67 187 174 187
s174 -80 174 -187s-67 -187 -174 -187zM1179 -14c-107 0 -174 80 -174 187s67 187 174 187s174 -80 174 -187s-67 -187 -174 -187zM741 24c73 0 130 56 130 149s-57 149 -130 149s-130 -56 -130 -149s57 -149 130 -149zM1179 24c73 0 130 56 130 149s-57 149 -130 149
s-130 -56 -130 -149s57 -149 130 -149z" />
    <glyph glyph-name="plus" unicode="+" horiz-adv-x="527" 
d="M467 342v-42h-183v-172h-42v172h-182v42h182v173h42v-173h183z" />
    <glyph glyph-name="plusminus" unicode="&#xb1;" horiz-adv-x="527" 
d="M284 389h183v-42h-183v-142h-42v142h-182v42h182v143h42v-143zM60 88v42h407v-42h-407z" />
    <glyph glyph-name="product" unicode="&#x220f;" horiz-adv-x="633" 
d="M551 720l-1 -940h-48l1 897h-372l-1 -897h-48l1 940h468z" />
    <glyph glyph-name="radical" unicode="&#x221a;" horiz-adv-x="688" 
d="M578 720h50l-291 -920h-51l-157 359l-79 22v29h110l146 -348l3 -16l2 16z" />
    <glyph glyph-name="summation" unicode="&#x2211;" horiz-adv-x="640" 
d="M108 -177h492v-43h-550v38l283 434l-273 495v33h510v-43h-451l270 -485z" />
    <glyph glyph-name="lozenge" unicode="&#x25ca;" horiz-adv-x="498" 
d="M208 0l-168 360l168 360h82l168 -360l-168 -360h-82zM241 44h16l147 316l-147 316h-16l-147 -316z" />
    <glyph glyph-name="bar" unicode="|" horiz-adv-x="209" 
d="M80 -220l1 1000h48l-1 -1000h-48z" />
    <glyph glyph-name="brokenbar" unicode="&#xa6;" horiz-adv-x="209" 
d="M80 380l1 400h48l-1 -400h-48zM80 -220l1 400h48l-1 -400h-48z" />
    <glyph glyph-name="at" unicode="@" horiz-adv-x="882" 
d="M453 -107c-251 0 -393 164 -393 371c0 214 158 390 401 390c212 0 387 -134 358 -364c-17 -139 -97 -218 -174 -226c-40 -4 -84 10 -101 49c-48 -39 -112 -78 -184 -66c-109 19 -125 142 -82 209c43 66 147 78 291 35l12 46c33 124 -106 129 -230 91l-6 40
c126 42 326 41 282 -130l-40 -157c-16 -62 21 -79 55 -75c51 6 114 59 129 185c25 214 -129 319 -308 319c-217 0 -353 -154 -353 -346c0 -184 119 -327 344 -327c84 0 150 24 229 63l14 -41c-82 -43 -159 -66 -244 -66zM360 90c60 -15 129 24 176 60c0 12 2 26 6 41l17 62
c-137 42 -215 22 -243 -22c-25 -39 -29 -122 44 -141z" />
    <glyph glyph-name="ampersand" unicode="&#x26;" horiz-adv-x="675" 
d="M275 -14c-116 0 -211 46 -231 153c-22 119 46 212 158 234c-103 24 -164 139 -137 232c30 115 177 159 330 97l-15 -41c-129 53 -278 24 -270 -113c6 -100 89 -153 201 -153h141v105h48v-105h104v-42h-104v-214c0 -101 60 -124 143 -100l12 -38c-89 -29 -165 -7 -192 69
c-43 -63 -119 -84 -188 -84zM274 28c68 0 178 25 178 170v155h-141c-132 0 -236 -67 -219 -198c12 -89 83 -127 182 -127z" />
    <glyph glyph-name="paragraph" unicode="&#xb6;" horiz-adv-x="514" 
d="M236 720h68v-880h-49v510h-19c-105 0 -176 82 -176 187c0 104 71 183 176 183zM395 720h49v-880h-49v880z" />
    <glyph glyph-name="copyright" unicode="&#xa9;" horiz-adv-x="861" 
d="M431 -14c-208 0 -371 167 -371 375c0 207 163 373 371 373c207 0 370 -166 370 -373c0 -208 -163 -375 -370 -375zM431 23c182 0 326 148 326 338c0 189 -144 336 -326 336c-183 0 -327 -147 -327 -336c0 -190 144 -338 327 -338zM431 133c-112 0 -202 87 -202 227
c0 138 89 223 194 225c52 1 99 -17 146 -48l-13 -32c-48 28 -90 40 -133 38c-82 -4 -149 -73 -149 -185c0 -118 73 -180 155 -183c47 -2 86 12 136 39l12 -31c-50 -34 -96 -50 -146 -50z" />
    <glyph glyph-name="registered" unicode="&#xae;" horiz-adv-x="861" 
d="M431 -14c-208 0 -371 167 -371 375c0 207 163 373 371 373c207 0 370 -166 370 -373c0 -208 -163 -375 -370 -375zM431 23c182 0 326 148 326 338c0 189 -144 336 -326 336c-183 0 -327 -147 -327 -336c0 -190 144 -338 327 -338zM308 141v399l-47 11v26h188
c80 0 134 -45 135 -120c1 -60 -34 -107 -89 -123l105 -193h-49l-99 186h-102v-186h-42zM350 362h98c63 0 92 42 92 95c0 52 -38 82 -92 82h-98v-177z" />
    <glyph glyph-name="section" unicode="&#xa7;" horiz-adv-x="507" 
d="M377 171c45 -27 75 -63 75 -117c0 -97 -96 -140 -198 -141c-58 -1 -118 11 -163 35l16 38c39 -21 93 -32 143 -32c80 0 154 30 154 94c0 72 -92 107 -151 128c-104 37 -198 71 -198 175c0 59 30 99 75 123c-45 27 -75 62 -75 117c0 97 97 141 200 141
c57 1 116 -11 161 -35l-16 -38c-39 21 -91 32 -141 32c-81 0 -156 -29 -156 -94c0 -72 92 -107 151 -128c104 -37 198 -71 198 -175c0 -59 -29 -99 -75 -123zM103 363c0 -82 81 -114 150 -139c28 -10 56 -20 82 -32c39 18 69 44 69 92c0 81 -86 114 -150 137
c-30 11 -60 22 -88 34c-39 -19 -63 -43 -63 -92z" />
    <glyph glyph-name="trademark" unicode="&#x2122;" horiz-adv-x="981" 
d="M382 725v-39h-147v-397h-45v397h-145v39h337zM849 725h42v-431h-45v352l-5 -12l-135 -203h-29l-150 207l-4 11v-355h-45v392l-41 9v30h82l167 -234l5 -13l5 13z" />
    <glyph glyph-name="degree" unicode="&#xb0;" horiz-adv-x="382" 
d="M191 452c-78 0 -141 63 -141 141s63 141 141 141s141 -63 141 -141s-63 -141 -141 -141zM191 495c50 0 92 41 92 98s-42 98 -92 98s-92 -41 -92 -98s42 -98 92 -98z" />
    <glyph glyph-name="asciicircum" unicode="^" horiz-adv-x="531" 
d="M290 720l186 -347h-49l-157 297l-3 15l-4 -15l-158 -297h-50l188 347h47z" />
    <glyph glyph-name="dagger" unicode="&#x2020;" horiz-adv-x="500" 
d="M430 500v-46l-155 4v-678h-50v678l-155 -4v46l155 -4v224h50v-224z" />
    <glyph glyph-name="daggerdbl" unicode="&#x2021;" horiz-adv-x="500" 
d="M430 454l-155 4v-322l155 4v-46l-155 4v-318h-50v318l-155 -4v46l155 -4v322l-155 -4v46l155 -4v224h50v-224l155 4v-46z" />
    <glyph glyph-name="minute" unicode="&#x2032;" horiz-adv-x="250" 
d="M60 499l71 221h59l-87 -221h-43z" />
    <glyph glyph-name="second" unicode="&#x2033;" horiz-adv-x="410" 
d="M60 499l71 221h59l-87 -221h-43zM220 499l71 221h59l-84 -221h-46z" />
    <glyph glyph-name="acute" unicode="&#xb4;" horiz-adv-x="228" 
d="M50 602l68 139h60l-82 -139h-46z" />
    <glyph glyph-name="breve" unicode="&#x2d8;" horiz-adv-x="352" 
d="M51 740h48c-5 -65 21 -104 77 -104s82 39 77 104h48c8 -84 -38 -146 -125 -146s-133 62 -125 146z" />
    <glyph glyph-name="caron" unicode="&#x2c7;" horiz-adv-x="342" 
d="M231 741h61l-94 -139h-54l-94 139h61l53 -91l7 -16l6 15z" />
    <glyph glyph-name="cedilla" unicode="&#xb8;" horiz-adv-x="293" 
d="M126 0h50l-31 -69c43 8 111 -14 105 -81c-8 -86 -114 -110 -199 -48l12 37c74 -49 135 -35 140 6c6 46 -36 62 -102 52l-16 10z" />
    <glyph glyph-name="circumflex" unicode="&#x2c6;" horiz-adv-x="342" 
d="M198 741l94 -139h-61l-54 92l-6 15l-7 -16l-53 -91h-61l94 139h54z" />
    <glyph glyph-name="dieresis" unicode="&#xa8;" horiz-adv-x="334" 
d="M135 666l-53 -32l-32 54l54 32zM294 666l-53 -32l-32 54l54 32z" />
    <glyph glyph-name="dotaccent" unicode="&#x2d9;" horiz-adv-x="185" 
d="M163 666l-53 -32l-32 54l54 32z" />
    <glyph glyph-name="grave" unicode="`" horiz-adv-x="228" 
d="M178 601h-46l-82 139h60z" />
    <glyph glyph-name="hungarumlaut" unicode="&#x2dd;" horiz-adv-x="378" 
d="M50 601l68 139h60l-82 -139h-46zM200 601l68 139h60l-82 -139h-46z" />
    <glyph glyph-name="macron" unicode="&#xaf;" horiz-adv-x="340" 
d="M290 692v-46h-240v46h240z" />
    <glyph glyph-name="ogonek" unicode="&#x2db;" horiz-adv-x="297" 
d="M206 0c-54 -33 -120 -100 -104 -153c16 -55 87 -45 133 -10l12 -38c-61 -55 -177 -43 -195 46c-12 60 43 118 99 155h55z" />
    <glyph glyph-name="ring" unicode="&#x2da;" horiz-adv-x="264" 
d="M132 763c51 0 92 -36 92 -90s-41 -90 -92 -90s-92 36 -92 90s41 90 92 90zM132 727c-26 0 -49 -18 -49 -54s23 -54 49 -54s49 18 49 54s-23 54 -49 54z" />
    <glyph glyph-name="tilde" unicode="&#x2dc;" horiz-adv-x="341" 
d="M49 632c-10 59 33 96 115 66c38 -14 91 -43 91 10h37c10 -59 -33 -96 -115 -66c-38 14 -91 43 -91 -10h-37z" />
    </font>
</defs>
</svg>
